<svg width="24" height="24" viewBox="0 0 24 24" fill="none" xmlns="http://www.w3.org/2000/svg">
<path d="M12 0C5.38267 0 0 5.38267 0 12C0 18.6173 5.38267 24 12 24C18.6173 24 24 18.6173 24 12C24 5.38267 18.6173 0 12 0ZM12 22.7166C6.09112 22.7166 1.28342 17.9089 1.28342 12C1.28342 6.09112 6.09112 1.28342 12 1.28342C17.9089 1.28342 22.7166 6.09112 22.7166 12C22.7166 17.9089 17.9089 22.7166 12 22.7166Z" fill="#3A3A3A"/>
<path fill-rule="evenodd" clip-rule="evenodd" d="M12 7.44008C12.7362 7.44008 13.3331 6.84919 13.3331 6.12034C13.3331 5.39086 12.7362 4.79999 12 4.79999C11.2638 4.79999 10.6669 5.39088 10.6669 6.12034C10.6669 6.84921 11.2638 7.44008 12 7.44008ZM6.02012 7.94C6.10949 7.58608 6.47136 7.3714 6.82823 7.45988C8.11445 7.7779 10.46 8.10026 11.9999 8.10026C13.5399 8.10026 15.8855 7.7779 17.1717 7.45988C17.5285 7.3714 17.8904 7.5861 17.9798 7.94C18.0691 8.2933 17.8523 8.65215 17.4948 8.74001C16.6079 8.95966 15.278 9.17807 13.9998 9.30553V11.4C13.9998 12.9251 14.3248 15.9067 14.6467 17.1801C14.7361 17.5334 14.5186 17.8916 14.1617 17.9801C13.8042 18.0686 13.4424 17.8539 13.353 17.5C13.1217 16.583 12.8917 14.8907 12.7655 13.3798H11.2343C11.108 14.8908 10.8787 16.583 10.6468 17.5C10.5574 17.8539 10.1956 18.0686 9.83868 17.9801C9.48119 17.8916 9.26433 17.5334 9.35306 17.1801C9.67056 15.9228 9.9918 13.0005 9.99993 11.4594V9.30553C8.72183 9.17807 7.39183 8.95966 6.50497 8.74001C6.14748 8.65215 5.93074 8.2933 6.02012 7.94Z" fill="#3A3A3A"/>
<path fill-rule="evenodd" clip-rule="evenodd" d="M12 7.44008C12.7362 7.44008 13.3331 6.84919 13.3331 6.12034C13.3331 5.39086 12.7362 4.79999 12 4.79999C11.2638 4.79999 10.6669 5.39088 10.6669 6.12034C10.6669 6.84921 11.2638 7.44008 12 7.44008ZM6.02012 7.94C6.10949 7.58608 6.47136 7.3714 6.82823 7.45988C8.11445 7.7779 10.46 8.10026 11.9999 8.10026C13.5399 8.10026 15.8855 7.7779 17.1717 7.45988C17.5285 7.3714 17.8904 7.5861 17.9798 7.94C18.0691 8.2933 17.8523 8.65215 17.4948 8.74001C16.6079 8.95966 15.278 9.17807 13.9998 9.30553V11.4C13.9998 12.9251 14.3248 15.9067 14.6467 17.1801C14.7361 17.5334 14.5186 17.8916 14.1617 17.9801C13.8042 18.0686 13.4424 17.8539 13.353 17.5C13.1217 16.583 12.8917 14.8907 12.7655 13.3798H11.2343C11.108 14.8908 10.8787 16.583 10.6468 17.5C10.5574 17.8539 10.1956 18.0686 9.83868 17.9801C9.48119 17.8916 9.26433 17.5334 9.35306 17.1801C9.67056 15.9228 9.9918 13.0005 9.99993 11.4594V9.30553C8.72183 9.17807 7.39183 8.95966 6.50497 8.74001C6.14748 8.65215 5.93074 8.2933 6.02012 7.94Z" fill="#3A3A3A"/>
</svg>
