<svg width="208" height="168" viewBox="0 0 208 168" fill="none" xmlns="http://www.w3.org/2000/svg">
<path fill-rule="evenodd" clip-rule="evenodd" d="M182.702 118.011C189.954 118.129 197.403 119.448 202.211 124.886C207.303 130.646 208.847 138.564 207.579 146.15C206.201 154.398 202.819 163.018 195.248 166.551C187.754 170.048 179.308 166.593 171.977 162.763C165.022 159.13 158.593 154.03 156.694 146.408C154.753 138.619 156.958 130.152 162.377 124.235C167.415 118.734 175.249 117.889 182.702 118.011Z" fill="#FF967E"/>
<path fill-rule="evenodd" clip-rule="evenodd" d="M32.3506 0.0128972C41.137 0.155308 50.1619 1.73801 55.9866 8.26366C62.1554 15.1748 64.0264 24.6765 62.4904 33.7799C60.8205 43.6778 56.7227 54.0221 47.551 58.2612C38.4713 62.4579 28.2383 58.3118 19.3572 53.7161C10.931 49.3557 3.1417 43.2356 0.840869 34.09C-1.51073 24.7427 1.16012 14.5818 7.72554 7.48144C13.8292 0.880466 23.321 -0.133454 32.3506 0.0128972Z" fill="#FFB8C6"/>
<path fill-rule="evenodd" clip-rule="evenodd" d="M32.3506 0.0128972C41.137 0.155308 50.1619 1.73801 55.9866 8.26366C62.1554 15.1748 64.0264 24.6765 62.4904 33.7799C60.8205 43.6778 56.7227 54.0221 47.551 58.2612C38.4713 62.4579 28.2383 58.3118 19.3572 53.7161C10.931 49.3557 3.1417 43.2356 0.840869 34.09C-1.51073 24.7427 1.16012 14.5818 7.72554 7.48144C13.8292 0.880466 23.321 -0.133454 32.3506 0.0128972Z" fill="#FFB8C6"/>
<g clip-path="url(#clip0_1424_3875)">
<path d="M167.2 24H39.8C37.2009 24 34.7082 24.892 32.8704 26.4798C31.0325 28.0676 30 30.2212 30 32.4667L30 142.533C30 144.779 31.0325 146.932 32.8704 148.52C34.7082 150.108 37.2009 151 39.8 151H167.2C169.799 151 172.292 150.108 174.13 148.52C175.968 146.932 177 144.779 177 142.533V32.4667C177 30.2212 175.968 28.0676 174.13 26.4798C172.292 24.892 169.799 24 167.2 24V24ZM172.1 142.533C172.1 143.656 171.584 144.733 170.665 145.527C169.746 146.321 168.5 146.767 167.2 146.767H39.8C38.5004 146.767 37.2541 146.321 36.3352 145.527C35.4162 144.733 34.9 143.656 34.9 142.533V32.4667C34.9 31.3439 35.4162 30.2672 36.3352 29.4732C37.2541 28.6793 38.5004 28.2333 39.8 28.2333H167.2C168.5 28.2333 169.746 28.6793 170.665 29.4732C171.584 30.2672 172.1 31.3439 172.1 32.4667V142.533Z" fill="#00477C"/>
<path d="M162.3 40.9331H44.6998C43.4002 40.9331 42.1539 41.3791 41.235 42.173C40.3161 42.9669 39.7998 44.0437 39.7998 45.1664V138.3C39.7998 139.423 40.3161 140.499 41.235 141.293C42.1539 142.087 43.4002 142.533 44.6998 142.533H162.3C163.599 142.533 164.846 142.087 165.765 141.293C166.684 140.499 167.2 139.423 167.2 138.3V45.1664C167.2 44.0437 166.684 42.9669 165.765 42.173C164.846 41.3791 163.599 40.9331 162.3 40.9331V40.9331ZM162.3 138.3H44.6998V45.1664H162.3V138.3Z" fill="#00477C"/>
<path d="M44.7 36.7001H47.15C47.7998 36.7001 48.4229 36.4771 48.8824 36.0802C49.3419 35.6832 49.6 35.1448 49.6 34.5835C49.6 34.0221 49.3419 33.4837 48.8824 33.0868C48.4229 32.6898 47.7998 32.4668 47.15 32.4668H44.7C44.0502 32.4668 43.4271 32.6898 42.9676 33.0868C42.5081 33.4837 42.25 34.0221 42.25 34.5835C42.25 35.1448 42.5081 35.6832 42.9676 36.0802C43.4271 36.4771 44.0502 36.7001 44.7 36.7001Z" fill="#00477C"/>
<path d="M56.95 36.7001H59.4C60.0498 36.7001 60.6729 36.4771 61.1324 36.0802C61.5919 35.6832 61.85 35.1448 61.85 34.5835C61.85 34.0221 61.5919 33.4837 61.1324 33.0868C60.6729 32.6898 60.0498 32.4668 59.4 32.4668H56.95C56.3002 32.4668 55.6771 32.6898 55.2176 33.0868C54.7581 33.4837 54.5 34.0221 54.5 34.5835C54.5 35.1448 54.7581 35.6832 55.2176 36.0802C55.6771 36.4771 56.3002 36.7001 56.95 36.7001V36.7001Z" fill="#00477C"/>
<path d="M69.2 36.7001H71.65C72.2998 36.7001 72.923 36.4771 73.3824 36.0802C73.8419 35.6832 74.1 35.1448 74.1 34.5835C74.1 34.0221 73.8419 33.4837 73.3824 33.0868C72.923 32.6898 72.2998 32.4668 71.65 32.4668H69.2C68.5502 32.4668 67.9271 32.6898 67.4676 33.0868C67.0081 33.4837 66.75 34.0221 66.75 34.5835C66.75 35.1448 67.0081 35.6832 67.4676 36.0802C67.9271 36.4771 68.5502 36.7001 69.2 36.7001V36.7001Z" fill="#00477C"/>
<path d="M147.6 36.7001H162.3C162.95 36.7001 163.573 36.4771 164.032 36.0802C164.492 35.6832 164.75 35.1448 164.75 34.5835C164.75 34.0221 164.492 33.4837 164.032 33.0868C163.573 32.6898 162.95 32.4668 162.3 32.4668H147.6C146.95 32.4668 146.327 32.6898 145.867 33.0868C145.408 33.4837 145.15 34.0221 145.15 34.5835C145.15 35.1448 145.408 35.6832 145.867 36.0802C146.327 36.4771 146.95 36.7001 147.6 36.7001Z" fill="#00477C"/>
<path d="M52.05 134.067H52.197C53.0349 134.024 134.429 129.035 149.202 60.0533L152.853 65.3111C153.015 65.5547 153.232 65.7678 153.491 65.9381C153.75 66.1084 154.046 66.2324 154.361 66.3029C154.676 66.3733 155.004 66.3889 155.327 66.3485C155.649 66.3082 155.958 66.2129 156.237 66.068C156.516 65.9232 156.759 65.7318 156.951 65.505C157.144 65.2782 157.282 65.0206 157.358 64.7472C157.434 64.4737 157.446 64.19 157.393 63.9125C157.341 63.635 157.225 63.3693 157.052 63.1309L149.702 52.5476C149.51 52.2722 149.249 52.0382 148.937 51.8633C148.625 51.6884 148.271 51.5771 147.901 51.5379C147.532 51.5007 147.158 51.5355 146.806 51.6399C146.455 51.7443 146.135 51.9156 145.87 52.1412L136.07 60.6078C135.624 61.0071 135.377 61.5417 135.383 62.0967C135.388 62.6517 135.646 63.1826 136.1 63.575C136.554 63.9675 137.169 64.1901 137.811 64.1949C138.454 64.1997 139.073 63.9864 139.535 63.6008L144.361 59.431C130.271 124.965 55.159 129.668 51.903 129.833C51.2532 129.85 50.6378 130.089 50.1921 130.498C49.7464 130.907 49.507 131.452 49.5265 132.014C49.546 132.575 49.8228 133.107 50.2961 133.492C50.7693 133.877 51.4002 134.084 52.05 134.067Z" fill="#00477C"/>
<path d="M69.1999 115.017C71.1382 115.017 73.0329 114.52 74.6445 113.59C76.2561 112.66 77.5122 111.337 78.2539 109.79C78.9957 108.243 79.1897 106.541 78.8116 104.898C78.4335 103.256 77.5001 101.747 76.1295 100.563C74.759 99.3792 73.0128 98.5729 71.1118 98.2462C69.2108 97.9195 67.2403 98.0872 65.4496 98.728C63.6589 99.3688 62.1283 100.454 61.0515 101.846C59.9747 103.239 59.3999 104.876 59.3999 106.55C59.3999 108.796 60.4324 110.949 62.2703 112.537C64.1081 114.125 66.6008 115.017 69.1999 115.017ZM69.1999 102.317C70.169 102.317 71.1164 102.565 71.9222 103.03C72.728 103.495 73.356 104.157 73.7269 104.93C74.0978 105.704 74.1948 106.555 74.0057 107.376C73.8167 108.197 73.35 108.952 72.6647 109.544C71.9794 110.136 71.1063 110.539 70.1558 110.702C69.2053 110.866 68.2201 110.782 67.3248 110.461C66.4294 110.141 65.6641 109.598 65.1257 108.902C64.5873 108.206 64.2999 107.387 64.2999 106.55C64.2999 105.427 64.8162 104.351 65.7351 103.557C66.654 102.763 67.9003 102.317 69.1999 102.317Z" fill="#00477C"/>
<path d="M142.7 115.017C140.762 115.017 138.867 115.513 137.255 116.443C135.644 117.374 134.388 118.696 133.646 120.243C132.904 121.79 132.71 123.493 133.088 125.135C133.466 126.777 134.4 128.286 135.77 129.47C137.141 130.654 138.887 131.461 140.788 131.787C142.689 132.114 144.659 131.946 146.45 131.305C148.241 130.665 149.771 129.579 150.848 128.187C151.925 126.795 152.5 125.158 152.5 123.483C152.5 121.238 151.467 119.084 149.63 117.496C147.792 115.909 145.299 115.017 142.7 115.017ZM142.7 127.717C141.731 127.717 140.783 127.468 139.978 127.003C139.172 126.538 138.544 125.877 138.173 125.103C137.802 124.33 137.705 123.479 137.894 122.657C138.083 121.836 138.55 121.082 139.235 120.49C139.92 119.898 140.793 119.495 141.744 119.331C142.694 119.168 143.68 119.252 144.575 119.572C145.47 119.893 146.236 120.435 146.774 121.131C147.313 121.828 147.6 122.646 147.6 123.483C147.6 124.606 147.084 125.683 146.165 126.477C145.246 127.271 143.999 127.717 142.7 127.717Z" fill="#00477C"/>
<path d="M101.05 74.8C102.988 74.8 104.883 74.3035 106.495 73.3731C108.106 72.4428 109.362 71.1205 110.104 69.5734C110.846 68.0263 111.04 66.324 110.662 64.6816C110.284 63.0392 109.35 61.5306 107.98 60.3465C106.609 59.1625 104.863 58.3561 102.962 58.0294C101.061 57.7027 99.0904 57.8704 97.2997 58.5112C95.509 59.152 93.9784 60.2372 92.9016 61.6295C91.8248 63.0219 91.25 64.6588 91.25 66.3334C91.25 68.5789 92.2825 70.7324 94.1204 72.3202C95.9582 73.908 98.4509 74.8 101.05 74.8ZM101.05 62.1C102.019 62.1 102.966 62.3483 103.772 62.8135C104.578 63.2786 105.206 63.9398 105.577 64.7133C105.948 65.4869 106.045 66.3381 105.856 67.1593C105.667 67.9804 105.2 68.7347 104.515 69.3268C103.83 69.9188 102.956 70.322 102.006 70.4854C101.055 70.6487 100.07 70.5649 99.1748 70.2445C98.2795 69.9241 97.5142 69.3815 96.9758 68.6853C96.4374 67.9891 96.15 67.1706 96.15 66.3334C96.15 65.2106 96.6662 64.1339 97.5852 63.34C98.5041 62.546 99.7504 62.1 101.05 62.1V62.1Z" fill="#00477C"/>
<path d="M89.5176 99.5797C89.9771 99.9765 90.6001 100.199 91.2498 100.199C91.8994 100.199 92.5225 99.9765 92.9819 99.5797L96.1498 96.8428L99.3176 99.5797C99.7797 99.9653 100.399 100.179 101.041 100.174C101.683 100.169 102.298 99.9464 102.752 99.5539C103.206 99.1615 103.464 98.6306 103.47 98.0756C103.475 97.5206 103.228 96.9859 102.782 96.5867L99.6141 93.8499L102.782 91.113C103.228 90.7138 103.475 90.1791 103.47 89.6242C103.464 89.0692 103.206 88.5383 102.752 88.1458C102.298 87.7534 101.683 87.5308 101.041 87.526C100.399 87.5211 99.7797 87.7345 99.3176 88.1201L96.1498 90.8569L92.9819 88.1201C92.5198 87.7345 91.901 87.5211 91.2586 87.526C90.6162 87.5308 90.0017 87.7534 89.5475 88.1458C89.0932 88.5383 88.8355 89.0692 88.83 89.6242C88.8244 90.1791 89.0713 90.7138 89.5176 91.113L92.6855 93.8499L89.5176 96.5867C89.0583 96.9837 88.8003 97.5219 88.8003 98.0832C88.8003 98.6445 89.0583 99.1828 89.5176 99.5797V99.5797Z" fill="#00477C"/>
<path d="M154.232 96.587C153.773 96.1902 153.149 95.9673 152.5 95.9673C151.85 95.9673 151.227 96.1902 150.768 96.587L147.6 99.3239L144.432 96.587C143.97 96.2014 143.351 95.9881 142.709 95.9929C142.066 95.9977 141.452 96.2203 140.998 96.6128C140.543 97.0052 140.286 97.5361 140.28 98.0911C140.274 98.6461 140.521 99.1808 140.968 99.58L144.136 102.317L140.968 105.054C140.734 105.249 140.547 105.483 140.419 105.741C140.29 105.999 140.223 106.277 140.22 106.558C140.217 106.839 140.279 107.118 140.402 107.378C140.525 107.638 140.707 107.874 140.937 108.073C141.167 108.272 141.441 108.429 141.742 108.535C142.043 108.642 142.366 108.695 142.691 108.693C143.016 108.69 143.338 108.632 143.637 108.521C143.936 108.41 144.206 108.249 144.432 108.047L147.6 105.31L150.768 108.047C151.23 108.432 151.849 108.646 152.491 108.641C153.133 108.636 153.748 108.413 154.202 108.021C154.656 107.628 154.914 107.098 154.92 106.543C154.925 105.988 154.678 105.453 154.232 105.054L151.064 102.317L154.232 99.58C154.691 99.1831 154.949 98.6448 154.949 98.0835C154.949 97.5222 154.691 96.9839 154.232 96.587V96.587Z" fill="#00477C"/>
<path d="M122.382 121.987C121.923 121.59 121.3 121.367 120.65 121.367C120.001 121.367 119.378 121.59 118.918 121.987L115.75 124.724L112.582 121.987C112.12 121.601 111.501 121.388 110.859 121.393C110.217 121.398 109.602 121.62 109.148 122.013C108.694 122.405 108.436 122.936 108.43 123.491C108.425 124.046 108.672 124.581 109.118 124.98L112.286 127.717L109.118 130.454C108.884 130.649 108.697 130.882 108.569 131.141C108.441 131.399 108.373 131.677 108.37 131.958C108.367 132.239 108.429 132.517 108.553 132.778C108.676 133.038 108.858 133.274 109.088 133.473C109.318 133.672 109.591 133.829 109.892 133.935C110.193 134.042 110.516 134.095 110.841 134.093C111.167 134.09 111.488 134.032 111.787 133.921C112.086 133.81 112.356 133.649 112.582 133.447L115.75 130.71L118.918 133.447C119.38 133.832 119.999 134.045 120.641 134.041C121.284 134.036 121.898 133.813 122.353 133.421C122.807 133.028 123.064 132.497 123.07 131.942C123.076 131.387 122.829 130.853 122.382 130.454L119.215 127.717L122.382 124.98C122.842 124.583 123.1 124.045 123.1 123.483C123.1 122.922 122.842 122.384 122.382 121.987V121.987Z" fill="#00477C"/>
<path d="M65.0176 76.2965C65.4771 76.6933 66.1001 76.9162 66.7498 76.9162C67.3994 76.9162 68.0225 76.6933 68.4819 76.2965L71.6498 73.5596L74.8176 76.2965C75.2797 76.6821 75.8986 76.8954 76.541 76.8906C77.1833 76.8858 77.7978 76.6631 78.2521 76.2707C78.7063 75.8783 78.964 75.3474 78.9696 74.7924C78.9752 74.2374 78.7282 73.7027 78.2819 73.3035L75.1141 70.5667L78.2819 67.8298C78.7282 67.4306 78.9752 66.8959 78.9696 66.341C78.964 65.786 78.7063 65.2551 78.2521 64.8626C77.7978 64.4702 77.1833 64.2476 76.541 64.2428C75.8986 64.2379 75.2797 64.4513 74.8176 64.8368L71.6498 67.5737L68.4819 64.8368C68.0198 64.4513 67.401 64.2379 66.7586 64.2428C66.1162 64.2476 65.5017 64.4702 65.0475 64.8626C64.5932 65.2551 64.3356 65.786 64.33 66.341C64.3244 66.8959 64.5713 67.4306 65.0176 67.8298L68.1855 70.5667L65.0176 73.3035C64.5583 73.7004 64.3003 74.2387 64.3003 74.8C64.3003 75.3613 64.5583 75.8996 65.0176 76.2965V76.2965Z" fill="#00477C"/>
</g>
<defs>
<clipPath id="clip0_1424_3875">
<rect width="147" height="127" fill="white" transform="translate(30 24)"/>
</clipPath>
</defs>
</svg>
