<svg width="232" height="159" viewBox="0 0 232 159" fill="none" xmlns="http://www.w3.org/2000/svg">
<path fill-rule="evenodd" clip-rule="evenodd" d="M32.3506 0.0128972C41.137 0.155308 50.1619 1.73801 55.9866 8.26366C62.1554 15.1748 64.0264 24.6765 62.4904 33.7799C60.8205 43.6778 56.7227 54.0221 47.551 58.2612C38.4713 62.4579 28.2383 58.3118 19.3572 53.7161C10.931 49.3557 3.1417 43.2356 0.840869 34.09C-1.51073 24.7427 1.16012 14.5818 7.72554 7.48144C13.8292 0.880466 23.321 -0.133454 32.3506 0.0128972Z" fill="#FFB8C6"/>
<path fill-rule="evenodd" clip-rule="evenodd" d="M32.3506 0.0128972C41.137 0.155308 50.1619 1.73801 55.9866 8.26366C62.1554 15.1748 64.0264 24.6765 62.4904 33.7799C60.8205 43.6778 56.7227 54.0221 47.551 58.2612C38.4713 62.4579 28.2383 58.3118 19.3572 53.7161C10.931 49.3557 3.1417 43.2356 0.840869 34.09C-1.51073 24.7427 1.16012 14.5818 7.72554 7.48144C13.8292 0.880466 23.321 -0.133454 32.3506 0.0128972Z" fill="#FFB8C6"/>
<path d="M205.61 17.8C196.643 31.32 187.673 44.84 178.7 58.36C170.96 70.0266 163.23 81.6933 155.51 93.36C153.89 95.81 152.6 95.84 150.82 93.47C149.76 92.05 148.67 90.64 147.63 89.21C146.72 87.95 146.83 86.76 147.87 86C148.91 85.24 150.04 85.49 151.01 86.72C151.67 87.56 152.3 88.42 153.07 89.43L193.89 27.8L193.65 27.53L138.94 70.53L144.83 78.4C145.038 78.6524 145.231 78.9162 145.41 79.19C145.601 79.4035 145.745 79.6557 145.83 79.9295C145.916 80.2033 145.941 80.4922 145.905 80.7768C145.869 81.0613 145.772 81.3348 145.621 81.5786C145.47 81.8225 145.269 82.031 145.03 82.19C144.802 82.3595 144.542 82.4813 144.266 82.548C143.99 82.6148 143.704 82.6251 143.424 82.5784C143.143 82.5317 142.876 82.429 142.636 82.2763C142.397 82.1236 142.19 81.9242 142.03 81.69C140.6 79.85 139.23 77.96 137.82 76.1C136.89 74.89 136.16 73.17 134.92 72.64C133.68 72.11 131.92 72.76 130.39 72.9C126.49 73.29 122.58 73.69 118.68 74.06C116 74.31 115.13 73.3 115.68 70.69C117.13 64.09 118.56 57.49 120.04 50.9C120.158 50.4592 120.17 49.997 120.076 49.5506C119.983 49.1042 119.785 48.686 119.5 48.33C115.98 43.45 112.5 38.53 109.04 33.61C107.5 31.42 108.14 29.97 110.81 29.55C114.08 29.04 117.35 28.55 120.63 27.98C121 27.93 121.37 27.88 121.74 27.85C123.22 27.73 124.16 28.36 124.31 29.59C124.356 29.8815 124.338 30.1795 124.26 30.4639C124.181 30.7483 124.042 31.0125 123.852 31.2389C123.663 31.4652 123.427 31.6485 123.161 31.7763C122.895 31.9041 122.605 31.9736 122.31 31.98C119.62 32.45 116.91 32.84 113.97 33.31C117.17 37.81 120.23 42.13 123.33 46.51L184.04 22.51L183.97 22.28L170.76 24.34L132.43 30.34C132.25 30.34 132.06 30.34 131.88 30.4C130.3 30.56 129.31 29.97 129.09 28.74C128.87 27.51 129.73 26.5 131.32 26.24C133.86 25.82 136.4 25.45 138.93 25.06L183.07 18.13L201.47 15.24C201.829 15.1713 202.184 15.0778 202.53 14.96H205.62L205.61 17.8ZM120.69 67.52L182.83 27.84C182.6 27.68 182.47 27.68 182.35 27.72C163.283 35.24 144.233 42.7633 125.2 50.29C124.956 50.4233 124.742 50.6045 124.57 50.8228C124.398 51.041 124.272 51.2918 124.2 51.56C123.41 54.91 122.71 58.29 121.98 61.65C121.57 63.5 121.17 65.34 120.69 67.52ZM126.58 68.74V69.02C129.08 68.76 131.58 68.55 134.08 68.22C134.806 68.1227 135.495 67.8403 136.08 67.4C145.6 59.96 155.1 52.5 164.58 45.02C164.88 44.78 165.15 44.51 165.43 44.25L165.25 44.02L126.58 68.74Z" fill="#00477C"/>
<path d="M62 28.7201C63.7 26.0701 66.45 25.5601 69.25 25.2401C75.38 24.5601 81.17 25.4701 86.25 29.3201C89.44 31.7501 91.44 34.8601 90.83 39.0401C90.11 44.0401 85.67 47.2601 80.51 46.7701C76.2067 46.3389 72.1703 44.4844 69.04 41.5001C65.9254 38.6842 63.5259 35.1673 62.04 31.2401L62 28.7201ZM66.14 30.3902C66.75 31.5402 67.24 32.6401 67.89 33.6501C70.89 38.3101 74.8 41.8301 80.61 42.5601C81.6721 42.7633 82.7712 42.6297 83.7536 42.1779C84.7361 41.7261 85.553 40.9787 86.09 40.0401C87.15 38.0401 86.79 35.9201 85.09 33.9901C81.24 29.6201 71.72 27.7202 66.14 30.3902Z" fill="#00477C"/>
<path d="M91.0398 102C87.2298 97.5099 86.8699 93.7599 89.8899 88.7699C92.0581 85.1141 94.9416 81.9332 98.3678 79.4177C101.794 76.9021 105.692 75.1037 109.83 74.1299C109.97 74.1299 110.11 74.0799 110.25 74.0499C111.81 73.7499 112.85 74.2699 113.13 75.4799C113.41 76.6899 112.7 77.6099 111.13 78.1799C108.346 79.082 105.635 80.1953 103.02 81.5099C98.7809 83.8609 95.3248 87.4039 93.0799 91.6999C91.4599 94.6999 91.9099 97.0499 94.2699 99.0299C97.3599 97.3499 100.27 95.5499 103.42 94.1099C107.537 92.1667 112.06 91.2375 116.61 91.3999C117.403 91.4122 118.191 91.5368 118.95 91.7699C119.448 91.9161 119.908 92.1712 120.296 92.5167C120.684 92.8622 120.991 93.2896 121.194 93.768C121.397 94.2463 121.491 94.7637 121.469 95.2829C121.448 95.802 121.311 96.3099 121.07 96.7699C120.592 97.7323 119.909 98.5787 119.07 99.2499C112.07 104.7 104.33 106.87 95.5599 104.62C95.3077 104.583 95.0503 104.602 94.8064 104.676C94.5626 104.751 94.3383 104.878 94.1499 105.05C90.8799 108.57 87.4398 111.96 84.4798 115.72C78.6398 123.18 73.0299 130.82 68.9099 139.42C68.3499 140.59 67.8599 141.8 67.3299 142.99C66.7199 144.33 65.6999 144.83 64.5399 144.38C64.257 144.272 64.0006 144.104 63.7882 143.889C63.5758 143.673 63.4124 143.414 63.309 143.129C63.2056 142.845 63.1646 142.541 63.1889 142.239C63.2133 141.937 63.3022 141.644 63.4499 141.38C65.786 135.735 68.7443 130.369 72.2699 125.38C77.2699 118.12 82.3199 110.88 88.5499 104.56C89.3399 103.67 90.1598 102.85 91.0398 102ZM116.46 95.7899C110.19 95.5199 104.68 97.6299 99.6099 101.06C102.633 101.396 105.694 101.097 108.595 100.183C111.497 99.2686 114.175 97.7588 116.46 95.7499V95.7899Z" fill="#00477C"/>
<path d="M186.64 123.38C183.673 123.529 180.765 122.509 178.54 120.54C174.23 116.86 172.1 112.03 171.43 106.54C171.176 104.371 171.176 102.179 171.43 100.01C171.79 96.8498 173.54 95.6898 176.68 96.1298C184.4 97.2098 192.39 104.19 194.22 111.44C195.83 117.69 191.75 123.36 186.64 123.38ZM175.59 100.23C175.104 103.434 175.388 106.708 176.42 109.78C177.356 113.336 179.613 116.401 182.73 118.35C183.557 118.938 184.549 119.247 185.563 119.233C186.578 119.218 187.561 118.881 188.37 118.27C189.177 117.7 189.79 116.898 190.13 115.971C190.469 115.044 190.518 114.035 190.27 113.08C189.23 107.21 182.42 101.15 175.59 100.23Z" fill="#00477C"/>
<path d="M106.59 133.42C104.93 134.42 103.39 135.34 101.86 136.28C101.462 136.601 101.048 136.901 100.62 137.18C100.192 137.439 99.6826 137.528 99.192 137.43C98.7014 137.332 98.2655 137.054 97.9701 136.65C97.7989 136.468 97.6659 136.255 97.5791 136.021C97.4922 135.787 97.4532 135.538 97.4644 135.289C97.4756 135.04 97.5367 134.796 97.6442 134.571C97.7517 134.346 97.9033 134.145 98.0901 133.98C100.32 131.822 103.079 130.291 106.09 129.54C108.21 129.1 109.6 129.91 110.55 132.01C111.754 135.009 112.227 138.252 111.93 141.47C111.883 145.698 110.508 149.805 108 153.21C107.108 154.405 106.054 155.472 104.87 156.38C103.46 157.465 101.762 158.112 99.988 158.242C98.2135 158.373 96.4397 157.98 94.8862 157.113C93.3326 156.245 92.0673 154.942 91.2469 153.363C90.4264 151.784 90.0868 150 90.2701 148.23C90.5654 146.069 91.1055 143.949 91.8801 141.91C92.3901 140.36 93.6201 139.86 94.8201 140.42C96.0201 140.98 96.2401 142.03 95.7401 143.52C95.1849 144.993 94.773 146.517 94.5101 148.07C94.1601 150.76 95.2401 152.71 97.3001 153.65C99.3601 154.59 101.47 154.13 103.39 152.18C106.094 149.348 107.636 145.604 107.71 141.69C107.973 138.884 107.589 136.055 106.59 133.42Z" fill="#00477C"/>
<path fill-rule="evenodd" clip-rule="evenodd" d="M206.702 62.0107C213.954 62.1294 221.403 63.4483 226.211 68.8864C231.303 74.6457 232.847 82.5638 231.579 90.15C230.201 98.3982 226.819 107.018 219.248 110.551C211.754 114.048 203.308 110.593 195.977 106.763C189.022 103.13 182.593 98.0297 180.694 90.4084C178.753 82.6189 180.958 74.1515 186.377 68.2345C191.415 62.7337 199.249 61.8888 206.702 62.0107Z" fill="#D5F0FF"/>
</svg>
