<svg width="202" height="196" viewBox="0 0 202 196" fill="none" xmlns="http://www.w3.org/2000/svg">
<path fill-rule="evenodd" clip-rule="evenodd" d="M26.7021 0.0107477C33.9543 0.129423 41.4035 1.44834 46.2112 6.88638C51.3028 12.6457 52.8472 20.5638 51.5794 28.15C50.201 36.3982 46.8188 45.0184 39.2484 48.551C31.7541 52.0482 23.3078 48.5932 15.9774 44.7634C9.02238 41.1298 2.59315 36.0297 0.694051 28.4084C-1.24695 20.6189 0.957559 12.1515 6.37663 6.23453C11.4146 0.733721 19.2491 -0.111212 26.7021 0.0107477Z" fill="#BFF7EB"/>
<path fill-rule="evenodd" clip-rule="evenodd" d="M165.026 132.014C175.626 132.166 186.513 133.854 193.539 140.815C200.981 148.186 203.238 158.322 201.385 168.032C199.371 178.59 194.427 189.624 183.363 194.145C172.41 198.622 160.065 194.199 149.352 189.297C139.187 184.646 129.79 178.118 127.014 168.363C124.178 158.392 127.4 147.554 135.32 139.98C142.683 132.939 154.133 131.858 165.026 132.014Z" fill="#F2BFF7"/>
<path d="M165.578 29H21.9374C21.3229 29 20.7337 29.2229 20.2992 29.6196C19.8647 30.0163 19.6206 30.5544 19.6206 31.1155V94.579C19.6206 95.1401 19.8647 95.6782 20.2992 96.0749C20.7337 96.4716 21.3229 96.6945 21.9374 96.6945H62.2866C62.9011 96.6945 63.4904 96.4716 63.9248 96.0749C64.3593 95.6782 64.6034 95.1401 64.6034 94.579C64.6034 94.018 64.3593 93.4799 63.9248 93.0832C63.4904 92.6865 62.9011 92.4636 62.2866 92.4636H24.2542V33.2309H163.262V92.4636H125.229C124.615 92.4636 124.025 92.6865 123.591 93.0832C123.156 93.4799 122.912 94.018 122.912 94.579C122.912 95.1401 123.156 95.6782 123.591 96.0749C124.025 96.4716 124.615 96.6945 125.229 96.6945H165.578C166.193 96.6945 166.782 96.4716 167.217 96.0749C167.651 95.6782 167.895 95.1401 167.895 94.579V31.1155C167.895 30.5544 167.651 30.0163 167.217 29.6196C166.782 29.2229 166.193 29 165.578 29V29Z" fill="#00477C"/>
<path d="M116.926 92.4641H112.225V81.3749C112.221 79.8694 111.684 78.4055 110.694 77.2016C109.704 75.9976 108.314 75.1181 106.732 74.6943L100.544 73.0612V70.785C102.325 69.2679 103.378 67.1705 103.475 64.9484V62.8076C104.672 61.8208 105.677 60.6547 106.445 59.3594C107.47 57.5167 107.874 55.438 107.607 53.3857C107.339 51.3333 106.412 49.3994 104.941 47.8281C104.719 47.6103 104.448 47.439 104.146 47.3259C103.845 47.2127 103.52 47.1603 103.194 47.1723C102.87 47.1814 102.551 47.2528 102.258 47.3818C101.966 47.5108 101.706 47.6946 101.496 47.9211C101.224 48.1927 100.874 48.3897 100.486 48.4902C99.9012 48.3697 99.3261 48.2128 98.7647 48.0206C96.5504 47.257 94.1997 46.8768 91.8329 46.8994C83.372 46.8994 81.0899 51.2064 80.4806 53.7767C80.105 55.4417 80.2297 57.1684 80.8415 58.774C81.4533 60.3795 82.5294 61.804 83.9558 62.8964V64.9569C84.0071 66.074 84.2996 67.1708 84.8165 68.1844C85.3333 69.198 86.0644 70.1083 86.9676 70.8632V73.0718L80.7841 74.6943C79.1999 75.1167 77.8079 75.9959 76.8161 77.2004C75.8244 78.4049 75.2861 79.8701 75.2817 81.377V92.4641H70.5902C69.9758 92.4641 69.3865 92.687 68.952 93.0837C68.5175 93.4804 68.2734 94.0185 68.2734 94.5796V100.926V122.08C68.2734 122.642 68.5175 123.18 68.952 123.576C69.3865 123.973 69.9758 124.196 70.5902 124.196H74.8693C75.4838 124.196 76.0731 123.973 76.5076 123.576C76.942 123.18 77.1861 122.642 77.1861 122.08C77.1861 121.519 76.942 120.981 76.5076 120.585C76.0731 120.188 75.4838 119.965 74.8693 119.965H72.907V103.041H114.609V119.965H111.945C111.33 119.965 110.741 120.188 110.307 120.585C109.872 120.981 109.628 121.519 109.628 122.08C109.628 122.642 109.872 123.18 110.307 123.576C110.741 123.973 111.33 124.196 111.945 124.196H116.926C117.54 124.196 118.13 123.973 118.564 123.576C118.999 123.18 119.243 122.642 119.243 122.08V100.926V94.5796C119.243 94.0185 118.999 93.4804 118.564 93.0837C118.13 92.687 117.54 92.4641 116.926 92.4641ZM98.8296 64.9484C98.8296 67.3918 95.1366 69.6024 93.7002 69.6024C92.2638 69.6024 88.6033 67.3875 88.6033 64.9484V62.8478C88.8154 62.6544 89.0128 62.448 89.1941 62.2301C89.5091 61.8578 89.7779 61.5045 90.0096 61.1723C90.9825 61.505 91.9925 61.7391 93.0214 61.8704C94.9295 62.2048 96.9052 61.9549 98.6419 61.1597C98.7184 61.4537 98.7786 61.7604 98.8273 62.0566L98.8296 64.9484ZM91.5966 74.377V73.4991C92.9882 73.9589 94.5139 73.9499 95.8989 73.4737V74.5314C95.8424 74.9553 95.6068 75.3422 95.2424 75.6097C94.878 75.8772 94.4136 76.0042 93.9481 75.9636C93.4186 75.9762 92.8996 75.8269 92.4736 75.5395C92.0476 75.252 91.7389 74.8429 91.5966 74.377ZM85.0146 54.6589C85.2184 53.7831 85.8486 51.1218 91.8329 51.1218C93.6869 51.1027 95.5281 51.4049 97.2588 52.0124C98.0144 52.2673 98.7885 52.4737 99.5756 52.6301C100.587 52.8091 101.635 52.696 102.574 52.3065C102.91 53.1643 103.051 54.0757 102.988 54.985C102.926 55.8943 102.661 56.7824 102.21 57.5951C102.194 57.6286 102.177 57.6611 102.157 57.6924C101.823 57.0944 101.269 56.6226 100.593 56.3597C100.142 56.1828 99.6483 56.1163 99.1608 56.1668C98.6733 56.2172 98.2085 56.3829 97.8125 56.6474C97.2642 57.1198 96.5969 57.4617 95.8696 57.6428C95.1423 57.824 94.3774 57.8388 93.6423 57.6861C92.463 57.5448 91.326 57.1918 90.2969 56.6474C90.0056 56.4696 89.6743 56.354 89.3274 56.3092C88.9806 56.2643 88.6272 56.2914 88.2933 56.3883C87.9595 56.4853 87.6539 56.6496 87.3991 56.8691C87.1443 57.0887 86.947 57.3578 86.8217 57.6565C86.6235 58.0715 86.3846 58.4695 86.1081 58.8453C85.5944 58.2667 85.2294 57.5902 85.0402 56.8656C84.8509 56.141 84.8422 55.3869 85.0146 54.6589ZM79.9176 81.3749C79.9219 80.7849 80.1339 80.2117 80.5223 79.7401C80.9107 79.2685 81.4549 78.9235 82.0746 78.756L87.994 77.1927C88.6083 78.1281 89.4827 78.8984 90.5284 79.4256C91.5741 79.9528 92.7539 80.2181 93.9481 80.1945C95.1033 80.2255 96.2454 79.9656 97.2495 79.4432C98.2536 78.9208 99.0808 78.1561 99.6405 77.2329L105.432 78.7623C106.053 78.9294 106.597 79.2743 106.986 79.7459C107.375 80.2176 107.587 80.7909 107.592 81.3813V92.4641H87.007V84.8252L88.6033 82.8134C88.9553 82.3589 89.0969 81.796 88.9974 81.2467C88.8979 80.6975 88.5653 80.2062 88.0718 79.8794C87.5782 79.5526 86.9634 79.4166 86.3608 79.5009C85.7581 79.5853 85.2161 79.8831 84.8524 80.3299L82.8136 82.898C82.5272 83.2593 82.3731 83.6939 82.3734 84.1398V92.4641H79.9246L79.9176 81.3749ZM72.907 96.695H114.609V98.8105H72.907V96.695Z" fill="#00477C"/>
<path d="M57.6163 145.285L49.4727 143.136V139.349C51.2565 137.823 52.6673 135.97 53.6131 133.911C54.5589 131.853 55.0182 129.635 54.9612 127.403V120.979L55.2531 113.953C55.2662 113.636 55.2007 113.319 55.0614 113.028C54.9221 112.736 54.7127 112.477 54.4487 112.27C54.1846 112.063 53.8728 111.912 53.5364 111.83C53.1999 111.748 52.8476 111.736 52.5054 111.795C48.8886 112.405 45.2257 112.758 41.5493 112.853C32.7131 112.853 28.5985 115.246 28.5985 120.382C28.5985 121.493 28.5614 127.389 28.5614 127.401C28.5156 129.55 28.9432 131.685 29.8188 133.68C30.6944 135.674 32.0001 137.488 33.6583 139.013V143.127L25.4685 145.285C23.6071 145.784 21.9719 146.819 20.8064 148.235C19.6408 149.651 19.0073 151.373 19 153.144V162.272C19 162.833 19.2441 163.371 19.6786 163.768C20.1131 164.165 20.7023 164.388 21.3168 164.388C21.9312 164.388 22.5205 164.165 22.955 163.768C23.3895 163.371 23.6336 162.833 23.6336 162.272V153.144C23.637 152.289 23.9429 151.457 24.5056 150.774C25.0683 150.09 25.8578 149.59 26.7566 149.349L36.2323 146.846H46.8455L56.3189 149.349C57.2178 149.59 58.0076 150.089 58.5703 150.773C59.1331 151.457 59.4388 152.289 59.4419 153.144V162.272C59.4419 162.833 59.686 163.371 60.1205 163.768C60.555 164.165 61.1442 164.388 61.7587 164.388C62.3731 164.388 62.9624 164.165 63.3969 163.768C63.8314 163.371 64.0755 162.833 64.0755 162.272V153.144C64.0692 151.374 63.4371 149.653 62.2733 148.237C61.1095 146.821 59.4762 145.785 57.6163 145.285ZM33.2228 120.386C33.2228 119.233 33.2228 117.088 41.5401 117.088C44.5429 117.042 47.5387 116.807 50.506 116.384L50.3207 120.86C50.3207 120.888 50.3207 120.915 50.3207 120.941V127.405C50.3207 131.378 48.0039 137.68 41.7764 137.68C35.5488 137.68 33.1857 131.387 33.1857 127.414C33.1857 127.414 33.2228 121.499 33.2228 120.386ZM38.2757 141.439C40.4077 142.022 42.6728 142.066 44.8299 141.566V142.624H38.2757V141.439Z" fill="#00477C"/>
<path d="M109.207 145.287L101.063 143.138V139.351C102.847 137.825 104.258 135.972 105.203 133.913C106.149 131.855 106.609 129.637 106.552 127.405V120.981L106.843 113.955C106.857 113.638 106.791 113.322 106.652 113.03C106.513 112.739 106.303 112.48 106.04 112.273C105.776 112.066 105.464 111.915 105.128 111.833C104.792 111.751 104.44 111.739 104.098 111.798C100.481 112.407 96.8168 112.76 93.1397 112.855C84.3058 112.855 80.1911 115.248 80.1911 120.384C80.1911 121.495 80.1541 127.391 80.1541 127.403C80.1089 129.551 80.5367 131.686 81.4123 133.68C82.2878 135.675 83.5932 137.488 85.251 139.013V143.13L77.0774 145.287C75.2158 145.786 73.5804 146.82 72.4148 148.237C71.2492 149.653 70.6158 151.375 70.6089 153.146V162.274C70.6089 162.835 70.853 163.373 71.2875 163.77C71.7219 164.167 72.3112 164.39 72.9257 164.39C73.5401 164.39 74.1294 164.167 74.5639 163.77C74.9984 163.373 75.2425 162.835 75.2425 162.274V153.146C75.2459 152.291 75.5518 151.459 76.1145 150.776C76.6772 150.092 77.4667 149.592 78.3655 149.351L87.8389 146.848H98.4521L107.925 149.351C108.825 149.592 109.615 150.091 110.178 150.775C110.741 151.459 111.047 152.291 111.051 153.146V162.274C111.051 162.835 111.295 163.373 111.729 163.77C112.164 164.167 112.753 164.39 113.368 164.39C113.982 164.39 114.571 164.167 115.006 163.77C115.44 163.373 115.684 162.835 115.684 162.274V153.146C115.677 151.374 115.042 149.651 113.874 148.235C112.707 146.819 111.07 145.785 109.207 145.287ZM84.8247 120.388C84.8247 119.235 84.8247 117.09 93.1397 117.09C96.1433 117.044 99.1398 116.809 102.108 116.386L101.92 120.862C101.92 120.89 101.92 120.917 101.92 120.943V127.407C101.92 131.38 99.6035 137.682 93.3783 137.682C87.1531 137.682 84.79 131.38 84.79 127.418C84.7876 127.416 84.8247 121.501 84.8247 120.388ZM89.873 141.441C92.0058 142.024 94.2716 142.068 96.4295 141.568V142.626H89.873V141.441Z" fill="#00477C"/>
<path d="M160.804 145.285L152.663 143.136V139.349C154.446 137.823 155.857 135.97 156.803 133.911C157.749 131.853 158.208 129.635 158.151 127.403V120.979L158.443 113.953C158.456 113.636 158.391 113.319 158.251 113.028C158.112 112.736 157.903 112.477 157.639 112.27C157.375 112.063 157.063 111.912 156.726 111.83C156.39 111.748 156.038 111.736 155.695 111.795C152.079 112.405 148.416 112.758 144.739 112.853C135.903 112.853 131.788 115.246 131.788 120.382C131.788 121.493 131.751 127.389 131.751 127.401C131.706 129.55 132.133 131.685 133.009 133.68C133.884 135.674 135.19 137.488 136.848 139.013V143.127L128.668 145.285C126.806 145.785 125.172 146.819 124.006 148.235C122.841 149.651 122.207 151.373 122.199 153.144V162.272C122.199 162.833 122.443 163.371 122.878 163.768C123.312 164.165 123.902 164.388 124.516 164.388C125.13 164.388 125.72 164.165 126.154 163.768C126.589 163.371 126.833 162.833 126.833 162.272V153.144C126.836 152.289 127.142 151.457 127.705 150.774C128.268 150.09 129.057 149.59 129.956 149.349L139.432 146.846H150.056L159.53 149.349C160.429 149.59 161.218 150.089 161.781 150.773C162.344 151.457 162.65 152.289 162.653 153.144V162.272C162.653 162.833 162.897 163.371 163.331 163.768C163.766 164.165 164.355 164.388 164.969 164.388C165.584 164.388 166.173 164.165 166.608 163.768C167.042 163.371 167.286 162.833 167.286 162.272V153.144C167.279 151.371 166.644 149.648 165.475 148.231C164.307 146.815 162.668 145.781 160.804 145.285ZM136.422 120.386C136.422 119.233 136.422 117.088 144.739 117.088C147.742 117.042 150.738 116.807 153.705 116.384L153.52 120.86C153.52 120.888 153.52 120.915 153.52 120.941V127.405C153.52 131.378 151.203 137.68 144.976 137.68C138.748 137.68 136.387 131.387 136.387 127.414C136.387 127.414 136.422 121.499 136.422 120.386ZM141.484 141.437C143.616 142.02 145.881 142.064 148.038 141.564V142.622H141.484V141.437Z" fill="#00477C"/>
</svg>
