<svg width="228" height="202" viewBox="0 0 228 202" fill="none" xmlns="http://www.w3.org/2000/svg">
<path fill-rule="evenodd" clip-rule="evenodd" d="M52.7021 6.01075C59.9543 6.12942 67.4035 7.44834 72.2112 12.8864C77.3028 18.6457 78.8472 26.5638 77.5794 34.15C76.201 42.3982 72.8188 51.0184 65.2484 54.551C57.7541 58.0482 49.3078 54.5932 41.9774 50.7634C35.0224 47.1298 28.5932 42.0297 26.6941 34.4084C24.753 26.6189 26.9576 18.1515 32.3766 12.2345C37.4146 6.73372 45.2491 5.88879 52.7021 6.01075Z" fill="#BFF7EB"/>
<path fill-rule="evenodd" clip-rule="evenodd" d="M191.026 138.014C201.626 138.166 212.513 139.854 219.539 146.815C226.981 154.186 229.238 164.322 227.385 174.032C225.371 184.59 220.427 195.624 209.363 200.145C198.41 204.622 186.065 200.199 175.352 195.297C165.187 190.646 155.79 184.118 153.014 174.363C150.178 164.392 153.4 153.554 161.32 145.98C168.683 138.939 180.133 137.858 191.026 138.014Z" fill="#F2BFF7"/>
<path d="M187.543 152.418C192.226 155.474 196.463 153.946 200.7 152.418C202.93 151.463 205.383 150.699 207.836 149.935C208.951 149.553 210.066 149.362 211.181 149.935C211.404 151.272 210.066 151.272 209.397 151.654C199.808 154.71 190.219 157.575 180.63 160.822C172.825 163.496 164.797 165.597 157.215 168.271C150.971 170.372 144.727 172.282 138.706 174.192C133.8 175.911 129.117 177.821 124.211 179.349C121.312 180.304 118.19 180.686 115.737 182.596C114.845 183.36 114.176 182.596 113.284 182.596C106.148 181.832 99.4579 179.922 92.5449 178.394C80.7259 176.102 68.907 173.428 57.088 170.945C42.37 167.698 27.652 164.451 12.934 161.204C12.042 161.013 10.927 161.013 10.481 159.867C12.042 159.103 13.603 159.867 14.941 160.249C17.617 160.822 20.516 161.395 23.192 162.159C26.314 162.923 29.213 162.732 32.112 161.013C28.544 158.721 24.084 159.485 20.293 157.766C20.739 156.429 21.631 156.811 22.3 157.002C24.307 157.384 26.091 157.766 28.098 158.148C31.22 158.912 31.889 158.339 31.889 155.665C31.889 154.71 31.666 153.946 30.105 154.137C27.652 154.519 25.868 153.373 23.861 152.227C21.185 150.699 20.739 149.744 22.523 147.452C23.638 145.924 23.415 145.16 22.523 144.014C20.739 141.34 20.739 141.34 22.969 138.666C23.638 137.902 24.084 136.947 24.753 136.183C26.983 133.318 28.321 132.936 31.666 134.464C35.011 135.992 35.68 135.801 36.126 132.554C36.349 130.071 37.018 127.97 40.586 127.588C41.701 127.397 42.147 126.633 42.816 125.869C44.823 123.959 47.276 123.195 49.952 123.577C51.959 123.768 53.52 124.532 53.743 126.442C53.966 127.97 55.081 129.307 55.527 130.835C57.088 130.644 56.865 129.689 56.642 129.116C56.196 120.33 57.088 111.735 56.865 102.949C56.865 96.6459 56.4189 90.3429 56.865 84.0399C57.311 79.0739 56.642 73.9169 57.311 68.9509C57.98 63.9849 57.311 59.0189 57.757 54.0529C58.203 50.9969 57.757 47.7499 57.534 44.5029C57.534 42.2109 58.203 40.3009 60.656 38.9639C65.339 36.4809 69.7989 33.9979 74.2589 31.5149C85.8549 25.0209 97.8969 18.9089 109.047 11.8419C111.5 10.6959 113.73 10.5049 115.068 9.1679C115.96 8.2129 116.852 8.9769 117.521 9.5499C122.204 12.9879 126.887 16.2349 132.016 19.0999C137.145 22.1559 142.051 25.2119 147.18 28.2679C149.41 29.4139 151.194 30.7509 153.201 32.2789C155.431 33.9979 156.323 35.9079 154.985 38.1999C154.762 38.5819 154.539 39.1549 154.762 39.5369C154.985 47.5589 152.978 55.5809 152.755 63.6029C152.532 71.4339 151.863 79.2649 151.863 87.2869C151.863 95.3089 151.417 103.331 150.971 111.353C150.748 114.409 150.525 117.465 150.748 120.521C152.086 120.903 152.309 119.566 152.755 119.184C154.985 116.892 157.884 117.083 160.56 117.656C163.013 118.229 163.236 120.33 163.459 122.049C163.682 122.813 163.236 123.768 163.236 124.532C163.013 125.869 163.682 126.442 165.243 126.824C169.703 127.779 171.71 129.689 169.926 134.846C169.257 136.756 169.257 138.093 171.041 139.43C172.156 140.194 172.379 141.34 172.602 142.295C173.048 144.205 172.825 146.306 174.832 147.834C175.501 148.407 175.055 149.362 174.609 150.317C173.494 152.418 171.487 153.755 169.034 154.71C167.473 155.283 165.912 155.665 164.351 156.429C163.905 156.62 163.459 157.002 163.682 157.575C163.905 158.148 164.351 158.148 165.02 157.957C166.135 157.575 167.473 157.193 168.588 156.811C177.954 153.755 187.097 150.699 196.24 147.452C196.686 147.261 197.132 147.261 197.355 147.07C198.024 146.879 199.139 146.306 199.585 147.261C200.031 148.216 198.916 148.407 198.024 148.598C194.679 149.744 191.111 150.89 187.543 152.418ZM58.203 112.69C62.886 113.645 64.001 112.881 63.332 108.297C58.649 108.488 58.649 108.488 58.426 112.117C58.426 112.117 58.203 112.308 58.203 112.69C58.203 113.836 58.426 115.173 58.426 116.319C58.649 118.802 59.3179 119.184 61.9939 118.42C63.778 117.847 63.778 116.701 63.555 115.555C63.332 114.218 62.2169 114.6 61.325 114.791C59.318 115.173 58.426 114.218 58.203 112.69ZM127.11 140.003C128.002 139.812 128.448 140.003 128.671 140.767C128.894 141.722 128.448 142.677 129.34 143.441C130.455 143.632 131.124 143.059 132.016 142.677C134.469 141.722 134.915 140.958 134.469 138.857C134.246 138.093 133.8 137.329 132.908 137.711C131.124 138.666 128.894 138.857 127.11 140.003C125.326 139.621 123.765 140.958 122.204 141.531C120.42 142.104 121.089 143.632 121.312 144.587C121.535 145.924 122.873 145.542 123.988 145.351C125.995 144.969 127.333 144.205 127.11 142.104C126.887 141.531 127.11 140.767 127.11 140.003ZM136.03 115.364C133.8 114.982 132.239 116.701 130.009 116.51C129.34 116.51 129.117 116.892 128.894 117.465C128.671 118.993 128.671 120.33 128.448 121.858C128.448 122.431 128.671 123.004 129.34 123.004C130.678 122.813 132.016 122.622 133.354 122.24C134.469 121.858 134.023 120.712 134.469 120.139C135.361 118.42 134.023 116.319 136.03 115.364C135.807 117.274 135.807 119.375 136.253 121.285C142.274 120.521 142.72 119.948 140.936 114.218C139.152 114.6 137.591 114.982 136.03 115.364ZM127.779 83.6579C128.225 81.3659 128.448 79.0739 128.225 76.7819C128.225 76.0179 128.225 75.0629 127.11 75.2539C125.772 75.2539 123.988 74.4899 123.096 75.6359C121.758 77.1639 122.427 79.2649 122.65 80.9839C122.65 82.5119 124.434 82.3209 125.549 82.5119C126.441 82.5119 127.333 82.8939 127.779 83.6579C126.887 83.8489 125.995 83.8489 124.88 83.8489C122.873 83.8489 121.981 84.8039 121.981 86.3319C121.981 89.1969 121.758 90.1519 125.326 89.7699C125.995 89.7699 126.664 89.7699 127.556 89.7699C127.779 87.6689 128.225 85.5679 127.779 83.6579ZM72.0289 128.734C70.9139 127.779 71.583 126.251 70.691 125.105C69.576 125.296 68.461 125.296 67.346 125.487C65.562 125.678 65.116 126.633 65.116 127.97C65.116 129.498 66.2309 129.689 67.5689 129.689C68.4609 129.689 69.353 129.116 70.022 130.262C68.907 130.644 68.0149 130.835 66.8999 131.217C66.0079 131.408 65.562 131.981 65.562 132.936C65.562 134.273 65.7849 135.037 67.5689 135.228C70.2449 135.419 71.36 135.037 71.36 133.509C71.1369 131.79 71.1369 130.262 72.0289 128.734C74.0359 130.071 76.2659 128.925 78.2729 128.543C79.6109 128.352 78.7189 126.633 78.942 125.678C78.942 125.105 78.7189 124.532 77.827 124.341C73.813 123.386 72.4749 124.15 72.0289 127.779C71.8059 128.161 72.0289 128.352 72.0289 128.734ZM111.946 25.7849C114.176 22.9199 113.953 19.8639 113.507 16.6169C106.594 18.7179 106.148 19.4819 106.817 26.7399C108.601 26.3579 109.939 24.8299 111.946 25.7849C111.5 27.1219 109.939 27.6949 108.601 28.2679C106.817 29.0319 106.148 29.9869 106.148 31.7059C106.371 33.8069 106.371 35.7169 105.925 37.8179C107.263 38.0089 107.932 37.0539 108.824 36.8629C111.946 35.7169 113.284 33.6159 113.061 30.7509C113.061 29.6049 113.061 28.2679 112.838 27.1219C113.061 26.3579 112.615 25.7849 111.946 25.7849ZM170.818 159.867C173.494 160.44 175.947 161.013 178.623 159.867C181.968 158.53 185.536 157.575 188.881 156.238C189.55 156.047 190.665 156.047 190.442 154.71C187.989 154.137 185.536 152.8 182.86 153.373C178.846 154.328 175.055 155.665 171.264 157.002C169.257 157.957 169.257 158.148 170.818 159.867C169.48 160.631 168.365 159.485 167.027 159.294C165.02 158.721 163.459 159.867 164.351 161.395C164.797 162.541 163.682 163.496 164.797 164.451C166.804 163.687 169.034 162.923 171.041 162.159C173.048 161.586 171.71 160.631 170.818 159.867ZM148.518 168.271C147.626 168.462 146.734 168.08 146.065 167.698C143.835 166.552 141.828 167.125 139.598 167.698C136.476 168.653 133.354 169.99 130.009 170.754C125.549 171.9 121.312 173.428 116.852 174.956C113.061 176.293 112.615 177.63 114.176 181.45C119.082 178.394 125.326 178.012 130.455 175.529C129.563 174.001 127.333 174.574 127.556 172.664C129.117 172.473 130.232 173.237 131.347 173.81C132.462 174.383 133.8 174.574 134.915 174.192C139.152 172.664 143.612 171.136 147.849 169.799C149.856 169.226 148.518 168.653 148.518 168.271C152.309 169.608 155.431 167.507 158.776 166.361C160.337 165.788 159.222 164.451 158.776 163.496C158.553 162.923 158.553 161.777 157.438 162.159C153.647 163.305 149.633 164.069 146.288 165.979C146.957 166.934 148.518 166.934 148.518 168.271ZM101.465 160.44C104.364 162.35 107.263 162.732 110.831 161.777C113.953 161.013 116.629 159.294 120.197 159.485C121.758 159.485 121.535 158.148 121.758 157.002C121.758 153.182 118.19 150.317 118.636 146.497C118.636 146.115 117.967 145.733 117.521 145.351C114.845 143.632 114.176 141.34 114.176 138.666C115.514 138.475 115.96 139.239 116.183 140.003C116.406 140.576 116.629 141.149 117.521 141.149C118.19 140.958 118.859 140.767 119.082 140.194C119.528 138.857 119.974 137.329 118.859 135.801C116.852 136.183 114.176 135.992 114.176 138.857C110.608 139.43 107.709 140.385 107.263 144.014C107.263 145.16 106.148 145.924 105.033 146.497C103.472 147.261 103.026 148.407 103.918 149.935C104.81 151.463 104.364 152.991 103.249 154.328C101.688 156.238 101.019 158.339 101.465 160.44C99.0119 159.676 99.0119 158.148 100.127 156.429C100.796 155.283 101.688 154.328 102.357 153.373C102.803 152.8 103.026 152.036 102.357 151.463C101.688 150.89 100.796 150.508 99.6809 150.89C98.5659 151.081 98.7889 151.845 98.5659 152.609C97.674 155.856 99.2349 159.103 99.0119 162.35C98.7889 166.552 99.2349 166.552 104.141 167.316C105.256 167.507 106.371 167.889 107.263 168.271C108.155 168.653 108.824 168.271 109.27 167.507C109.939 165.597 108.824 164.26 106.817 165.024C104.587 165.979 104.364 165.215 103.695 163.878C103.472 163.496 102.58 163.114 102.134 162.732C101.242 161.968 101.019 161.204 101.465 160.44ZM79.3879 157.193C78.7189 155.474 79.165 153.564 78.942 151.654C78.7189 148.025 78.7189 148.025 74.2589 147.834C73.8129 147.834 73.144 147.834 72.252 147.834C72.921 152.8 70.9139 157.575 73.59 162.541C69.1299 162.159 64.893 161.395 60.656 160.44C56.865 159.485 56.865 159.485 56.865 156.047C56.865 153.564 56.865 150.89 56.196 147.834C54.858 149.553 54.4119 151.272 53.0739 152.036C50.3979 153.373 50.175 155.283 50.621 157.575C50.844 158.912 51.067 160.249 51.067 161.586C51.067 162.732 51.736 163.496 53.0739 163.687C57.534 164.26 61.548 165.788 65.785 166.552C71.806 167.698 78.0499 168.844 84.071 169.99C92.322 171.709 100.573 173.428 108.824 174.956C110.831 175.338 112.838 175.338 114.845 174.574C117.521 173.428 120.643 172.664 123.542 171.709C134.692 168.08 145.842 164.26 156.992 160.631C159.222 159.867 158.553 158.53 158.553 157.384C158.553 155.665 156.992 156.429 156.1 156.429C154.985 156.429 153.87 156.238 152.755 156.047C152.086 155.856 151.417 155.665 150.748 156.238C148.072 158.721 144.058 158.721 140.936 160.44C139.152 161.395 136.922 161.777 134.692 161.395C134.469 157.957 134.692 154.519 134.915 151.272C135.138 148.98 135.361 146.688 134.469 144.587C130.009 144.587 128.002 146.497 128.225 150.317C126.664 149.171 127.779 147.834 126.441 147.07C124.88 147.261 123.319 147.834 121.758 148.407C120.197 148.98 119.974 150.126 121.312 150.89C123.096 151.845 123.096 153.182 123.096 154.71C123.096 157.002 124.211 159.294 122.427 161.395C122.204 161.777 122.427 162.541 122.427 163.114C122.427 164.26 123.319 164.642 124.434 164.26C125.995 163.878 126.887 163.305 126.887 161.777C126.664 158.912 126.887 156.238 126.664 153.373C126.664 152.8 126.887 152.227 127.556 152.227C128.448 152.036 128.671 152.8 128.894 153.373C129.117 154.328 129.34 155.474 128.894 156.238C128.225 158.339 129.117 160.249 129.563 162.159C131.57 162.35 132.908 161.013 134.692 161.395C134.246 162.732 132.908 163.305 131.57 163.687C126.664 164.642 122.427 167.316 117.521 168.462C115.737 168.844 114.845 170.181 115.514 171.9C115.737 172.473 115.96 173.046 115.291 173.619C113.953 174.574 109.716 173.428 109.27 172.091C108.824 170.754 107.932 170.372 106.594 169.99C98.5659 168.462 90.5379 166.743 82.5099 165.406C80.2799 165.024 78.0499 164.451 75.597 163.878C79.388 162.541 79.3879 162.541 79.1649 159.103C79.3879 158.148 79.3879 157.766 79.3879 157.193C79.6109 157.384 79.6109 157.575 79.8339 157.766C80.2799 158.148 80.2799 159.294 81.395 158.912C81.618 158.912 81.841 158.53 81.841 158.339C81.618 157.384 80.949 157.193 80.057 157.575C79.834 157.575 79.6109 157.384 79.3879 157.193ZM149.856 147.07C150.079 148.598 150.525 150.317 150.079 151.845C149.633 153.373 150.525 153.946 151.863 154.328C156.546 155.474 161.452 155.474 165.912 154.137C167.696 153.564 169.703 152.8 171.041 151.654C171.933 150.699 173.271 149.362 171.933 148.598C169.926 147.07 169.703 145.351 169.926 143.441C170.149 142.295 169.257 141.34 168.365 140.576C167.027 139.43 166.804 138.093 167.473 136.565C167.696 135.61 168.142 134.655 168.365 133.7C168.811 131.981 168.142 130.644 166.135 129.689C165.243 129.307 164.351 128.734 163.459 128.543C161.229 128.543 160.783 127.206 160.56 125.678C160.114 123.959 159.668 122.431 158.553 120.903C157.438 119.375 156.1 119.184 154.539 120.139C153.87 120.712 152.978 121.285 152.532 122.049C151.863 123.386 150.971 124.532 151.417 126.251C151.863 127.588 149.41 128.352 149.41 130.262C149.633 132.745 149.187 135.228 150.079 137.711C148.518 140.576 151.194 143.823 149.856 147.07ZM56.865 139.812C56.642 138.093 56.865 136.756 56.196 135.61C54.635 132.363 52.182 129.307 51.067 125.869C50.844 124.723 48.168 124.15 46.607 124.914C45.269 125.487 44.154 126.251 43.485 127.206C42.816 128.352 41.701 129.307 39.917 129.498C37.91 129.689 37.687 131.026 37.687 132.172C37.687 135.037 35.457 137.711 37.018 140.767C37.241 141.34 36.572 142.295 36.349 143.25C35.234 146.115 37.91 150.126 41.255 151.081C43.708 151.845 46.161 150.699 48.391 151.463C50.175 152.036 51.0669 151.272 51.959 150.317C55.527 147.261 56.642 143.441 56.865 139.812ZM141.828 147.643C140.936 145.924 141.605 143.823 140.713 142.104C137.368 142.295 136.476 142.677 136.253 144.014C135.584 148.789 136.253 153.564 136.699 158.53C136.699 159.485 137.591 159.676 138.483 159.294C140.044 158.721 141.159 157.957 141.159 156.429C141.159 154.71 140.936 152.991 140.936 151.272C140.936 150.699 140.713 149.744 142.274 149.744C142.72 152.227 141.382 154.901 143.166 157.193C146.734 156.429 148.072 154.901 147.849 151.654C147.626 148.98 147.403 146.306 148.072 143.632C148.295 142.295 148.295 140.767 147.626 139.239C145.842 139.812 143.835 139.812 142.943 140.958C141.605 143.059 141.605 145.351 141.828 147.643ZM27.206 144.969C26.76 145.542 26.537 146.306 25.868 147.07C23.638 150.317 23.861 150.508 27.652 152.227C30.328 153.373 31.889 152.036 33.673 150.89C35.011 149.935 36.349 149.171 34.565 147.452C33.45 146.306 33.896 144.969 34.342 143.632C35.457 140.385 35.011 139.048 31.889 137.138C28.99 135.419 27.429 134.273 25.422 138.093C25.199 138.666 24.53 139.048 24.307 139.621C22.523 141.722 22.746 142.486 25.645 143.441C26.537 143.632 27.206 143.823 27.206 144.969ZM89.646 176.293C93.66 177.057 97.228 177.821 100.796 178.585C104.364 179.349 107.932 180.113 111.5 180.495C111.946 179.349 112.615 178.394 112.169 177.248C108.155 176.293 104.141 174.956 100.127 174.383C93.214 173.428 86.5239 171.9 79.8339 170.372C76.2659 169.608 73.59 169.99 70.691 171.709C71.806 172.855 73.144 173.046 74.4819 173.237C75.82 173.428 77.3809 173.619 78.7189 174.001C82.7329 175.147 86.9699 176.102 90.9839 174.001C90.9839 174.001 91.4299 174.192 91.6529 174.383C91.2069 175.147 90.7609 175.529 89.646 176.293ZM87.6389 117.656C88.5309 118.229 88.5309 118.229 88.7539 118.42C88.7539 118.611 88.977 118.802 88.977 119.184C89.423 121.667 89.423 121.667 92.5449 121.476C96.3359 121.094 96.3359 121.094 96.3359 117.847C96.3359 117.083 96.3359 116.128 96.3359 115.364C96.3359 114.218 95.4439 113.836 94.3289 114.218C90.5379 115.746 86.5239 115.746 82.5099 116.319C80.949 116.51 80.2799 117.274 80.2799 118.42C80.2799 120.139 79.388 121.858 80.057 123.386C80.949 125.105 79.3879 126.824 80.2799 128.352C80.5029 128.543 80.5029 128.734 81.395 128.925C82.2869 128.925 83.6249 128.925 85.186 129.116C85.409 129.116 85.8549 129.116 86.0779 129.116C88.0849 128.734 88.5309 127.206 88.0849 124.532C87.6389 122.622 86.5239 123.386 85.186 123.577C84.517 123.768 83.6249 124.15 82.5099 123.195C86.3009 122.813 88.7539 121.667 87.6389 117.656ZM89.4229 157.193C89.4229 158.53 89.423 159.867 89.646 161.204C89.8689 164.833 90.5379 165.406 94.5519 165.597C96.559 165.788 97.674 165.215 97.451 163.496C97.005 160.058 97.4509 156.62 97.2279 153.373C97.0049 150.317 96.782 150.126 92.991 149.935C89.8689 149.744 89.4229 149.935 89.4229 152.609C89.1999 154.137 89.1999 155.665 89.4229 157.193ZM119.305 81.9389C118.19 82.3209 117.521 82.5119 116.852 82.5119C113.73 81.9389 113.507 82.1299 113.507 84.4219C113.507 85.3769 113.73 86.3319 113.507 87.2869C113.284 89.1969 113.953 89.9609 116.406 89.5789C116.852 89.5789 117.298 89.5789 117.744 89.5789C119.751 89.7699 120.643 89.1969 120.643 87.4779C120.643 83.8489 120.866 80.2199 121.089 76.5909C121.089 76.0179 121.089 75.4449 120.866 74.8719C120.643 74.4899 115.068 72.9619 114.622 73.3439C114.176 73.7259 113.507 74.2989 113.507 74.8719C112.392 78.3099 113.953 80.4109 118.19 81.1749C118.19 81.3659 118.636 81.5569 119.305 81.9389ZM104.364 65.1309C103.472 64.3669 103.918 63.2209 103.695 62.4569C103.472 61.5019 104.141 60.5469 102.803 59.9739C97.2279 62.2659 97.2279 62.2659 98.3429 69.3329C100.127 69.5239 101.688 68.7599 102.803 67.8049C103.472 67.2319 104.141 66.8499 105.256 66.8499C107.709 66.6589 109.716 65.3219 111.5 63.9849C113.061 62.8389 111.723 61.3109 111.723 59.7829C111.723 59.2099 111.946 58.6369 111.946 58.0639C111.946 57.4909 111.5 57.2999 110.831 57.2999C107.709 57.1089 105.033 59.4009 104.81 62.0749C105.033 62.8389 105.479 63.9849 104.364 65.1309ZM88.0849 66.2769C84.7399 67.6139 80.2799 67.6139 80.2799 71.8159C80.2799 71.8159 79.834 72.0069 79.6109 72.0069C78.7189 71.4339 79.6109 70.2879 78.4959 69.5239C77.158 71.2429 73.5899 70.8609 72.6979 72.7709C71.8059 74.4899 72.2519 76.7819 72.921 78.6919C78.4959 77.3549 78.7189 76.9729 80.057 73.3439C81.618 73.5349 80.5029 75.2539 81.6179 75.6359C82.9559 75.2539 84.071 74.4899 85.632 74.2989C87.862 73.7259 88.3079 72.3889 88.0849 70.6699C88.0849 69.1419 88.0849 67.8049 88.0849 66.2769ZM36.126 151.081C35.903 153.946 36.126 156.429 37.241 158.721C37.687 159.867 38.579 160.249 39.694 160.631C41.478 161.013 43.262 161.395 45.046 161.777C46.384 161.968 46.607 161.395 47.053 160.44C47.499 158.912 47.499 157.384 47.276 155.665C47.276 152.991 47.053 152.991 44.154 152.991C41.032 153.373 38.356 153.564 36.126 151.081ZM119.305 118.993C114.845 119.948 110.608 121.476 106.148 121.476C105.479 121.476 104.587 121.667 104.587 122.431C104.364 123.959 104.141 125.296 105.033 126.633C105.925 128.161 107.486 127.397 108.824 127.397C110.608 127.397 111.277 126.633 111.277 125.105C111.277 124.15 110.831 123.386 111.277 122.431C112.392 122.813 113.061 123.195 113.284 123.959C113.507 124.723 113.284 125.678 114.399 126.251C120.197 124.914 120.197 124.914 119.305 118.993ZM73.59 169.417C67.1229 167.889 61.548 166.361 55.527 165.788C53.074 165.597 51.29 166.361 49.06 167.889C53.743 168.844 57.757 169.226 61.548 170.563C65.562 171.9 69.353 171.327 73.59 169.417ZM70.9139 154.328C70.9139 152.418 70.691 150.699 70.691 148.789C70.691 147.452 69.576 147.261 68.461 147.07C67.123 147.07 66.008 147.07 65.562 148.598C64.447 152.227 65.785 155.856 65.785 159.294C65.785 160.631 68.2379 160.44 69.7989 160.631C71.1369 160.822 71.137 159.676 71.137 158.721C71.137 157.575 71.1369 156.047 70.9139 154.328ZM64.2239 153.373C64.2239 153.373 64.0009 153.373 64.2239 153.373C64.0009 151.654 64.001 149.744 64.001 148.025C63.778 146.688 62.4399 146.688 61.325 146.688C60.2099 146.688 58.649 146.497 58.872 147.834C58.872 151.272 59.095 154.519 59.541 157.957C59.764 159.485 61.548 159.676 62.886 159.676C64.67 159.676 64.6699 158.339 64.6699 157.384C64.2239 156.047 64.2239 154.71 64.2239 153.373ZM111.277 101.23C104.81 101.612 104.81 101.612 104.81 107.151C104.81 108.106 104.81 109.061 104.81 110.016C104.81 110.589 105.256 110.971 105.702 111.162C107.04 111.544 111.054 109.825 111.054 108.488C111.277 106.005 111.946 103.713 111.277 101.23ZM121.758 37.2449C123.319 29.7959 123.096 29.0319 115.737 26.9309C115.737 27.5039 115.514 27.8859 115.514 28.2679C114.399 34.3799 114.399 34.3799 120.42 36.8629C120.643 37.0539 121.089 37.0539 121.758 37.2449ZM30.105 163.496C34.119 164.451 37.687 164.833 40.809 165.979C44.6 167.316 47.722 166.934 51.067 164.833C50.621 164.642 50.398 164.26 49.952 164.069C46.161 163.878 42.593 162.732 38.802 161.968C35.903 161.395 33.45 161.968 30.105 163.496ZM121.089 46.9859C122.65 44.6939 122.204 42.2109 121.758 40.1099C121.535 38.5819 118.636 38.7729 117.075 37.8179C116.406 37.4359 115.96 37.0539 115.068 37.4359C115.068 37.8179 114.845 38.0089 114.845 38.3909C113.73 44.6939 113.73 44.6939 121.089 46.9859ZM114.622 55.7719C113.061 63.6029 113.284 63.9849 121.089 64.3669C121.312 63.2209 121.535 62.2659 121.535 61.1199C121.981 57.6819 121.981 57.4909 118.19 56.5359C117.075 56.3449 115.96 56.1539 114.622 55.7719ZM81.6179 49.6599C84.0709 49.4689 85.8549 48.1319 87.862 47.1769C88.531 46.7949 88.7539 46.2219 88.7539 45.6489C88.7539 43.3569 88.531 41.0649 88.531 38.5819C86.3009 39.7279 84.517 40.6829 82.9559 41.6379C82.5099 41.8289 82.0639 42.2109 82.0639 42.7839C82.0639 44.8849 81.1719 47.1769 81.6179 49.6599ZM111.054 82.8939C105.702 83.4669 105.033 84.0399 104.81 88.4329C104.81 89.1969 104.587 90.1519 104.587 90.9159C104.587 92.0619 105.033 92.6349 106.594 92.2529C110.608 91.2979 111.5 90.5339 111.723 86.7139C111.723 85.3769 111.723 84.2309 111.054 82.8939ZM73.1439 54.2439C75.3739 53.2889 76.9349 52.7159 78.2729 52.1429C79.1649 51.7609 79.6109 51.1879 79.6109 50.4239C79.6109 48.5139 79.611 46.6039 80.057 44.6939C80.28 43.7389 79.3879 42.9749 78.0499 43.5479C74.9279 45.0759 72.0289 46.7949 72.921 50.4239C73.144 51.5699 73.1439 52.7159 73.1439 54.2439ZM87.6389 91.1069C79.3879 93.9719 80.0569 92.2529 80.9489 99.7019C80.9489 99.8929 81.172 99.8929 81.172 99.8929C88.085 98.9379 88.0849 98.9379 88.0849 93.3989C88.0849 92.6349 88.0849 92.0619 87.6389 91.1069ZM88.531 48.5139C80.726 51.3789 79.8339 52.7159 82.0639 58.8279C84.0709 58.6369 85.409 57.1089 87.4159 56.7269C88.0849 56.5359 88.5309 56.1539 88.3079 55.5809C88.0849 53.2889 89.423 50.9969 88.531 48.5139ZM115.514 21.5829C115.96 22.5379 114.845 23.6839 116.183 24.4479C117.967 25.4029 119.751 26.3579 121.535 27.3129C122.204 27.6949 123.096 27.5039 123.096 26.7399C123.765 24.8299 122.427 23.1109 122.427 21.3919C122.427 20.2459 121.089 19.8639 120.197 19.2909C118.859 18.5269 117.744 16.6169 115.96 17.5719C114.845 18.3359 115.737 20.2459 115.514 21.5829ZM90.7609 45.4579C92.3219 44.8849 93.8829 44.3119 95.2209 43.7389C95.8899 43.5479 96.5589 43.1659 96.5589 42.4019C96.7819 39.9189 97.6739 37.2449 96.5589 34.3799C94.1059 35.7169 90.9839 35.9079 90.7609 38.7729C90.3149 40.8739 90.7609 42.9749 90.7609 45.4579ZM79.6109 53.2889C77.158 53.6709 75.8199 54.8169 74.2589 55.5809C73.5899 55.9629 72.921 56.5359 72.921 57.2999C72.921 58.8279 72.9209 60.3559 72.4749 62.0749C72.2519 63.2209 73.144 63.6029 74.4819 63.0299C79.611 61.3109 79.834 60.9289 79.6109 55.9629C79.6109 55.1989 79.6109 54.4349 79.6109 53.2889ZM90.3149 55.3899C92.3219 54.4349 93.66 53.6709 95.2209 53.0979C96.1129 52.7159 96.782 52.3339 96.782 51.5699C96.782 49.2779 97.4509 46.9859 96.5589 44.6939C89.8689 46.9859 89.8689 47.1769 90.3149 55.3899ZM105.256 56.9179C111.5 55.5809 112.615 54.0529 112.392 47.3679C110.608 46.9859 109.27 47.9409 107.709 48.5139C106.371 49.0869 105.702 50.0419 105.479 51.3789C105.479 53.2889 105.256 55.1989 105.256 56.9179ZM96.1129 63.0299C90.7609 64.3669 90.5379 64.3669 89.8689 68.9509C89.8689 69.3329 89.6459 69.5239 89.4229 69.9059C88.9769 71.4339 89.646 72.1979 91.4299 72.0069C95.4439 71.4339 96.7819 70.0969 96.5589 66.4679C96.5589 65.3219 96.7819 64.1759 96.1129 63.0299ZM89.2 97.4099C91.4299 97.6009 92.9909 96.4549 94.7749 96.0729C95.4439 95.8819 95.6669 95.4999 95.8899 95.1179C96.3359 93.2079 96.5589 91.2979 96.1129 89.3879C95.8899 88.4329 95.4439 88.0509 94.3289 88.2419C90.9839 88.8149 89.4229 90.9159 89.4229 93.9719C89.4229 94.9269 89.423 96.0729 89.2 97.4099ZM95.8899 104.859C88.7539 106.196 88.0849 107.151 89.8689 113.263C97.4509 113.072 95.8899 112.881 96.3359 107.533C96.3359 106.769 96.5589 105.814 95.8899 104.859ZM113.73 65.5129C113.73 67.2319 113.73 68.7599 113.507 70.0969C113.284 71.4339 113.953 72.0069 115.514 72.1979C121.089 73.1529 121.312 72.9619 121.089 68.1869C121.089 66.8499 120.643 66.0859 119.082 65.8949C117.521 65.8949 115.96 65.3219 113.73 65.5129ZM119.528 100.848C117.967 100.657 116.852 100.657 115.514 100.657C113.953 100.657 113.061 101.039 113.284 102.567C113.284 104.668 113.507 106.769 113.507 109.061C114.399 109.061 114.622 109.252 115.068 109.061C119.305 108.488 119.528 108.297 119.528 104.859C119.528 103.522 119.528 102.376 119.528 100.848ZM112.392 37.2449C110.608 38.0089 109.27 38.3909 107.932 38.9639C106.817 39.3459 105.925 40.1099 106.148 41.0649C106.371 43.1659 105.479 45.0759 106.371 47.1769C114.176 44.3119 113.061 44.8849 112.392 37.2449ZM110.831 112.117C109.939 112.117 109.047 111.926 108.378 111.926C105.033 111.926 104.364 112.308 104.364 115.173C104.364 115.746 104.364 116.319 104.364 116.892C104.364 119.757 105.256 120.33 108.378 119.566C110.162 119.184 111.054 118.42 111.054 116.892C110.831 115.364 110.831 113.836 110.831 112.117ZM104.141 30.5599C101.911 31.7059 99.0119 31.7059 98.7889 34.1889C98.5659 36.4809 98.7889 38.9639 99.0119 41.2559C103.249 40.6829 104.587 38.5819 104.587 35.7169C104.587 34.1889 104.81 32.4699 104.141 30.5599ZM93.66 129.307C89.646 129.307 89.4229 129.498 89.4229 132.745C89.4229 135.61 89.646 135.801 93.437 135.992C97.005 135.992 96.7819 135.992 97.0049 131.408C97.0049 128.543 94.9979 129.498 93.66 129.307ZM119.528 90.9159C117.744 91.6799 115.737 91.2979 113.507 90.9159C113.061 93.5899 113.73 96.0729 113.061 98.5559C119.305 99.1289 119.305 99.1289 119.751 94.3539C119.751 93.2079 120.643 92.2529 119.528 90.9159ZM103.472 106.769C103.026 106.196 103.472 105.432 103.472 104.859C103.695 103.713 103.026 103.331 101.688 103.331C98.3429 103.331 96.7819 104.859 97.2279 107.533C97.4509 108.297 97.451 109.061 97.451 109.634C97.674 112.499 98.7889 112.881 101.688 111.735C102.803 111.162 103.695 110.589 103.249 109.443C103.026 108.488 103.695 107.724 103.472 106.769ZM82.7329 39.5369C89.6459 36.4809 89.8689 36.0989 88.7539 30.1779C83.4019 31.3239 79.8339 35.3349 82.7329 39.5369ZM97.451 91.4889C97.674 92.4439 97.0049 93.7809 98.3429 94.3539C99.4579 94.9269 103.472 93.2079 103.472 92.0619C103.472 90.3429 103.918 88.6239 103.918 87.0959C104.141 85.5679 103.249 85.1859 101.688 85.7589C97.6739 87.0959 97.228 87.4779 97.451 91.4889ZM81.172 91.6799C88.085 90.3429 89.646 88.0509 87.4159 82.8939C82.2869 84.0399 78.942 86.3319 81.172 91.6799ZM115.514 46.9859C114.176 49.0869 114.622 50.9969 114.622 52.9069C114.622 54.0529 119.974 55.7719 120.866 55.0079C121.089 54.8169 121.312 54.4349 121.312 54.0529C121.535 52.3339 121.981 50.6149 121.312 49.0869C120.643 47.7499 118.859 48.1319 117.521 47.7499C117.075 47.5589 116.406 47.3679 115.514 46.9859ZM99.0119 51.5699C101.019 50.2329 103.918 49.8509 104.141 47.3679C104.364 45.4579 104.141 43.3569 103.918 41.2559C98.3429 42.9749 98.3429 42.9749 98.3429 47.7499C98.5659 48.8959 98.1199 50.0419 99.0119 51.5699ZM87.1929 107.533C85.8549 107.342 84.7399 107.915 83.8479 108.297C80.5029 109.443 79.834 110.207 80.057 113.072C80.057 114.6 80.949 114.791 82.5099 114.791C86.9699 114.6 87.8619 113.836 87.6389 110.016C87.6389 109.252 87.8619 108.488 87.1929 107.533ZM113.507 114.027C113.507 114.791 113.284 115.364 113.507 115.746C113.73 118.038 114.399 118.42 117.075 117.656C119.974 116.892 121.312 112.69 119.305 110.398C119.082 110.207 118.859 110.016 118.636 110.016C115.96 109.252 113.73 110.78 113.507 113.072C113.507 113.836 113.507 114.027 113.507 114.027ZM72.6979 94.7359C80.5029 93.3989 79.3879 91.8709 78.7189 86.5229C72.0289 87.0959 71.8059 87.6689 72.6979 94.7359ZM72.6979 102.758C74.4819 102.185 75.82 101.803 77.381 101.421C77.827 101.23 78.7189 100.848 78.7189 100.657C78.9419 98.7469 80.503 96.4549 78.942 95.1179C77.381 93.5899 75.3739 95.6909 73.8129 96.2639C72.4749 96.6459 72.252 97.6009 72.252 98.5559C72.029 99.7019 71.8059 101.039 72.6979 102.758ZM95.8899 80.0289C89.2 82.3209 88.9769 81.1749 89.8689 88.4329C96.7819 86.5229 96.7819 86.5229 95.8899 80.0289ZM111.946 74.1079C105.479 75.2539 103.695 75.6359 105.702 82.5119C113.284 80.0289 112.169 80.4109 111.946 74.1079ZM87.862 58.8279C80.726 61.3109 80.5029 61.5019 81.395 67.2319C88.977 64.9399 89.2 64.5579 87.862 58.8279ZM104.364 94.1629C105.925 96.4549 103.249 98.7469 105.033 101.039C106.594 101.039 107.709 100.466 109.047 99.8929C110.831 99.1289 112.838 95.1179 111.5 93.5899C110.162 91.8709 108.378 93.3989 106.594 93.7809C105.925 93.7809 105.479 93.9719 104.364 94.1629ZM131.124 76.0179C130.232 75.8269 129.563 76.5909 129.563 77.9279C129.563 78.8829 129.563 79.8379 129.563 80.7929C129.563 81.5569 128.894 82.7029 130.232 82.8939C131.793 83.2759 133.131 83.6579 134.915 83.2759C135.361 83.2759 135.584 82.8939 135.584 82.5119C135.807 80.7929 136.03 79.2649 136.03 77.5459C136.03 76.7819 135.361 76.5909 134.692 76.3999C133.8 76.3999 132.908 76.2089 131.124 76.0179ZM128.671 62.4569C128.671 62.2659 128.671 61.8839 128.671 61.6929C128.671 59.0189 127.556 57.8729 124.434 58.2549C121.981 58.4459 123.096 60.1649 122.873 61.3109C122.873 61.6929 122.873 62.2659 122.873 62.8389C122.873 65.1309 123.988 66.0859 126.887 66.0859C129.563 66.0859 128.448 64.3669 128.671 63.2209C128.671 62.8389 128.671 62.6479 128.671 62.4569ZM130.901 59.7829C130.678 59.9739 130.455 60.1649 130.455 60.1649C130.232 61.3109 130.009 62.2659 130.009 63.4119C129.563 66.4679 129.786 66.6589 133.131 67.4229C133.8 67.6139 134.692 67.9959 135.584 67.4229C137.368 61.8839 137.145 61.5019 130.901 59.7829ZM129.117 114.982C130.232 115.173 131.124 114.6 132.016 114.409C134.246 114.218 135.138 113.263 134.692 111.544C134.692 110.971 134.692 110.398 134.469 109.825C134.246 108.87 135.584 107.724 134.023 107.342C132.908 106.96 131.57 107.151 130.232 107.533C129.34 107.915 128.448 108.297 128.448 109.443C128.894 111.162 128.225 113.072 129.117 114.982ZM87.4159 99.5109C79.6109 101.994 79.388 102.185 81.172 107.151C82.7329 106.769 84.2939 106.387 86.0779 106.005C86.9699 105.814 87.862 105.432 87.862 104.668C87.416 103.14 88.754 101.421 87.4159 99.5109ZM88.0849 74.8719C80.2799 78.1189 80.28 78.1189 81.172 82.8939C88.308 81.3659 88.3079 81.3659 88.0849 74.8719ZM124.211 40.6829C123.542 41.4469 123.988 42.4019 123.765 43.1659C122.873 48.7049 123.319 47.5589 128.225 49.0869C128.448 49.0869 128.671 48.8959 129.117 48.8959C129.34 47.1769 129.34 45.2669 129.563 43.5479C129.786 42.5929 129.34 41.8289 128.225 41.6379C126.887 41.0649 125.772 40.1099 124.211 40.6829ZM95.8899 122.622C94.3289 122.813 92.5449 122.622 90.9839 123.004C88.7539 123.386 88.754 124.914 88.977 126.442C89.2 127.97 89.8689 128.543 91.6529 128.543C96.5589 128.543 96.7819 128.543 96.5589 124.341C96.5589 123.768 96.7819 123.195 95.8899 122.622ZM103.472 116.51C103.472 116.319 103.472 116.128 103.472 115.937C103.249 113.836 102.357 112.881 99.9039 113.072C98.1199 113.263 97.451 114.027 97.8969 116.128C98.1199 116.892 97.8969 117.656 97.8969 118.229C97.674 121.094 98.3429 121.476 101.465 120.712C104.141 119.948 103.249 118.229 103.472 116.51ZM103.249 51.3789C97.6739 52.5249 97.0049 53.8619 98.3429 59.9739C104.141 58.4459 104.587 58.0639 103.249 51.3789ZM79.6109 34.9529C77.158 35.5259 75.5969 36.6719 74.2589 38.0089C73.5899 38.7729 73.1439 42.9749 73.59 43.5479C74.2589 44.3119 76.9349 43.3569 78.7189 41.8289C79.3879 41.4469 79.3879 40.8739 79.6109 40.3009C80.057 38.7729 80.057 37.0539 79.6109 34.9529ZM96.5589 54.6259C88.7539 57.4909 89.8689 57.2999 90.5379 63.2209C97.0049 61.5019 97.2279 61.1199 96.5589 54.6259ZM114.399 134.846C120.197 134.273 120.866 133.127 119.305 127.206C113.953 127.97 113.953 127.97 113.953 132.363C113.953 133.318 113.73 134.273 114.399 134.846ZM66.008 66.8499C71.583 64.9399 72.2519 63.4119 70.691 57.8729C65.562 59.5919 65.562 59.5919 65.785 63.9849C65.785 64.7489 65.785 65.7039 66.008 66.8499ZM136.699 50.9969C136.922 49.8509 137.145 48.7049 137.368 47.7499C137.591 45.8399 134.692 43.1659 132.462 43.5479C130.009 43.9299 131.347 45.8399 131.124 47.1769C130.678 49.2779 131.57 50.4239 134.023 50.8059C134.692 50.8059 135.361 51.1879 136.699 50.9969ZM149.41 104.095C147.849 104.286 146.734 104.477 145.619 104.477C143.612 104.477 142.943 105.432 143.166 106.96C143.166 107.533 143.166 107.915 143.166 108.488C143.389 111.926 144.504 112.499 148.072 110.78C148.964 110.398 149.187 109.825 149.41 109.061C149.41 107.342 149.41 105.814 149.41 104.095ZM111.723 66.4679C104.587 67.8049 104.364 68.1869 105.479 74.1079C111.946 72.7709 112.615 71.0519 111.723 66.4679ZM127.333 102.567C127.11 101.612 128.002 100.466 126.441 99.7019C125.326 99.3199 122.427 100.084 121.981 101.039C121.312 102.185 121.312 106.387 121.981 106.96C122.427 107.342 122.873 107.342 123.542 107.342C126.664 107.342 127.556 106.387 127.333 102.567ZM103.918 132.363C103.695 131.408 104.587 129.689 103.026 129.307C101.688 128.925 99.9039 128.543 98.5659 129.307C97.228 130.071 98.3429 131.026 98.3429 131.79C98.3429 132.363 98.1199 132.936 98.1199 133.509C97.8969 135.037 97.8969 136.183 100.35 136.183C103.472 136.183 103.918 135.992 103.918 133.509C103.918 133.318 103.918 132.936 103.918 132.363ZM95.4439 97.2189C89.6459 98.1739 89.2 98.7469 89.2 103.14C89.2 104.668 89.8689 104.859 91.6529 104.477C95.8899 103.522 96.1129 103.331 95.8899 99.5109C95.8899 98.7469 96.1129 97.9829 95.4439 97.2189ZM96.1129 72.0069C89.1999 73.3439 88.7539 75.2539 90.3149 79.8379C97.0049 77.7369 97.0049 77.7369 96.1129 72.0069ZM91.2069 34.7619C97.451 32.6609 97.6739 32.2789 96.5589 25.5939C91.4299 26.5489 90.5379 30.1779 91.2069 34.7619ZM66.008 57.2999C71.137 55.7719 71.1369 55.7719 71.36 51.9519C71.36 51.1879 71.5829 50.2329 71.5829 49.4689C71.5829 48.3229 71.137 47.5589 69.576 48.3229C67.346 49.2779 65.562 50.6149 66.008 53.0979C66.008 54.2439 66.008 55.5809 66.008 57.2999ZM137.145 80.7929C136.922 83.6579 137.145 83.6579 139.152 84.2309C142.497 84.9949 142.72 84.9949 143.166 81.7479C143.166 80.9839 143.389 80.2199 143.612 79.6469C143.835 79.0739 143.612 78.6919 142.943 78.5009C141.382 78.1189 139.598 77.1639 138.037 77.7369C136.253 78.1189 137.591 79.8379 137.145 80.7929ZM137.591 65.8949C137.814 66.4679 136.922 67.8049 138.037 68.3779C139.375 69.1419 141.159 69.7149 142.943 69.3329C144.281 68.9509 143.612 67.6139 143.835 66.6589C143.835 66.0859 143.835 65.7039 143.835 65.1309C143.612 63.2209 141.605 61.6929 139.375 62.0749C137.145 62.2659 138.037 63.7939 137.814 64.9399C137.591 64.9399 137.591 65.3219 137.591 65.8949ZM88.0849 132.363C88.5309 130.835 88.3079 129.498 85.8549 129.307C83.1789 129.307 80.7259 130.835 80.5029 132.554C80.5029 135.228 80.5029 135.419 83.6249 135.419C87.8619 135.419 87.8619 135.419 88.0849 132.363ZM142.051 107.151C142.051 106.387 142.051 105.623 140.936 105.432C138.706 105.05 136.476 106.769 136.253 108.679C136.253 109.252 136.253 109.634 136.253 110.207C135.807 113.454 136.253 113.836 139.821 112.69C141.159 112.308 141.828 111.926 141.828 110.78C141.605 109.634 141.382 108.297 142.051 107.151ZM121.981 95.3089C121.981 96.0729 121.981 96.8369 121.981 97.4099C121.981 97.9829 122.204 98.3649 122.873 98.5559C125.549 99.3199 127.333 98.1739 127.556 95.6909C127.556 94.5449 127.779 93.5899 127.779 92.4439C127.779 91.8709 127.556 91.2979 126.887 91.1069C124.434 90.3429 122.204 91.6799 121.981 93.7809C121.981 94.3539 121.981 94.7359 121.981 95.3089ZM111.5 129.116C105.033 128.925 105.256 127.779 105.479 133.891C105.479 134.082 105.479 134.464 105.479 134.655C105.256 136.183 106.594 136.374 107.932 136.374C109.27 136.374 110.831 136.756 111.054 134.846C111.054 132.745 110.608 131.026 111.5 129.116ZM98.3429 84.9949C103.249 84.4219 103.695 84.0399 103.918 80.2199C103.918 79.2649 104.587 77.7369 103.249 77.1639C101.688 76.5909 100.35 77.5459 99.0119 78.3099C98.1199 78.8829 98.1199 79.6469 97.8969 80.6019C97.451 82.1299 97.8969 83.4669 98.3429 84.9949ZM129.117 30.9419C130.455 29.2229 130.455 27.3129 130.232 25.5939C130.009 24.2569 127.11 22.1559 125.549 22.5379C123.765 22.9199 124.211 24.4479 124.211 25.5939C123.988 27.5039 124.434 29.2229 127.11 29.7959C127.779 29.9869 128.225 30.5599 129.117 30.9419ZM128.894 95.1179C128.894 96.0729 128.448 97.4099 129.786 97.9829C132.239 99.1289 134.915 97.6009 135.138 95.3089C135.138 94.5449 135.138 93.5899 135.138 92.8259C135.138 92.2529 134.915 91.6799 134.246 91.6799C132.685 91.6799 131.124 91.1069 129.786 91.6799C128.671 92.2529 129.34 93.3989 129.117 94.3539C128.894 94.5449 128.894 94.7359 128.894 95.1179ZM79.1649 79.0739C72.0289 80.6019 72.0289 80.6019 72.4749 86.5229C78.9419 84.9949 78.9419 84.9949 79.1649 79.0739ZM97.8969 76.9729C104.141 75.4449 104.141 75.4449 103.472 69.1419C97.8969 70.2879 97.228 70.4789 97.8969 76.9729ZM104.141 21.5829C99.2349 23.4929 99.2349 23.4929 99.2349 27.6949C99.2349 28.6499 99.2349 29.7959 99.2349 30.7509C104.364 29.2229 105.033 29.0319 104.141 21.5829ZM98.1199 102.567C103.918 101.421 104.587 100.466 103.026 95.1179C96.5589 96.4549 96.5589 96.4549 98.1199 102.567ZM124.657 31.5149C123.542 38.1999 123.542 38.1999 128.671 39.7279C130.901 34.3799 130.232 32.8519 124.657 31.5149ZM136.253 59.2099C136.476 57.6819 136.699 56.5359 136.922 55.1989C136.922 54.6259 136.922 54.0529 136.253 53.6709C134.692 52.9069 132.908 52.1429 131.57 52.5249C129.786 52.9069 130.678 54.8169 130.678 55.9629C130.455 57.2999 130.901 58.2549 132.685 58.6369C133.577 58.6369 134.692 59.4009 136.253 59.2099ZM72.4749 116.128C73.813 116.51 74.4819 116.128 75.3739 115.937C78.4959 115.364 80.0569 113.072 78.7189 110.398C78.4959 109.825 78.0499 109.634 77.381 109.634C73.813 109.634 71.8059 111.353 72.0289 114.409C72.2519 114.982 72.4749 115.555 72.4749 116.128ZM92.991 137.138C90.0919 137.138 89.646 137.711 89.646 140.194C89.646 142.295 90.7609 142.868 94.5519 142.868C96.336 142.868 97.2279 141.34 97.0049 138.666C96.5589 136.565 94.3289 137.329 92.991 137.138ZM128.448 70.6699C128.225 70.0969 128.225 69.5239 128.225 68.7599C128.225 67.4229 126.887 67.4229 125.772 67.0409C124.657 66.6589 123.319 66.6589 122.65 67.6139C121.535 69.1419 121.981 71.0519 122.427 72.5799C123.096 74.2989 125.326 73.5349 126.887 73.7259C127.333 73.9169 127.779 73.3439 128.002 72.7709C128.225 72.0069 128.448 71.4339 128.448 70.6699ZM121.981 116.701C123.319 117.083 123.765 116.128 124.88 116.128C126.218 116.128 127.11 115.555 127.11 114.409C127.11 112.69 127.556 110.78 126.664 109.061L126.441 108.87C124.88 108.297 121.981 109.634 121.981 111.162C121.758 112.881 121.981 114.791 121.981 116.701ZM97.6739 125.296C97.8969 126.633 96.7819 128.543 99.9039 128.352C103.249 128.161 103.918 127.779 103.695 125.105C103.472 122.049 103.472 121.858 100.796 122.049C97.8969 121.858 97.4509 122.431 97.6739 125.296ZM134.915 99.5109C128.894 99.1289 128.448 99.3199 128.671 103.14C128.894 106.387 129.34 106.578 132.908 105.623C134.246 105.241 134.692 104.668 134.692 103.522C134.692 102.185 134.692 101.039 134.915 99.5109ZM136.03 72.1979C136.03 69.5239 134.469 68.1869 132.016 68.3779C130.232 68.5689 129.786 69.1419 129.786 72.0069C129.786 74.4899 130.901 75.4449 134.469 75.0629C136.922 74.8719 135.807 72.9619 136.03 72.1979ZM59.764 60.3559C64.0009 58.8279 64.2239 58.8279 64.2239 57.6819C64.2239 55.5809 65.116 53.4799 63.555 51.3789C59.095 53.2889 58.6489 54.4349 59.764 60.3559ZM123.542 49.8509C122.427 55.9629 122.65 56.1539 128.002 57.2999C130.232 51.9519 129.786 50.9969 123.542 49.8509ZM72.4749 109.634C79.1649 108.488 79.3879 108.106 78.2729 103.14C72.2519 103.522 70.9139 104.859 72.4749 109.634ZM70.2449 89.3879C69.1299 89.7699 68.015 90.1519 66.677 90.5339C66.008 90.7249 65.339 91.1069 65.562 91.8709C65.785 93.3989 65.5619 94.7359 65.3389 96.2639C65.1159 97.4099 66.008 97.7919 67.123 97.4099C69.576 96.8369 70.691 95.4999 70.691 93.3989C70.691 92.0619 70.9139 90.7249 70.2449 89.3879ZM134.692 124.15C133.131 123.768 131.793 124.15 130.678 124.341C128.671 124.914 127.779 126.824 128.894 129.498C129.563 131.408 131.347 130.453 132.685 130.262C134.023 130.071 134.692 129.307 134.692 127.97C134.469 126.633 134.692 125.487 134.692 124.15ZM59.318 69.9059C60.879 68.9509 63.332 69.1419 63.778 67.4229C64.224 65.3219 64.893 63.2209 64.001 61.1199C58.872 62.2659 58.426 63.2209 59.318 69.9059ZM132.239 26.5489C130.901 31.8969 132.016 33.4249 137.368 34.1889C138.483 29.0319 138.483 29.0319 132.239 26.5489ZM126.887 128.352C126.664 127.397 127.556 126.06 125.772 125.487C123.765 124.914 121.981 126.06 121.758 127.779C121.758 128.543 121.535 129.307 121.535 129.88C121.312 130.835 120.643 131.981 121.758 132.554C122.65 133.127 123.988 132.554 124.88 132.172C127.333 131.599 126.664 129.88 126.887 128.352ZM137.591 39.5369C137.591 37.2449 135.138 35.3349 132.908 35.3349C132.462 35.3349 132.016 35.5259 131.793 35.7169C130.455 37.2449 131.347 40.8739 133.354 41.6379C134.469 42.0199 135.584 42.9749 136.922 42.4019C138.037 41.6379 137.368 40.3009 137.591 39.5369ZM79.1649 63.2209C72.6979 65.5129 72.475 65.8949 72.921 70.4789C80.726 68.1869 79.8339 68.7599 79.1649 63.2209ZM98.1199 139.812C98.1199 142.868 98.5659 143.441 101.242 143.441C103.472 143.441 103.695 143.059 103.695 140.576C103.695 137.902 102.803 136.947 99.9039 136.947C97.6739 137.138 98.1199 138.666 98.1199 139.812ZM143.389 119.566C144.727 119.757 145.842 119.375 146.957 118.993C148.964 118.229 149.856 116.128 148.741 114.027C147.849 112.117 146.065 113.645 144.727 113.645C143.389 113.645 142.72 114.218 142.943 115.555C143.389 116.701 142.72 118.229 143.389 119.566ZM59.541 135.61C60.21 134.464 61.548 135.037 62.4399 134.846C64.0009 134.464 63.555 133.318 63.778 132.554C63.778 131.79 63.332 131.217 62.4399 131.026C60.4329 130.644 58.6489 131.79 58.6489 133.7C58.6489 134.655 58.649 135.61 58.426 136.565C57.98 138.475 59.318 139.239 61.325 139.621C62.4399 139.812 63.778 140.385 63.778 138.666C64.001 137.52 63.555 136.565 61.771 136.756C60.879 136.756 59.764 136.947 59.541 135.61ZM66.008 81.3659C71.36 80.6019 71.583 79.0739 70.468 74.1079C65.339 75.2539 65.339 75.2539 65.785 79.4559C66.0079 80.0289 65.339 80.6019 66.008 81.3659ZM144.058 58.6369C144.058 56.1539 142.051 54.2439 139.375 54.6259C136.922 55.0079 138.706 57.1089 138.037 58.2549C138.037 58.2549 138.037 58.4459 138.037 58.6369C138.037 60.3559 139.821 61.3109 142.497 61.3109C144.95 61.1199 143.835 59.4009 144.058 58.6369ZM144.95 66.6589C144.95 67.0409 144.95 67.4229 144.95 67.6139C145.173 69.9059 145.619 70.2879 148.741 70.4789C151.417 70.6699 150.302 68.5689 150.971 67.6139C151.194 67.4229 150.971 67.2319 150.971 66.8499C150.971 64.7489 149.633 63.6029 146.734 63.7939C144.281 63.7939 145.173 65.7039 144.95 66.6589ZM78.7189 119.757C78.2729 118.993 79.3879 117.083 76.935 117.274C72.6979 117.465 72.0289 117.847 72.0289 120.139C72.0289 122.813 72.4749 123.195 75.3739 123.004C78.7189 123.004 78.9419 122.813 78.7189 119.757ZM127.11 117.274C125.549 117.656 124.434 117.847 123.319 118.229C121.758 118.802 120.643 123.195 121.981 124.15C122.204 124.341 122.427 124.341 122.65 124.532C124.434 124.723 126.441 123.577 126.887 121.858C127.333 120.33 127.11 118.993 127.11 117.274ZM63.778 91.8709C58.649 93.3989 58.649 93.3989 58.872 99.5109C64.001 98.7469 64.001 98.7469 63.778 91.8709ZM129.786 84.4219C129.563 85.9499 129.34 87.2869 129.117 88.6239C129.117 89.1969 129.117 89.7699 130.009 89.9609C133.577 90.9159 135.584 89.5789 135.584 86.3319C135.584 85.1859 135.361 84.2309 133.8 84.6129C132.239 85.1859 131.347 84.2309 129.786 84.4219ZM138.706 49.4689C138.706 49.6599 138.706 50.0419 138.706 50.2329C138.929 51.9519 141.159 53.4799 143.166 53.0979C144.281 52.9069 144.504 51.9519 144.504 51.1879C144.504 49.8509 145.396 48.1319 143.166 47.5589C141.828 47.1769 140.713 46.2219 139.375 46.9859C139.152 47.1769 138.929 47.5589 138.929 47.9409C138.706 48.3229 138.706 48.8959 138.706 49.4689ZM87.862 139.812C87.862 136.947 87.639 136.756 84.517 136.565C81.172 136.565 80.726 136.947 80.726 139.048C80.726 141.34 81.395 141.722 85.186 141.913C87.4159 142.104 88.085 141.149 87.862 139.812ZM142.72 76.3999C142.943 75.8269 143.166 75.2539 143.389 74.6809C143.612 74.2989 143.612 73.7259 143.612 73.1529C143.612 71.2429 142.051 69.9059 139.598 69.9059C136.922 69.9059 137.814 71.6249 137.591 72.7709C137.368 75.4449 137.368 75.4449 140.49 75.8269C141.159 76.2089 141.828 76.2089 142.72 76.3999ZM65.562 104.859C70.914 103.522 70.914 103.522 70.022 97.7919C65.785 98.3649 64.447 98.3649 65.562 104.859ZM150.525 79.6469C148.741 79.4559 146.734 79.2649 144.95 78.8829C144.281 80.4109 144.727 81.7479 144.504 83.0849C144.058 85.1859 145.842 85.1859 147.403 85.3769C149.187 85.5679 150.079 85.1859 150.079 83.4669C150.079 82.3209 150.302 81.1749 150.525 79.6469ZM150.748 74.6809C150.748 72.5799 149.856 71.6249 147.849 71.6249C145.842 71.6249 144.727 72.3889 144.727 74.1079C144.727 76.5909 145.619 77.3549 148.295 77.3549C150.748 77.3549 150.302 75.8269 150.748 74.6809ZM79.1649 130.071C77.381 130.262 76.0429 130.262 74.7049 130.453C74.2589 130.453 73.59 130.453 73.59 130.644C72.9209 131.79 72.475 133.127 72.921 134.464C73.144 135.419 74.4819 135.228 75.3739 135.228C79.1649 135.228 79.3879 135.037 79.3879 131.79C79.1649 131.408 79.1649 131.026 79.1649 130.071ZM139.375 41.0649C139.375 41.6379 139.375 42.0199 139.375 42.4019C139.598 43.7389 142.72 45.8399 143.835 45.4579C145.619 44.8849 145.173 43.3569 145.173 42.0199C145.173 41.8289 145.173 41.8289 145.173 41.6379C144.95 40.6829 141.382 38.7729 140.49 38.9639C138.706 39.1549 139.598 40.3009 139.375 41.0649ZM137.145 97.6009C138.037 97.4099 138.706 97.4099 139.375 97.4099C142.274 97.0279 142.72 96.4549 142.497 93.7809C142.497 91.2979 140.267 92.0619 138.929 91.8709C137.145 91.6799 136.699 92.6349 136.699 93.7809C136.476 95.1179 136.476 96.2639 137.145 97.6009ZM146.734 49.0869C145.842 49.8509 146.065 50.6149 145.842 51.3789C145.619 51.7609 145.842 52.1429 145.619 52.5249C145.173 54.2439 147.849 55.3899 149.633 55.3899C151.863 55.3899 151.417 53.8619 151.64 52.7159C151.863 51.1879 151.417 49.8509 149.187 49.6599C148.295 49.6599 147.626 49.2779 146.734 49.0869ZM70.691 40.1099C66.008 42.0199 65.339 43.1659 66.677 47.7499C71.806 45.8399 72.2519 45.2669 70.691 40.1099ZM76.0429 141.149C78.9419 141.149 79.1649 140.958 79.1649 138.857C79.1649 136.947 78.7189 136.565 76.0429 136.565C73.5899 136.565 72.6979 137.138 72.4749 138.666C72.4749 140.576 73.1439 141.149 76.0429 141.149ZM86.0779 147.643C87.1929 147.643 87.639 147.261 87.862 146.497C88.308 144.396 87.4159 143.823 83.8479 143.059C82.2869 142.677 81.172 142.677 80.726 144.205C80.28 145.733 80.726 146.879 82.9559 146.879C83.8479 147.07 84.9629 147.452 86.0779 147.643ZM145.173 59.4009C144.95 61.3109 146.288 62.2659 148.964 62.4569C151.417 62.6479 150.971 60.9289 151.194 59.7829C151.417 57.8729 150.079 56.7269 147.403 56.5359C144.504 56.5359 146.065 58.8279 145.173 59.4009ZM93.8829 148.216C96.3359 148.216 96.5589 148.025 96.5589 146.497C96.5589 144.587 95.8899 144.014 92.7679 144.014C90.0919 144.014 89.423 144.396 89.646 146.306C89.646 148.025 90.3149 148.216 93.8829 148.216ZM59.541 83.6579C64.001 82.5119 64.4469 81.5569 63.555 76.7819C58.872 77.3549 58.649 78.1189 59.541 83.6579ZM141.828 99.3199C135.584 99.5109 135.361 99.7019 136.476 104.477C142.051 103.522 142.051 103.522 141.828 99.3199ZM144.504 37.8179C146.957 33.9979 145.173 33.6159 142.051 31.7059C140.713 30.9419 139.821 31.3239 139.821 32.6609C139.152 35.3349 140.267 36.4809 144.504 37.8179ZM143.166 126.251C145.173 126.251 146.511 125.487 147.849 124.723C149.187 123.959 148.741 122.622 148.741 121.476C148.741 120.903 148.295 120.712 147.626 120.521C145.173 120.33 142.943 122.049 142.943 124.341C142.943 124.914 143.166 125.678 143.166 126.251ZM134.023 131.026C132.685 131.599 131.124 132.172 130.009 132.745C128.671 133.318 128.002 135.61 128.894 136.565C129.786 137.711 130.901 136.947 131.793 136.565C134.692 135.61 134.915 135.037 134.023 131.026ZM70.691 120.903C70.468 119.948 71.1369 118.611 69.1299 118.611C66.4539 118.42 64.224 120.521 64.893 123.004C64.893 123.577 65.116 123.959 65.785 124.15C68.2379 124.914 70.914 123.386 70.691 120.903ZM66.008 88.6239C71.137 88.0509 71.36 86.3319 70.2449 82.3209C64.6699 83.0849 65.339 84.2309 66.008 88.6239ZM58.872 106.96C64.001 106.196 64.2239 105.432 63.1089 100.466C58.4259 101.803 58.203 101.994 58.872 106.96ZM126.441 133.7C125.549 133.509 124.88 133.891 123.988 134.082C121.758 134.846 120.866 136.183 121.089 138.284C121.089 138.857 121.312 139.239 121.981 139.43C123.765 139.812 126.664 138.475 126.664 136.947C126.887 135.801 127.556 134.655 126.441 133.7ZM144.058 96.8369C145.173 97.4099 146.065 97.2189 146.734 97.0279C149.187 96.8369 149.856 95.8819 149.633 93.9719C149.41 92.2529 148.072 92.2529 146.734 92.0619C144.504 91.8709 144.058 93.0169 144.281 94.5449C144.281 95.1179 144.058 95.8819 144.058 96.8369ZM140.936 122.622C135.138 123.386 135.138 123.386 136.476 128.543C141.159 127.588 141.828 127.015 140.936 122.622ZM70.2449 105.432C65.785 106.196 64.2239 106.769 65.785 111.353C70.9139 110.589 70.9139 110.589 70.2449 105.432ZM59.095 91.1069C64.4469 89.9609 64.893 89.1969 63.332 84.9949C58.872 86.3319 58.872 86.3319 59.095 91.1069ZM151.64 48.1319C152.532 44.3119 152.309 43.9299 149.187 42.7839C147.18 42.0199 146.511 42.4019 146.511 44.1209C146.065 46.2219 146.957 46.7949 151.64 48.1319ZM142.72 138.666C148.741 137.329 148.741 137.329 148.072 133.318C142.497 134.464 142.497 134.464 142.72 138.666ZM60.2099 50.9969C64.8929 48.8959 65.116 48.5139 63.555 44.1209C59.541 46.0309 59.541 46.0309 60.2099 50.9969ZM70.468 112.117C66.231 112.69 65.339 113.263 65.116 115.746C64.893 117.083 65.785 117.465 67.123 117.274C70.468 116.51 71.36 116.51 70.468 112.117ZM70.691 67.2319C65.116 69.5239 64.8929 69.5239 66.4539 73.3439C71.3599 71.8159 71.36 71.8159 70.691 67.2319ZM152.755 39.5369C152.978 38.0089 151.64 37.6269 150.302 37.0539C149.41 36.6719 148.741 35.3349 147.403 36.2899C146.511 36.8629 146.511 38.9639 147.626 39.9189C148.295 40.4919 149.187 40.8739 150.079 41.2559C152.086 41.8289 152.755 41.4469 152.755 39.5369ZM120.866 162.732C120.866 162.541 121.089 161.968 120.197 161.586C119.528 161.204 118.859 161.586 118.19 161.968C117.075 162.541 115.737 163.305 114.622 163.878C113.73 164.451 113.953 165.024 114.176 165.788C114.399 166.552 115.068 166.934 115.96 166.934C118.859 166.743 120.643 165.406 120.866 162.732ZM76.0429 146.497C78.4959 146.497 79.3879 145.351 78.7189 143.632C78.0499 142.104 76.4889 142.868 75.3739 142.677C72.6979 142.295 71.806 143.441 72.4749 145.351C73.1439 147.07 74.9279 146.115 76.0429 146.497ZM139.821 135.801C137.145 135.801 135.584 137.52 135.807 139.812C135.807 140.576 136.253 140.958 136.922 141.149C139.375 141.34 141.828 139.048 141.159 136.947C141.159 136.183 140.713 135.801 139.821 135.801ZM64.001 121.285C63.778 120.139 62.886 119.757 61.548 119.757C59.318 119.948 58.203 120.903 58.426 122.813C58.426 124.532 59.987 124.532 61.102 124.532C62.663 124.723 64.224 123.004 64.001 121.285ZM149.41 98.1739C143.389 99.1289 143.389 99.1289 144.281 102.567C149.633 101.803 149.633 101.803 149.41 98.1739ZM143.389 132.172C147.626 131.599 148.295 131.026 148.518 128.543C148.518 127.588 148.295 127.206 147.18 127.206C143.389 127.779 142.72 128.925 143.389 132.172ZM63.778 70.6699C58.649 72.5799 58.4259 72.7709 59.764 76.2089C63.7779 75.0629 64.67 74.8719 63.778 70.6699ZM68.461 136.374C65.785 136.374 65.3389 136.756 65.3389 138.475C65.3389 140.576 67.5689 140.003 68.6839 140.385C70.0219 140.767 71.36 139.239 71.137 137.711C70.914 135.992 69.576 136.565 68.461 136.374ZM136.476 134.655C141.382 133.7 141.605 133.318 140.49 129.689C136.253 130.453 135.584 129.498 136.476 134.655ZM139.598 90.1519C141.382 90.1519 142.943 90.1519 142.72 88.2419C142.497 86.9049 140.713 85.9499 138.706 86.1409C136.476 86.3319 137.368 88.0509 137.145 89.0059C136.699 90.7249 138.706 89.9609 139.598 90.1519ZM68.6839 141.913C66.4539 141.913 65.1159 142.677 65.3389 144.205C65.7849 146.115 67.792 145.351 68.907 145.733C70.468 146.115 70.691 144.969 70.691 144.014C70.914 142.486 70.4679 141.722 68.6839 141.913ZM58.426 129.88C63.778 130.071 63.778 130.071 62.886 126.06C58.649 126.251 58.649 126.251 58.426 129.88ZM103.695 145.733C99.4579 144.396 98.7889 144.396 98.3429 145.351C97.8969 146.497 98.5659 148.598 99.4579 148.789C102.134 149.362 102.134 147.07 103.695 145.733ZM147.18 90.3429C148.295 90.3429 149.41 90.3429 149.856 89.0059C150.079 88.0509 147.849 86.9049 146.065 86.9049C144.95 86.9049 144.281 87.4779 144.504 88.6239C144.281 90.3429 145.842 90.5339 147.18 90.3429ZM61.102 141.531C58.872 141.531 58.6489 141.722 58.6489 142.868C58.6489 144.205 59.764 144.969 62.217 144.969C63.778 144.969 63.778 144.205 63.778 143.441C63.778 141.531 62.663 141.34 61.102 141.531ZM110.385 138.475C108.378 138.284 107.263 137.52 105.702 137.902C105.702 138.857 105.256 140.003 106.148 140.958C107.263 140.194 108.378 139.621 110.385 138.475ZM80.9489 148.789C81.1719 148.407 81.1719 148.025 80.5029 148.025C79.6109 148.216 79.3879 148.789 79.6109 149.362C79.6109 149.744 79.834 150.317 80.057 150.317C81.395 150.317 80.7259 149.362 80.9489 148.789Z" fill="#00477C"/>
</svg>
