<svg width="199" height="194" viewBox="0 0 199 194" fill="none" xmlns="http://www.w3.org/2000/svg">
<path fill-rule="evenodd" clip-rule="evenodd" d="M26.7021 0.0107477C33.9543 0.129423 41.4035 1.44834 46.2112 6.88638C51.3028 12.6457 52.8472 20.5638 51.5794 28.15C50.201 36.3982 46.8188 45.0184 39.2484 48.551C31.7541 52.0482 23.3078 48.5932 15.9774 44.7634C9.02238 41.1298 2.59315 36.0297 0.694051 28.4084C-1.24695 20.6189 0.957559 12.1515 6.37663 6.23453C11.4146 0.733721 19.2491 -0.111212 26.7021 0.0107477Z" fill="#FF967E"/>
<path fill-rule="evenodd" clip-rule="evenodd" d="M168.351 134.013C177.137 134.155 186.162 135.738 191.987 142.264C198.155 149.175 200.026 158.677 198.49 167.78C196.82 177.678 192.723 188.022 183.551 192.261C174.471 196.458 164.238 192.312 155.357 187.716C146.931 183.356 139.142 177.236 136.841 168.09C134.489 158.743 137.16 148.582 143.726 141.481C149.829 134.88 159.321 133.867 168.351 134.013Z" fill="#F5FCAC"/>
<g clip-path="url(#clip0_1424_3874)">
<path d="M160.32 113.52C159.54 114.388 158.74 115.206 157.4 114.674C156.06 114.141 155.99 113.046 156 111.863C156 91.1451 156 70.434 156 49.7294V47.9246H17.3198V136.292C17.3198 139.576 18.9299 141.223 22.2299 141.223H151.09C154.39 141.223 156 139.606 156 136.292C156 131.903 156 127.514 156 123.126C156 121.903 156.18 120.798 157.51 120.384C158.84 119.97 159.7 120.66 160.33 121.755V138.462C160.1 139.073 159.92 139.714 159.64 140.306C157.87 144.044 154.77 145.464 150.7 145.464C108.033 145.464 65.3465 145.464 22.6398 145.464C21.9212 145.474 21.2028 145.434 20.4898 145.346C18.8918 145.165 17.3809 144.533 16.1389 143.525C14.8969 142.517 13.9769 141.177 13.4898 139.665L13.0498 138.482V28.0221C15.2598 22.4597 17.3899 21.0396 23.5399 21.0396H150.26C150.93 21.0396 151.6 21.0395 152.26 21.0889C153.463 21.1192 154.643 21.4213 155.709 21.9718C156.775 22.5223 157.699 23.3067 158.41 24.2646C159.148 25.4628 159.784 26.7196 160.31 28.0221L160.32 113.52ZM155.99 43.4963C155.99 38.6243 156.05 33.91 155.99 29.1958C155.886 28.2668 155.507 27.3886 154.9 26.671C153.9 25.3396 152.31 25.2508 150.73 25.2508H21.7899C21.1882 25.2216 20.587 25.3184 20.0259 25.5347C19.4648 25.751 18.9565 26.0819 18.5343 26.5057C18.1121 26.9295 17.7857 27.4367 17.5764 27.9938C17.367 28.5509 17.2796 29.1454 17.3198 29.7382C17.3198 32.5687 17.3198 35.4091 17.3198 38.2397V43.4865L155.99 43.4963Z" fill="#00477C"/>
<path d="M54.04 83.9125C54.73 78.8728 55.38 73.8331 56.12 68.8032C56.2357 67.8518 56.6689 66.9653 57.3514 66.2833C58.0339 65.6012 58.9269 65.1624 59.89 65.0358C61.06 64.7991 62.22 64.5032 63.4 64.2862C63.6876 64.1987 63.9904 64.1705 64.2896 64.2035C64.5887 64.2365 64.8777 64.3299 65.1385 64.478C65.3994 64.6261 65.6265 64.8256 65.8057 65.0641C65.9849 65.3026 66.1123 65.575 66.18 65.8642C66.2357 66.155 66.231 66.454 66.1663 66.743C66.1015 67.032 65.978 67.3051 65.8032 67.5457C65.6284 67.7863 65.4059 67.9894 65.1493 68.1428C64.8926 68.2963 64.6071 68.3968 64.31 68.4383C63.6222 68.6466 62.9156 68.7886 62.2 68.8624C60.76 68.9413 60.2 69.6711 59.98 71.042C57.45 84.0703 58.63 96.5561 65.29 108.332C69.84 116.38 76.4 121.942 85.4 124.575C86.2602 124.812 87.1698 124.812 88.03 124.575C99.54 121.212 106.35 113.086 110.8 102.602C114.265 94.3104 115.404 85.2527 114.1 76.3776C113.83 74.3262 113.51 72.2649 113.1 70.2431C113.012 69.9812 112.863 69.7432 112.665 69.548C112.467 69.3529 112.226 69.2059 111.96 69.1188C103.423 67.3562 95.1951 64.3655 87.54 60.2426C87.2584 60.1254 86.9557 60.0651 86.65 60.0651C86.3443 60.0651 86.0417 60.1254 85.76 60.2426C82.22 61.8107 78.76 63.4972 75.21 65.0653C73.46 65.8445 72.21 65.4303 71.7 64.0791C71.19 62.7279 71.9 61.8502 73.56 61.1204C77.05 59.5621 80.56 57.994 83.94 56.2878C84.7632 55.806 85.7028 55.5518 86.66 55.5518C87.6173 55.5518 88.5568 55.806 89.38 56.2878C96.7749 60.4001 104.784 63.3295 113.11 64.9667C114.162 65.0973 115.142 65.566 115.898 66.3004C116.653 67.0348 117.142 67.9941 117.29 69.0301C120.71 84.8889 118.9 99.8699 109.7 113.658C104.856 121.034 97.4381 126.403 88.85 128.747C87.3298 129.127 85.7341 129.096 84.23 128.658C71.32 124.911 63.32 116.084 58.49 104.101C55.8008 97.7238 54.4405 90.8781 54.49 83.9717L54.04 83.9125Z" fill="#00477C"/>
<path d="M82.85 93.065L96.85 79.5534C97.9934 78.3485 99.5686 77.6315 101.24 77.5551C102.912 77.4787 104.547 78.049 105.799 79.1444C107.05 80.2399 107.819 81.7739 107.94 83.4198C108.062 85.0657 107.527 86.6935 106.45 87.9563C105.25 89.2976 103.91 90.5303 102.58 91.7533C102.383 91.9714 102.143 92.147 101.874 92.2687C101.605 92.3905 101.313 92.4559 101.017 92.4608C100.721 92.4657 100.427 92.41 100.154 92.2972C99.8811 92.1843 99.6348 92.0169 99.4307 91.8054C99.2267 91.5938 99.0693 91.3429 98.9686 91.0683C98.868 90.7938 98.8262 90.5016 98.8458 90.2103C98.8655 89.919 98.9462 89.6349 99.0829 89.3759C99.2197 89.1169 99.4093 88.8888 99.64 88.7058C100.64 87.7196 101.64 86.7826 102.64 85.8161C103.91 84.5636 104.07 83.3111 103.1 82.3741C102.13 81.4372 100.91 81.6048 99.6 82.8771L86.01 95.9547C83.77 98.1047 82.11 98.085 79.87 95.8955C78.48 94.5246 77.1 93.1439 75.7 91.7927C74.54 90.6783 73.35 90.6092 72.41 91.5363C71.47 92.4634 71.56 93.637 72.71 94.7811C75.65 97.6938 78.6 100.593 81.56 103.48C82.56 104.466 83.34 104.466 84.39 103.48C86.96 100.994 89.45 98.4499 92.08 96.0336C92.7453 95.4715 93.6054 95.1852 94.48 95.2347C94.8382 95.3049 95.17 95.4704 95.4395 95.7134C95.7091 95.9563 95.9061 96.2674 96.0091 96.6128C96.1121 96.9583 96.1173 97.325 96.024 97.6732C95.9307 98.0214 95.7426 98.3378 95.48 98.588C92.54 101.547 89.59 104.505 86.48 107.306C85.4285 108.164 84.0904 108.604 82.7273 108.54C81.3642 108.476 80.0743 107.913 79.11 106.961C75.77 103.785 72.46 100.56 69.25 97.2565C68.1519 96.0511 67.566 94.4753 67.6135 92.8555C67.6611 91.2357 68.3385 89.696 69.5054 88.5552C70.6724 87.4144 72.2395 86.76 73.8823 86.7275C75.525 86.6949 77.1175 87.2867 78.33 88.3803C79.84 89.8301 81.26 91.4278 82.85 93.065Z" fill="#00477C"/>
<path d="M45.84 115.679H36.2C35.7693 115.693 35.3383 115.676 34.91 115.63C34.3583 115.585 33.8447 115.335 33.4733 114.93C33.1019 114.525 32.9005 113.996 32.91 113.45C32.941 112.905 33.1876 112.392 33.597 112.024C34.0064 111.655 34.5459 111.459 35.1 111.478C37.54 111.429 39.9799 111.478 42.4299 111.478C46.9799 111.478 51.53 111.478 56.08 111.478C57.76 111.478 58.7499 112.297 58.7399 113.589C58.7299 114.881 57.7399 115.699 56.0499 115.709C52.6399 115.679 49.2 115.679 45.84 115.679Z" fill="#00477C"/>
<path d="M127.52 111.438C130.92 111.438 134.32 111.438 137.72 111.438C139.42 111.438 140.41 112.227 140.42 113.51C140.43 114.792 139.42 115.669 137.77 115.669C130.91 115.669 124.057 115.669 117.21 115.669C115.55 115.669 114.56 114.782 114.59 113.49C114.62 112.198 115.59 111.448 117.31 111.438C120.71 111.429 124.12 111.438 127.52 111.438Z" fill="#00477C"/>
<path d="M129.6 100.984C132.28 100.984 134.96 100.984 137.65 100.984C139.43 100.984 140.46 101.803 140.42 103.125C140.38 104.446 139.42 105.215 137.71 105.215C132.25 105.215 126.79 105.215 121.33 105.215C119.65 105.215 118.65 104.407 118.62 103.115C118.59 101.823 119.62 100.994 121.27 100.984C124.04 100.975 126.82 100.984 129.6 100.984Z" fill="#00477C"/>
<path d="M131.2 90.54C133.45 90.54 135.7 90.54 137.95 90.54C139.49 90.54 140.47 91.4079 140.45 92.6605C140.439 92.9578 140.367 93.2499 140.237 93.5187C140.108 93.7876 139.925 94.0277 139.698 94.2243C139.472 94.4209 139.207 94.5699 138.92 94.6622C138.633 94.7545 138.33 94.7882 138.03 94.7612C133.43 94.8006 128.833 94.8006 124.24 94.7612C123.934 94.7972 123.623 94.7682 123.33 94.6762C123.036 94.5841 122.766 94.4311 122.537 94.2275C122.308 94.0238 122.126 93.7741 122.003 93.4954C121.88 93.2166 121.819 92.915 121.824 92.6111C121.829 92.3071 121.9 92.0077 122.032 91.733C122.164 91.4584 122.354 91.2147 122.59 91.0185C122.825 90.8224 123.101 90.6782 123.397 90.5956C123.694 90.5131 124.005 90.4941 124.31 90.54C126.58 90.5302 128.88 90.54 131.2 90.54Z" fill="#00477C"/>
<path d="M42.1999 68.9809C44.4499 68.9809 46.6999 68.9809 48.9499 68.9809C50.5099 68.9809 51.4899 69.8094 51.4999 71.0521C51.4938 71.361 51.4221 71.6653 51.2893 71.9452C51.1565 72.225 50.9657 72.4744 50.7291 72.677C50.4926 72.8796 50.2156 73.031 49.916 73.1215C49.6164 73.2119 49.3009 73.2394 48.9899 73.2021C44.4499 73.2415 39.9065 73.2415 35.3599 73.2021C35.0484 73.2367 34.733 73.2062 34.4343 73.1126C34.1356 73.0189 33.8603 72.8643 33.6263 72.6586C33.3923 72.4529 33.2048 72.2009 33.0762 71.919C32.9476 71.6371 32.8807 71.3316 32.8799 71.0225C32.8799 69.7798 33.8799 68.9908 35.4499 68.9809C37.7199 68.9711 39.9699 68.9809 42.1999 68.9809Z" fill="#00477C"/>
<path d="M131.2 68.9809C133.4 68.9809 135.6 68.9809 137.81 68.9809C139.39 68.9809 140.35 69.7798 140.38 71.0225C140.379 71.3316 140.312 71.6371 140.183 71.919C140.055 72.2009 139.867 72.4529 139.633 72.6586C139.399 72.8643 139.124 73.0189 138.825 73.1126C138.527 73.2062 138.211 73.2367 137.9 73.2021C133.36 73.2415 128.816 73.2415 124.27 73.2021C123.959 73.2394 123.643 73.2119 123.344 73.1215C123.044 73.031 122.767 72.8796 122.531 72.677C122.294 72.4744 122.103 72.225 121.97 71.9452C121.838 71.6653 121.766 71.361 121.76 71.0521C121.76 69.8094 122.76 68.9908 124.31 68.9809C126.65 68.9711 128.95 68.9809 131.2 68.9809Z" fill="#00477C"/>
<path d="M42.2 105.235C40 105.235 37.8 105.235 35.59 105.235C33.94 105.235 32.93 104.377 32.94 103.095C32.95 101.813 33.94 101.004 35.62 101.004C40.02 101.004 44.4234 101.004 48.83 101.004C50.53 101.004 51.52 101.773 51.56 103.045C51.6 104.318 50.56 105.225 48.8 105.235C46.56 105.245 44.36 105.235 42.2 105.235Z" fill="#00477C"/>
<path d="M41.46 94.7911C39.46 94.7911 37.54 94.7911 35.58 94.7911C33.92 94.7911 32.91 93.9528 32.9 92.6706C32.89 91.3885 33.8999 90.5601 35.5499 90.5601C39.5499 90.5601 43.49 90.5601 47.46 90.5601C49.06 90.5601 50.01 91.3195 50.07 92.5325C50.13 93.7456 49.0699 94.7319 47.4899 94.7516C45.4799 94.8108 43.47 94.7911 41.46 94.7911Z" fill="#00477C"/>
<path d="M132.64 80.0859C134.41 80.0859 136.18 80.0859 137.95 80.0859C139.47 80.0859 140.46 80.9735 140.43 82.2261C140.416 82.5226 140.342 82.8134 140.211 83.0807C140.08 83.348 139.895 83.5862 139.668 83.7808C139.44 83.9755 139.175 84.1225 138.889 84.213C138.602 84.3034 138.3 84.3354 138 84.307C134.37 84.307 130.73 84.307 127.1 84.307C126.8 84.3341 126.498 84.3003 126.211 84.2079C125.925 84.1155 125.661 83.9664 125.435 83.7697C125.21 83.5729 125.027 83.3328 124.899 83.0639C124.771 82.7951 124.7 82.5033 124.69 82.2063C124.69 80.944 125.69 80.0958 127.19 80.0859C129 80.0761 130.82 80.0859 132.64 80.0859Z" fill="#00477C"/>
<path d="M40.1 80.0859C41.73 80.0859 43.36 80.0859 44.99 80.0859C45.2826 80.0661 45.5763 80.1059 45.8527 80.2028C46.1291 80.2997 46.3824 80.4516 46.5968 80.649C46.8112 80.8465 46.9822 81.0853 47.0991 81.3507C47.2159 81.616 47.2762 81.9022 47.2762 82.1916C47.2762 82.4809 47.2159 82.7671 47.0991 83.0324C46.9822 83.2978 46.8112 83.5366 46.5968 83.7341C46.3824 83.9315 46.1291 84.0834 45.8527 84.1803C45.5763 84.2772 45.2826 84.3169 44.99 84.2972C41.73 84.3366 38.47 84.3366 35.21 84.2972C34.9174 84.3169 34.6237 84.2772 34.3473 84.1803C34.0709 84.0834 33.8176 83.9315 33.6032 83.7341C33.3888 83.5366 33.2179 83.2978 33.101 83.0324C32.9841 82.7671 32.9238 82.4809 32.9238 82.1916C32.9238 81.9022 32.9841 81.616 33.101 81.3507C33.2179 81.0853 33.3888 80.8465 33.6032 80.649C33.8176 80.4516 34.0709 80.2997 34.3473 80.2028C34.6237 80.1059 34.9174 80.0661 35.21 80.0859C36.84 80.0662 38.47 80.0859 40.1 80.0859Z" fill="#00477C"/>
<path d="M54.6899 37.3421C53.8943 37.3421 53.1312 37.0304 52.5686 36.4755C52.006 35.9207 51.6899 35.1681 51.6899 34.3834C51.6939 33.9949 51.7754 33.6109 51.9298 33.2534C52.0842 32.8959 52.3085 32.5719 52.5898 32.2999C52.8712 32.0279 53.2042 31.8133 53.5696 31.6682C53.9351 31.5231 54.326 31.4504 54.72 31.4542C55.1139 31.4581 55.5033 31.5385 55.8657 31.6908C56.2282 31.8431 56.5567 32.0643 56.8325 32.3417C57.1082 32.6192 57.326 32.9476 57.4731 33.3081C57.6202 33.6685 57.6939 34.054 57.6899 34.4426C57.6742 35.217 57.3513 35.9544 56.7903 36.4966C56.2294 37.0387 55.4753 37.3423 54.6899 37.3421Z" fill="#00477C"/>
<path d="M32.5602 34.4423C32.5443 35.227 32.213 35.9733 31.6391 36.5171C31.0652 37.0609 30.2958 37.3576 29.5002 37.3419C28.7045 37.3262 27.9478 36.9994 27.3964 36.4334C26.8451 35.8675 26.5443 35.1087 26.5602 34.324C26.581 33.5321 26.9147 32.7796 27.4901 32.2268C28.0655 31.6741 28.837 31.365 29.6402 31.3652C30.0377 31.3754 30.4291 31.4633 30.7919 31.624C31.1546 31.7847 31.4813 32.0149 31.753 32.3012C32.0247 32.5875 32.236 32.9243 32.3746 33.2918C32.5131 33.6594 32.5762 34.0505 32.5602 34.4423Z" fill="#00477C"/>
<path d="M39.2002 34.4031C39.2002 33.6184 39.5162 32.8658 40.0789 32.3109C40.6415 31.7561 41.4045 31.4443 42.2002 31.4443C42.9966 31.4566 43.7577 31.7708 44.3256 32.3217C44.8935 32.8725 45.2246 33.6179 45.2502 34.4031C45.2502 35.1878 44.9341 35.9404 44.3715 36.4952C43.8089 37.0501 43.0458 37.3618 42.2502 37.3618C41.852 37.3683 41.4566 37.2967 41.0868 37.1509C40.717 37.0052 40.3804 36.7882 40.0965 36.5128C39.8126 36.2374 39.5871 35.9091 39.4332 35.5468C39.2793 35.1846 39.2001 34.7958 39.2002 34.4031Z" fill="#00477C"/>
</g>
<defs>
<clipPath id="clip0_1424_3874">
<rect width="147.31" height="124.444" fill="white" transform="translate(13 21)"/>
</clipPath>
</defs>
</svg>
