<svg width="24" height="22" viewBox="0 0 24 22" fill="none" xmlns="http://www.w3.org/2000/svg">
<path d="M23.4652 9.04444C23.1719 9.04444 22.9319 9.26444 22.9319 9.53333V14.9111H20.7987V13.4444H21.332C21.6253 13.4444 21.8653 13.2244 21.8653 12.9556V11C21.8653 10.7311 21.6253 10.5111 21.332 10.5111H16.5323C16.239 10.5111 15.999 10.7311 15.999 11V12.9556C15.999 13.2244 16.239 13.4444 16.5323 13.4444H17.0656V14.9111H1.0666V5.13333H5.06635C5.35967 5.13333 5.59965 4.91333 5.59965 4.64444C5.59965 4.37556 5.35967 4.15556 5.06635 4.15556H0.5333C0.239985 4.15556 0 4.37556 0 4.64444V18.3333C0 18.6022 0.239985 18.8222 0.5333 18.8222H9.0661V21.0222H6.9329C6.63959 21.0222 6.3996 21.2422 6.3996 21.5111C6.3996 21.78 6.63959 22 6.9329 22H17.0656C17.3589 22 17.5989 21.78 17.5989 21.5111C17.5989 21.2422 17.3589 21.0222 17.0656 21.0222H14.9324V18.8222H23.4652C23.7585 18.8222 23.9985 18.6022 23.9985 18.3333V9.53333C23.9985 9.26444 23.7585 9.04444 23.4652 9.04444ZM17.0656 11.4889H20.7987V12.4667H17.0656V11.4889ZM18.1322 13.4444H19.7321V14.9111H18.1322V13.4444ZM13.8658 21.0222H10.1327V18.8222H13.8658V21.0222ZM1.0666 17.8444V15.8889H22.9319V17.8444H1.0666ZM19.7321 9.28889C21.092 9.28889 22.3453 8.8 23.3052 7.92C23.5185 7.72445 23.7319 7.50444 23.8918 7.26C24.0518 7.06444 23.9985 6.77111 23.7852 6.6L21.2253 4.64444L23.8118 2.66444C24.0252 2.49333 24.0518 2.22444 23.9185 2.00444C23.7319 1.78444 23.5452 1.56444 23.3319 1.34444C22.3453 0.488889 21.092 0 19.7321 0C18.3722 0 17.1189 0.488889 16.159 1.36889C15.1991 2.24889 14.6658 3.39778 14.6658 4.64444C14.6658 5.89111 15.1991 7.04 16.159 7.92C17.1189 8.8 18.3722 9.28889 19.7321 9.28889ZM16.9056 2.05333C17.6522 1.36889 18.6655 0.977778 19.7321 0.977778C20.7987 0.977778 21.812 1.36889 22.5586 2.05333C22.6119 2.10222 22.6653 2.15111 22.7186 2.22444L20.0521 4.27778C19.9188 4.37556 19.8654 4.49778 19.8654 4.64444C19.8654 4.79111 19.9454 4.93778 20.0521 5.01111L22.7186 7.06445C22.6653 7.11333 22.6119 7.18667 22.5586 7.23556C21.812 7.92 20.7987 8.31111 19.7321 8.31111C18.6655 8.31111 17.6522 7.92 16.9056 7.23556C16.159 6.55111 15.7324 5.62222 15.7324 4.64444C15.7324 3.66667 16.159 2.73778 16.9056 2.05333ZM18.8255 3.03111C18.7188 2.93333 18.6655 2.81111 18.6655 2.68889C18.6655 2.56667 18.7188 2.44444 18.8255 2.34667C18.9588 2.22444 19.1455 2.17556 19.3055 2.22444C19.3321 2.22444 19.3588 2.24889 19.4121 2.24889C19.4388 2.24889 19.4655 2.27333 19.4921 2.29778C19.5188 2.32222 19.5454 2.32222 19.5721 2.34667C19.6788 2.44444 19.7321 2.56667 19.7321 2.68889C19.7321 2.81111 19.6788 2.93333 19.5721 3.03111C19.5454 3.05556 19.5188 3.08 19.4921 3.08C19.4655 3.10444 19.4388 3.10444 19.4121 3.12889C19.3855 3.15333 19.3588 3.15333 19.3055 3.15333C19.2788 3.15333 19.2255 3.15333 19.1988 3.15333C19.0655 3.17778 18.9322 3.12889 18.8255 3.03111ZM13.5992 4.64444C13.5992 4.91333 13.3592 5.13333 13.0659 5.13333C10.7193 5.13333 8.79945 6.89333 8.79945 9.04444V11.4889C8.79945 11.7578 8.55947 11.9778 8.26615 11.9778C7.97284 11.9778 7.73285 11.7578 7.73285 11.4889V9.04444C7.73285 6.35556 10.1327 4.15556 13.0659 4.15556C13.3592 4.15556 13.5992 4.37556 13.5992 4.64444ZM5.06635 9.28889C5.06635 5.25556 8.66613 1.95556 13.0659 1.95556C13.3592 1.95556 13.5992 2.17556 13.5992 2.44444C13.5992 2.71333 13.3592 2.93333 13.0659 2.93333C9.25276 2.93333 6.13295 5.79333 6.13295 9.28889V10.5111C6.13295 10.78 5.89297 11 5.59965 11C5.30634 11 5.06635 10.78 5.06635 10.5111V9.28889ZM11.466 9.53333C11.466 9.80222 11.226 10.0222 10.9327 10.0222C10.6393 10.0222 10.3994 9.80222 10.3994 9.53333V9.04444C10.3994 7.7 11.5993 6.6 13.0659 6.6C13.3592 6.6 13.5992 6.82 13.5992 7.08889C13.5992 7.35778 13.3592 7.57778 13.0659 7.57778C12.1859 7.57778 11.466 8.23778 11.466 9.04444V9.53333ZM11.4126 11.2933C11.4393 11.3178 11.4393 11.3422 11.4393 11.3911C11.4393 11.4156 11.4393 11.4644 11.4393 11.4889C11.4393 11.5133 11.4393 11.5622 11.4393 11.5867C11.4393 11.6111 11.4126 11.66 11.4126 11.6844C11.4126 11.7089 11.386 11.7333 11.3593 11.7578C11.3326 11.7822 11.306 11.8067 11.306 11.8311C11.1993 11.9289 11.066 11.9778 10.9327 11.9778C10.7993 11.9778 10.666 11.9289 10.5593 11.8311C10.5327 11.8067 10.506 11.7822 10.4793 11.7578C10.4527 11.7333 10.4527 11.7089 10.426 11.6844C10.3994 11.66 10.3994 11.6356 10.3994 11.5867C10.3994 11.5622 10.3994 11.5133 10.3994 11.4889C10.3994 11.4644 10.3994 11.4156 10.3994 11.3911C10.3994 11.3667 10.426 11.3178 10.426 11.2933C10.426 11.2689 10.4527 11.2444 10.4793 11.22C10.506 11.1956 10.506 11.1711 10.5327 11.1467C10.5593 11.1222 10.586 11.0978 10.6127 11.0978C10.6393 11.0733 10.666 11.0733 10.6927 11.0489C10.7193 11.0244 10.746 11.0244 10.7993 11.0244C10.9593 11 11.146 11.0489 11.2793 11.1467C11.306 11.1711 11.3326 11.1956 11.3326 11.22C11.386 11.2444 11.4126 11.2689 11.4126 11.2933ZM8.63946 13.1022C8.74612 13.2 8.79945 13.3222 8.79945 13.4444C8.79945 13.5667 8.74612 13.6889 8.63946 13.7867C8.5328 13.8844 8.39948 13.9333 8.26615 13.9333C8.13283 13.9333 7.9995 13.8844 7.89284 13.7867C7.78618 13.6889 7.73285 13.5667 7.73285 13.4444C7.73285 13.42 7.73285 13.3711 7.73285 13.3467C7.73285 13.3222 7.75952 13.2978 7.75952 13.2489C7.75952 13.2244 7.78618 13.2 7.81285 13.1756C7.83951 13.1511 7.83951 13.1267 7.86618 13.1022C7.9995 12.98 8.15949 12.9311 8.34615 12.98C8.37281 12.98 8.39948 13.0044 8.45281 13.0044C8.47947 13.0289 8.50614 13.0289 8.5328 13.0533C8.55947 13.0778 8.6128 13.0778 8.63946 13.1022ZM6.07962 12.2711C6.10629 12.2956 6.10629 12.32 6.10629 12.3689C6.10629 12.3933 6.10629 12.4422 6.10629 12.4667C6.10629 12.5889 6.05296 12.7111 5.9463 12.8089C5.8663 12.9067 5.73298 12.9556 5.59965 12.9556C5.46633 12.9556 5.333 12.9067 5.22634 12.8089C5.11968 12.7111 5.06635 12.5889 5.06635 12.4667C5.06635 12.4422 5.06635 12.3933 5.06635 12.3689C5.06635 12.3444 5.09302 12.32 5.09302 12.2711C5.09302 12.2467 5.11968 12.2222 5.14635 12.1978C5.17301 12.1733 5.17301 12.1489 5.19968 12.1244C5.333 12.0022 5.51966 11.9533 5.67965 12.0022C5.70631 12.0022 5.73298 12.0267 5.78631 12.0267C5.81297 12.0511 5.83964 12.0511 5.8663 12.0756C5.89297 12.1 5.91963 12.1244 5.9463 12.1244C5.97296 12.1489 5.99963 12.1733 5.99963 12.1978C6.05296 12.2222 6.07962 12.2467 6.07962 12.2711Z" fill="white"/>
</svg>
