<svg width="100" height="95" viewBox="0 0 100 95" fill="none" xmlns="http://www.w3.org/2000/svg">
<path d="M99.9025 23.2446C99.8575 23.1356 99.7963 23.0362 99.7188 22.945C99.7025 22.9261 99.6913 22.9059 99.6738 22.8882C99.5938 22.8053 99.505 22.7295 99.4013 22.6691C99.3775 22.6561 99.3525 22.6502 99.3275 22.6383C99.315 22.6324 99.3087 22.6218 99.2962 22.6159L50.5462 0.11988C50.2025 -0.0399599 49.7962 -0.0399599 49.4525 0.11988L0.7025 22.6159C0.69 22.6218 0.6825 22.6324 0.67125 22.6383C0.6475 22.6502 0.62125 22.6561 0.5975 22.6691C0.49375 22.7295 0.405 22.8053 0.325 22.8882C0.3075 22.9059 0.29625 22.9261 0.28 22.945C0.2025 23.0362 0.1425 23.1368 0.0962496 23.2446C0.0849996 23.2718 0.0712497 23.2966 0.0612497 23.3251C0.0262497 23.4387 0 23.5559 0 23.6791V69.855C0 70.299 0.2625 70.7063 0.68 70.9088L49.43 94.5888C49.4463 94.597 49.465 94.5935 49.4812 94.6006C49.6462 94.6716 49.8212 94.719 50 94.719C50.1788 94.719 50.3538 94.6716 50.5188 94.5994C50.535 94.5923 50.5537 94.5959 50.57 94.5876L99.32 70.9076C99.7375 70.7063 100 70.299 100 69.855V23.6791C100 23.5559 99.9737 23.4387 99.9362 23.3251C99.9275 23.2966 99.9137 23.2718 99.9025 23.2446ZM50 2.49972L95.955 23.7063L50 46.0282L35.5688 39.0178L50.4812 31.857C50.8975 31.6569 51.1625 31.2531 51.1662 30.8103C51.17 30.3675 50.9137 29.9602 50.5 29.753L36.485 22.7461C36.1275 22.5661 35.6988 22.5638 35.3363 22.7366L18.5987 30.7748L4.045 23.7051L50 2.49972ZM19.845 34.0426L31.865 39.8809V58.105L19.845 52.1578V34.0426ZM21.3475 32.1103L35.89 25.1271L47.1963 30.7795L32.82 37.6834L21.3475 32.1103ZM2.5 25.6173L17.345 32.8278V52.8753C17.345 53.3169 17.6038 53.7207 18.0163 53.9243L32.5362 61.1088C32.7187 61.1988 32.9163 61.2438 33.115 61.2438C33.34 61.2438 33.5638 61.187 33.7638 61.0721C34.1375 60.8566 34.365 60.473 34.365 60.0598V41.0945L48.75 48.0825V91.5968L2.5 69.1316V25.6173ZM97.5 69.1316L51.25 91.5968V48.0825L97.5 25.6173V69.1316Z" fill="white"/>
</svg>
