<svg width="120" height="120" viewBox="0 0 120 120" fill="none" xmlns="http://www.w3.org/2000/svg">
<path d="M92.6114 55.3904C93.3916 55.6861 94.2175 55.8562 95.0664 55.8562C98.8731 55.8562 101.97 52.7554 101.97 48.9437C101.97 47.0896 101.233 45.3585 99.9623 44.0791C103.723 36.5691 104.141 30.6523 101.145 26.925C99.2129 24.5238 96.0821 23.3066 91.8399 23.3066C87.4578 23.3066 81.8944 24.6812 75.6794 27.2654C71.9812 14.4865 66.3101 7.19995 59.9863 7.19995C53.6685 7.19995 47.9945 14.4871 44.2858 27.2673C41.762 26.2171 39.3363 25.3667 37.0364 24.7234C36.8894 21.0453 33.8561 18.096 30.1383 18.096C26.6722 18.096 23.802 20.6603 23.309 23.9875C21.4293 24.5812 19.9212 25.5623 18.8274 26.9257C13.8419 33.1248 18.5859 45.7293 31.2021 59.9994C18.5827 74.264 13.838 86.8699 18.8277 93.075C20.7602 95.4761 23.891 96.6937 28.1332 96.6937C32.516 96.6937 38.08 95.3187 44.2946 92.7337C47.9996 105.513 53.6706 112.8 59.9863 112.8C65.451 112.8 70.4286 107.39 74.0916 97.5457C74.3637 97.5777 74.6394 97.6 74.9223 97.6C77.2651 97.6 79.3626 96.4402 80.6149 94.5828C84.8677 95.981 88.6469 96.6968 91.8539 96.6968C96.0906 96.6968 99.2172 95.4777 101.146 93.0738C106.134 86.8685 101.389 74.2621 88.7689 59.9976C90.1336 58.4535 91.4188 56.9125 92.6114 55.3904ZM91.8492 26.5097C95.0692 26.5097 97.3578 27.3242 98.6516 28.9304C100.739 31.5281 100.234 36.2886 97.2383 42.3804C97.2014 42.3681 97.1624 42.3644 97.1254 42.3527C96.9258 42.2904 96.7215 42.2478 96.5172 42.2039C96.3806 42.1746 96.2467 42.1353 96.1082 42.1144C95.7647 42.0621 95.4171 42.032 95.0664 42.032C94.59 42.032 94.1247 42.0804 93.6752 42.1726C90.5284 42.8181 88.1543 45.6087 88.1543 48.9437V48.9439V48.9441C88.1543 49.2044 88.1738 49.4621 88.2026 49.7181C88.2113 49.7957 88.2238 49.8722 88.2351 49.9492C88.2624 50.1345 88.2969 50.3179 88.339 50.4996C88.3566 50.5757 88.3727 50.6519 88.3929 50.7275C88.4581 50.9716 88.5324 51.2128 88.6236 51.4478C88.6274 51.4576 88.6324 51.4666 88.6362 51.4761C88.7259 51.7044 88.8308 51.9259 88.9443 52.1433C88.9777 52.2072 89.0138 52.2691 89.0492 52.3318C89.1448 52.5017 89.2475 52.6673 89.3573 52.8289C89.3954 52.8849 89.4321 52.9414 89.4719 52.9964C89.6227 53.2048 89.7815 53.408 89.9559 53.5996C88.9101 54.9275 87.7863 56.275 86.6007 57.6252C84.3946 55.2675 82.0248 52.9212 79.5212 50.6251C79.053 43.4144 78.0169 36.4691 76.5091 30.3878C82.4918 27.8582 87.7805 26.5097 91.8492 26.5097ZM79.7512 55.2343C81.3877 56.8111 82.9528 58.4037 84.4406 60.0011C82.9653 61.5871 81.4007 63.1793 79.7514 64.7671C79.8033 63.1957 79.8344 61.6056 79.8344 60C79.8344 58.3964 79.8033 56.8068 79.7512 55.2343ZM76.0732 47.5646C74.8826 46.5437 73.6639 45.5291 72.4215 44.53C70.474 42.9625 68.4567 41.4449 66.4221 39.9791C66.7191 39.198 66.8902 38.3712 66.8902 37.5199C66.8902 37.1707 66.8607 36.8257 66.8103 36.4855C66.7925 36.3654 66.7595 36.2494 66.7356 36.1308C66.6909 35.9101 66.644 35.691 66.5783 35.4769C66.5669 35.44 66.5632 35.4007 66.5512 35.364C68.9186 34.007 71.2588 32.7873 73.5408 31.7105C74.7059 36.5453 75.565 41.9343 76.0732 47.5646ZM59.9863 10.4C64.7044 10.4 69.5279 17.3322 72.7173 28.5693C70.1606 29.755 67.535 31.1205 64.8758 32.6474C63.5954 31.355 61.8547 30.6078 59.9785 30.6078C58.1104 30.6078 56.3735 31.3531 55.0922 32.6414C52.4213 31.1076 49.7946 29.7437 47.2482 28.5675C50.4468 17.3314 55.2732 10.4 59.9863 10.4ZM46.4243 31.7074C48.6968 32.7761 51.0361 33.9937 53.4125 35.3558C53.4004 35.3925 53.3966 35.4314 53.3851 35.4683C53.3162 35.6906 53.2661 35.9173 53.2199 36.146C53.1969 36.2591 53.1653 36.3699 53.1481 36.4843C53.0968 36.8255 53.0664 37.1709 53.0664 37.5199C53.0664 38.372 53.2398 39.2021 53.5414 39.9892C51.4943 41.4671 49.48 42.9839 47.5602 44.5293C46.3161 45.5294 45.0942 46.5472 43.8988 47.5726C44.4073 41.9222 45.264 36.5289 46.4243 31.7074ZM21.3219 28.9296C21.8858 28.2271 22.6527 27.6718 23.6081 27.2734C23.7218 27.6033 23.865 27.9179 24.0248 28.2222C24.0353 28.2421 24.0452 28.2621 24.0558 28.2818C25.0472 30.1257 26.8468 31.4527 28.983 31.8097C29.0329 31.8183 29.0831 31.8246 29.1333 31.832C29.4622 31.8796 29.7961 31.9121 30.1383 31.9121C30.4475 31.9121 30.7505 31.8853 31.0497 31.846C31.1089 31.8382 31.1681 31.8316 31.2268 31.8224C31.5142 31.7773 31.796 31.7158 32.071 31.6365C32.1225 31.6216 32.1724 31.6039 32.2235 31.5878C32.4861 31.5054 32.7429 31.4103 32.9912 31.2984C33.0158 31.2875 33.0414 31.2787 33.0659 31.2673C33.3277 31.1457 33.5779 31.0044 33.821 30.8521C33.8708 30.821 33.9202 30.79 33.9692 30.7576C34.2075 30.5996 34.4365 30.4293 34.6529 30.2435C34.6815 30.2191 34.7081 30.1925 34.7362 30.1675C34.9522 29.9757 35.157 29.772 35.3475 29.5544C35.3581 29.5421 35.3696 29.5312 35.3802 29.5189C35.5795 29.2878 35.7606 29.0412 35.9281 28.7839C35.947 28.755 35.9658 28.7261 35.9842 28.6968C36.1501 28.4337 36.3004 28.1599 36.43 27.873C36.4316 27.8695 36.4339 27.8664 36.4356 27.8628C38.6527 28.4972 41.01 29.3509 43.456 30.3853C41.9546 36.4459 40.9205 43.3953 40.4511 50.6337C37.958 52.9207 35.5889 55.264 33.3744 57.6257C22.5288 45.2531 17.5823 33.5804 21.3219 28.9296ZM40.1558 61.6507C40.0769 61.6689 39.999 61.6902 39.921 61.7113C39.854 61.7293 39.7859 61.7431 39.7195 61.7632C39.4458 61.8461 39.1792 61.9472 38.919 62.0636C38.8546 62.0925 38.7924 62.1261 38.7288 62.1572C38.5151 62.2609 38.3072 62.3759 38.1049 62.5021C38.068 62.525 38.0279 62.541 37.9914 62.5648C37.1812 61.749 36.3633 60.8896 35.5339 60.0013C37.0255 58.4039 38.5899 56.814 40.2211 55.2425C40.1692 56.8117 40.1383 58.3984 40.1383 60C40.1383 60.5558 40.1499 61.1013 40.1558 61.6507ZM28.1227 93.491C24.9027 93.491 22.6141 92.6761 21.3211 91.0695C17.5788 86.4154 22.5239 74.7453 33.3689 62.3796C34.1845 63.2496 34.9856 64.0785 35.7843 64.8816C35.1696 65.9269 34.8344 67.122 34.8344 68.3679C34.8344 71.9164 37.5203 74.8459 40.9627 75.2336C41.5163 80.34 42.3537 85.164 43.4595 89.614C37.478 92.1429 32.1904 93.491 28.1227 93.491ZM44.1348 74.8523C44.1612 74.8425 44.1855 74.8285 44.2118 74.8183C44.4408 74.7308 44.6655 74.6336 44.8833 74.5222C44.8961 74.5158 44.9094 74.5105 44.9221 74.5039C45.155 74.3832 45.3795 74.2474 45.597 74.1007C45.6417 74.0707 45.684 74.0378 45.7279 74.0068C45.7382 73.9996 45.7484 73.9921 45.7587 73.9847C46.3556 74.4814 46.9465 74.9796 47.5594 75.4711C50.6739 77.9765 53.8608 80.3169 57.0575 82.4711C53.4288 84.7255 49.8728 86.6769 46.4446 88.291C45.436 84.1197 44.6513 79.6252 44.1348 74.8523ZM59.9863 109.6C55.2764 109.6 50.4542 102.671 47.2582 91.4377C51.3628 89.5396 55.6371 87.1773 59.9964 84.399C62.7246 86.1412 65.4653 87.7408 68.1773 89.1757C68.0669 89.6675 68.0102 90.1726 68.0102 90.6879C68.0102 91.0238 68.0408 91.3541 68.0878 91.68C68.0998 91.7621 68.1186 91.8414 68.1335 91.9226C68.1788 92.1732 68.2359 92.4195 68.3078 92.6613C68.3311 92.739 68.3558 92.8156 68.3817 92.8923C68.4672 93.1464 68.567 93.3937 68.6809 93.6351C68.7053 93.6867 68.7269 93.7394 68.7526 93.7904C69.0472 94.3765 69.4208 94.9197 69.8713 95.4011C69.9201 95.4537 69.975 95.4998 70.0255 95.5507C70.1937 95.7197 70.3681 95.882 70.5545 96.0336C70.6514 96.1128 70.7525 96.1857 70.8538 96.2597C70.9356 96.3191 71.0106 96.3859 71.0953 96.4421C67.9805 104.815 63.9492 109.6 59.9863 109.6ZM74.5231 83.7957C74.4733 83.7986 74.4252 83.8105 74.3756 83.8144C74.2551 83.824 74.1351 83.8337 74.016 83.8494C73.9414 83.8593 73.8686 83.8744 73.7946 83.8867C73.7813 83.889 73.7679 83.8912 73.7546 83.8935C73.6826 83.906 73.6101 83.9152 73.5386 83.9298C73.3887 83.9605 73.2418 83.9992 73.0949 84.0394C73.0329 84.0566 72.9712 84.0734 72.9098 84.0921C72.6356 84.1757 72.3671 84.2734 72.1064 84.3898C72.0979 84.3937 72.0889 84.3966 72.0804 84.4005C71.7441 84.5523 71.4225 84.7332 71.1145 84.9371C71.0836 84.9576 71.0539 84.9796 71.0234 85.0005C70.8507 85.1189 70.6825 85.2433 70.5206 85.3775C70.4827 85.4087 70.4457 85.4404 70.4085 85.4724C70.3683 85.507 70.3298 85.5429 70.2903 85.5783C70.1481 85.7072 70.0121 85.8427 69.8801 85.9839C69.8343 86.0328 69.7856 86.0781 69.7412 86.1281C69.7148 86.158 69.69 86.189 69.6641 86.2191C69.6375 86.2504 69.6073 86.2777 69.5813 86.3093C67.3789 85.1412 65.1503 83.8546 62.926 82.4711C66.1395 80.3019 69.3258 77.9611 72.4215 75.4711C73.6676 74.4683 74.8896 73.4503 76.0833 72.4265C75.7317 76.3605 75.2098 80.1691 74.5231 83.7957ZM76.4036 67.8861C74.4978 69.5986 72.4894 71.3093 70.4153 72.9773C67.0241 75.7058 63.5215 78.2535 59.9934 80.5812C56.4841 78.272 52.9798 75.7248 49.5633 72.9757C48.9883 72.5144 48.4215 72.0503 47.8613 71.5851C47.8748 71.5597 47.8837 71.5322 47.8968 71.5066C47.9155 71.4699 47.9378 71.4349 47.9559 71.398C47.9763 71.356 47.9918 71.3119 48.0113 71.2697C48.0737 71.1347 48.1349 70.9992 48.1883 70.8601C48.198 70.8351 48.207 70.8099 48.2164 70.7847C48.2285 70.7521 48.2373 70.7183 48.2489 70.6855C48.3016 70.5369 48.354 70.3882 48.3964 70.2359C48.4068 70.1984 48.4129 70.1597 48.4226 70.122C48.4431 70.0431 48.4597 69.9634 48.4774 69.8837C48.4965 69.7978 48.5207 69.7132 48.5366 69.6265C48.5528 69.5378 48.5605 69.4472 48.5733 69.3578C48.5844 69.2796 48.5967 69.2023 48.6052 69.1236C48.6059 69.1168 48.6072 69.1101 48.608 69.1035C48.6115 69.0697 48.6186 69.0369 48.6216 69.0031C48.6216 69.0031 48.6217 69.0029 48.6217 69.0027C48.6407 68.7927 48.6504 68.5808 48.6504 68.3679C48.6504 68.148 48.6378 67.9308 48.6172 67.7156C48.6102 67.6419 48.598 67.5701 48.5886 67.4972C48.5706 67.3564 48.5507 67.2164 48.5242 67.0783C48.5082 66.9949 48.489 66.9128 48.47 66.8304C48.4408 66.7039 48.4088 66.5785 48.3727 66.4546C48.349 66.3734 48.3244 66.2929 48.2979 66.2132C48.2552 66.0843 48.2078 65.9582 48.1578 65.8326C48.1308 65.7652 48.1053 65.6972 48.0762 65.6308C48.007 65.4718 47.931 65.3168 47.8504 65.164C47.8353 65.1355 47.8223 65.1058 47.8068 65.0777C46.8863 63.3927 45.2831 62.1158 43.3465 61.6527C43.3406 61.1046 43.3383 60.5546 43.3383 60C43.3383 57.3203 43.4215 54.6802 43.5691 52.1218C45.4806 50.4035 47.4919 48.69 49.5656 47.0226C51.4172 45.5324 53.3531 44.0562 55.3277 42.6285C55.3341 42.6343 55.3412 42.639 55.3475 42.6449C55.3543 42.6507 55.36 42.658 55.3668 42.664C55.3993 42.6931 55.4359 42.7166 55.4689 42.7449C55.6207 42.8753 55.7768 42.9992 55.9385 43.1154C56.0109 43.1675 56.0848 43.2164 56.159 43.2656C56.3005 43.3593 56.4452 43.447 56.5929 43.53C56.6686 43.5726 56.743 43.6164 56.8202 43.656C57.0355 43.7666 57.2548 43.8687 57.4804 43.9562C57.5217 43.9722 57.5647 43.9835 57.6062 43.9988C57.8017 44.0703 58.0003 44.1332 58.2018 44.1867C58.2848 44.2089 58.3687 44.2269 58.4526 44.246C58.6255 44.2853 58.7997 44.3175 58.9757 44.3435C59.0554 44.3552 59.1345 44.3683 59.2148 44.3771C59.4675 44.4054 59.7218 44.4242 59.9785 44.4242C60.2361 44.4242 60.4913 44.4052 60.7449 44.3769C60.8259 44.3679 60.9055 44.3548 60.9859 44.3429C61.1619 44.3171 61.336 44.2847 61.5089 44.2455C61.5939 44.2261 61.6788 44.2078 61.7629 44.1855C61.9639 44.1318 62.1618 44.0689 62.3568 43.9976C62.4023 43.9808 62.4489 43.9677 62.4941 43.9503C62.7173 43.8632 62.9345 43.7619 63.1477 43.6523C63.2242 43.6128 63.2979 43.5693 63.3729 43.5271C63.5231 43.4425 63.6701 43.3531 63.8139 43.2576C63.8858 43.2097 63.9574 43.1623 64.0275 43.1117C64.1969 42.9898 64.3606 42.8597 64.5191 42.7222C64.5518 42.6939 64.5868 42.6687 64.619 42.6398C64.6261 42.6334 64.6339 42.6279 64.641 42.6214C66.5953 44.0312 68.5356 45.5097 70.4156 47.023C72.492 48.6927 74.5001 50.4031 76.4034 52.1134C76.5511 54.6769 76.6344 57.3203 76.6344 60C76.6344 62.6845 76.5511 65.3269 76.4036 67.8861ZM98.6508 91.0703C97.3824 92.6507 95.0281 93.4863 91.8418 93.4863C89.0067 93.4863 85.6227 92.8523 81.7754 91.6015C81.779 91.5738 81.7776 91.5449 81.7809 91.517C81.8128 91.2455 81.8344 90.9703 81.8344 90.6879C81.8344 87.8589 80.1432 85.3998 77.6575 84.3455C78.5534 79.6066 79.1824 74.5882 79.5181 69.3777C82.0498 67.0562 84.4205 64.7097 86.601 62.3765C97.4482 74.7443 102.394 86.4154 98.6508 91.0703Z" fill="white"/>
</svg>
