<svg width="83" height="76" viewBox="0 0 83 76" fill="none" xmlns="http://www.w3.org/2000/svg">
<path d="M70.9165 45.3573V44.3633C72.0712 43.9951 73.0447 43.2697 73.6646 42.3155C74.2845 41.3613 74.5109 40.2398 74.3039 39.1493C74.0968 38.0587 73.4696 37.0695 72.5332 36.3566C71.5967 35.6436 70.4114 35.2529 69.1868 35.2535H62.2681C61.0436 35.2529 59.8582 35.6436 58.9218 36.3566C57.9853 37.0695 57.3581 38.0587 57.1511 39.1493C56.944 40.2398 57.1705 41.3613 57.7904 42.3155C58.4103 43.2697 59.3837 43.9951 60.5385 44.3633V45.3573C58.7404 45.8651 57.0461 46.6348 55.5224 47.6359L51.8901 39.6295V32.1278C53.2664 32.1278 54.5862 31.6338 55.5593 30.7546C56.5324 29.8753 57.0791 28.6827 57.0791 27.4393C57.0791 26.1958 56.5324 25.0032 55.5593 24.124C54.5862 23.2447 53.2664 22.7507 51.8901 22.7507H41.5122C40.136 22.7507 38.8161 23.2447 37.843 24.124C36.8699 25.0032 36.3232 26.1958 36.3232 27.4393C36.3232 28.6827 36.8699 29.8753 37.843 30.7546C38.8161 31.6338 40.136 32.1278 41.5122 32.1278V39.667L27.7786 73.7901C27.6835 74.0262 27.6528 74.2796 27.6891 74.5287C27.7255 74.7779 27.8277 75.0154 27.9873 75.2212C28.1468 75.427 28.359 75.5951 28.6057 75.711C28.8524 75.827 29.1264 75.8875 29.4045 75.8875H65.7275C69.8557 75.8823 73.8457 74.5431 76.9767 72.112C80.1077 69.6809 82.173 66.3181 82.7997 62.6313C83.4263 58.9444 82.5728 55.1766 80.3935 52.0087C78.2142 48.8407 74.8527 46.4815 70.9165 45.3573ZM62.6521 48.0782C63.0346 47.9995 63.3762 47.8057 63.6207 47.5285C63.8652 47.2513 63.9982 46.9073 63.9978 46.5529V43.0677C63.9978 42.6532 63.8156 42.2557 63.4912 41.9626C63.1668 41.6695 62.7269 41.5049 62.2681 41.5049C61.8094 41.5049 61.3695 41.3402 61.0451 41.0471C60.7207 40.754 60.5385 40.3565 60.5385 39.942C60.5385 39.5275 60.7207 39.13 61.0451 38.8369C61.3695 38.5438 61.8094 38.3792 62.2681 38.3792H69.1868C69.6455 38.3792 70.0855 38.5438 70.4099 38.8369C70.7342 39.13 70.9165 39.5275 70.9165 39.942C70.9165 40.3565 70.7342 40.754 70.4099 41.0471C70.0855 41.3402 69.6455 41.5049 69.1868 41.5049C68.7281 41.5049 68.2881 41.6695 67.9637 41.9626C67.6394 42.2557 67.4571 42.6532 67.4571 43.0677V46.5529C67.4568 46.9073 67.5897 47.2513 67.8343 47.5285C68.0788 47.8057 68.4203 47.9995 68.8028 48.0782C71.2301 48.568 73.4648 49.6438 75.2686 51.1909C77.0725 52.7379 78.378 54.6983 79.0459 56.8629C78.2642 57.2729 77.5131 57.7287 76.7973 58.2273C75.18 59.5344 73.0863 60.2569 70.9165 60.2569C68.7466 60.2569 66.6529 59.5344 65.0356 58.2273C62.8375 56.4843 60.0034 55.5379 57.0791 55.5705C55.5841 55.5448 54.0938 55.7293 52.6616 56.1175C53.4317 54.1198 54.7536 52.3329 56.5019 50.926C58.2502 49.5192 60.3672 48.5389 62.6521 48.0782ZM39.7825 27.4393C39.7825 27.0248 39.9647 26.6273 40.2891 26.3342C40.6135 26.0411 41.0534 25.8764 41.5122 25.8764H51.8901C52.3489 25.8764 52.7888 26.0411 53.1132 26.3342C53.4376 26.6273 53.6198 27.0248 53.6198 27.4393C53.6198 27.8538 53.4376 28.2513 53.1132 28.5444C52.7888 28.8375 52.3489 29.0021 51.8901 29.0021H50.1605C49.7017 29.0021 49.2618 29.1668 48.9374 29.4599C48.613 29.7529 48.4308 30.1505 48.4308 30.565V39.942C48.4305 40.1451 48.474 40.3463 48.5588 40.5343L50.413 44.6306H43.1951L44.8677 40.4765C44.9357 40.305 44.9708 40.1242 44.9715 39.942V30.565C44.9715 30.1505 44.7893 29.7529 44.4649 29.4599C44.1405 29.1668 43.7006 29.0021 43.2418 29.0021H41.5122C41.0534 29.0021 40.6135 28.8375 40.2891 28.5444C39.9647 28.2513 39.7825 27.8538 39.7825 27.4393ZM31.8745 72.7618L41.9377 47.7562H51.8296L52.7861 49.8708C49.9936 52.7076 48.4447 56.3687 48.4308 60.1652C48.4308 60.2121 48.4308 60.2465 48.4308 60.259C48.4333 62.6891 49.0643 65.0851 50.2733 67.2558C51.4823 69.4265 53.236 71.312 55.3945 72.7618H31.8745ZM65.7275 72.7618C62.0712 72.7585 58.5647 71.4492 55.9726 69.1194C53.3805 66.7896 51.913 63.6282 51.8901 60.3246C51.9991 59.7495 53.2064 58.6962 57.0791 58.6962C59.2554 58.666 61.3612 59.3934 62.96 60.7279C65.1767 62.4423 67.9986 63.3845 70.9165 63.3845C73.8344 63.3845 76.6562 62.4423 78.8729 60.7279C79.1099 60.5716 79.3382 60.4153 79.5648 60.259C79.5607 63.5738 78.1015 66.7518 75.5074 69.0957C72.9133 71.4396 69.3961 72.758 65.7275 72.7618Z" fill="white"/>
<path d="M3.45934 71.1989V16.4993H12.1077C13.4839 16.4993 14.8037 16.0053 15.7769 15.1261C16.75 14.2468 17.2967 13.0542 17.2967 11.8108V3.99654H58.8087C59.2674 3.99654 59.7074 4.1612 60.0317 4.45429C60.3561 4.74738 60.5383 5.14489 60.5383 5.55939V32.1278H63.9977V5.55939C63.9977 4.31591 63.451 3.12336 62.4779 2.24409C61.5047 1.36482 60.1849 0.87085 58.8087 0.87085L15.567 0.87085C15.1083 0.870938 14.6684 1.03565 14.3441 1.32876L0.506797 13.8315C0.34571 13.9763 0.217981 14.1485 0.130993 14.3382C0.0440054 14.5278 -0.000515308 14.7312 4.49978e-06 14.9365V71.1989C4.49978e-06 72.4424 0.546701 73.6349 1.51983 74.5142C2.49295 75.3935 3.8128 75.8875 5.189 75.8875H24.2153V72.7618H5.189C4.73027 72.7618 4.29032 72.5971 3.96595 72.304C3.64157 72.0109 3.45934 71.6134 3.45934 71.1989ZM12.1077 13.3736H5.90509L13.8373 6.20641V11.8108C13.8373 12.2253 13.6551 12.6228 13.3307 12.9159C13.0064 13.209 12.5664 13.3736 12.1077 13.3736Z" fill="white"/>
<path d="M57.079 14.9365V11.8111C57.079 10.5678 56.5323 9.37534 55.5592 8.49616C54.586 7.61697 53.2662 7.12305 51.89 7.12305H48.4307V10.2484H51.89C52.3487 10.2484 52.7887 10.4131 53.113 10.7061C53.4374 10.9992 53.6197 11.3967 53.6197 11.8111V14.9365H57.079Z" fill="white"/>
<path d="M44.9711 7.12305H41.5117V10.248H44.9711V7.12305Z" fill="white"/>
<path d="M32.8639 25.8767H17.2969V29.0029H32.8639V25.8767Z" fill="white"/>
<path d="M32.8635 33.6909H10.3779V36.8164H32.8635V33.6909Z" fill="white"/>
<path d="M32.8635 41.5049H10.3779V44.6306H32.8635V41.5049Z" fill="white"/>
<path d="M32.8635 49.3191H10.3779V52.4451H32.8635V49.3191Z" fill="white"/>
<path d="M13.8372 25.8767H10.3779V29.0029H13.8372V25.8767Z" fill="white"/>
<path d="M13.8372 63.385V61.8221C13.8372 61.4075 14.0195 61.01 14.3439 60.7169C14.6682 60.4238 15.1082 60.2591 15.5669 60.2591H29.4042V57.1333H15.5669C14.1907 57.1333 12.8709 57.6273 11.8977 58.5066C10.9246 59.3859 10.3779 60.5785 10.3779 61.8221V63.385C10.3779 64.6285 10.9246 65.8211 11.8977 66.7004C12.8709 67.5797 14.1907 68.0737 15.5669 68.0737H24.2152V64.9479H15.5669C15.1082 64.9479 14.6682 64.7832 14.3439 64.4901C14.0195 64.197 13.8372 63.7995 13.8372 63.385Z" fill="white"/>
</svg>
