<svg width="18" height="18" viewBox="0 0 18 18" fill="none" xmlns="http://www.w3.org/2000/svg">
<g clip-path="url(#clip0_738_1286)">
<g filter="url(#filter0_d_738_1286)">
<path d="M14.9991 8.99988C14.539 8.99979 14.085 9.1057 13.6725 9.30938C13.2599 9.51307 12.8998 9.80905 12.6201 10.1744L12.5676 10.1519C12.7739 9.51289 12.8048 8.83024 12.6571 8.17522C12.5094 7.52021 12.1886 6.91685 11.7281 6.42817C11.2677 5.93949 10.6844 5.58341 10.0393 5.39712C9.39423 5.21083 8.71095 5.20116 8.06084 5.36913L7.99259 5.24013C8.53737 4.75542 8.88669 4.08868 8.97509 3.36486C9.06349 2.64104 8.88489 1.90983 8.47278 1.30826C8.06066 0.706687 7.44331 0.276052 6.73642 0.0970584C6.02953 -0.081935 5.28163 0.00299946 4.63288 0.335944C3.98413 0.668889 3.47906 1.22699 3.21233 1.90565C2.9456 2.58432 2.93552 3.33696 3.18397 4.02252C3.43242 4.70809 3.92236 5.27952 4.56196 5.62973C5.20155 5.97993 5.94691 6.08487 6.65834 5.92488L6.71309 6.02763C5.96313 6.60313 5.45863 7.44102 5.30088 8.37308C5.14312 9.30515 5.34379 10.2624 5.86259 11.0526L4.44884 12.3749C3.80982 12.0218 3.06398 11.9139 2.35108 12.0713C1.63819 12.2288 1.00718 12.6408 0.576288 13.2301C0.145398 13.8195 -0.0557937 14.5458 0.0104141 15.2728C0.0766218 15.9999 0.405685 16.6778 0.93594 17.1797C1.4662 17.6815 2.16125 17.9728 2.89085 17.9988C3.62046 18.0249 4.33454 17.7841 4.89928 17.3214C5.46402 16.8587 5.84066 16.206 5.95863 15.4855C6.0766 14.765 5.92779 14.0263 5.54009 13.4076L6.91859 12.1191C7.6757 12.6252 8.59127 12.838 9.49396 12.7178C10.3966 12.5975 11.2246 12.1525 11.8228 11.4659L12.0321 11.5551C11.9413 12.1607 12.038 12.7796 12.3092 13.3286C12.5805 13.8776 13.0132 14.3305 13.5493 14.6264C14.0855 14.9223 14.6993 15.047 15.3084 14.9839C15.9175 14.9207 16.4927 14.6727 16.9567 14.2731C17.4207 13.8735 17.7513 13.3414 17.9041 12.7484C18.0568 12.1554 18.0245 11.5299 17.8114 10.9558C17.5983 10.3817 17.2146 9.88662 16.7119 9.53698C16.2091 9.18733 15.6114 8.99991 14.9991 8.99988V8.99988ZM4.49909 2.99988C4.49909 2.70321 4.58706 2.4132 4.75189 2.16652C4.91671 1.91985 5.15098 1.72759 5.42506 1.61406C5.69915 1.50053 6.00075 1.47082 6.29173 1.5287C6.5827 1.58658 6.84997 1.72944 7.05975 1.93922C7.26953 2.149 7.41239 2.41627 7.47027 2.70724C7.52815 2.99822 7.49844 3.29982 7.38491 3.5739C7.27138 3.84799 7.07912 4.08226 6.83245 4.24708C6.58577 4.41191 6.29576 4.49988 5.99909 4.49988C5.60127 4.49988 5.21973 4.34184 4.93843 4.06054C4.65713 3.77924 4.49909 3.3977 4.49909 2.99988ZM2.99909 16.4999C2.70242 16.4999 2.41241 16.4119 2.16573 16.2471C1.91906 16.0823 1.7268 15.848 1.61327 15.5739C1.49974 15.2998 1.47003 14.9982 1.52791 14.7072C1.58579 14.4163 1.72865 14.149 1.93843 13.9392C2.14821 13.7294 2.41548 13.5866 2.70645 13.5287C2.99743 13.4708 3.29903 13.5005 3.57312 13.6141C3.8472 13.7276 4.08147 13.9199 4.24629 14.1665C4.41112 14.4132 4.49909 14.7032 4.49909 14.9999C4.49909 15.3977 4.34105 15.7792 4.05975 16.0605C3.77845 16.3418 3.39691 16.4999 2.99909 16.4999ZM8.99909 11.2499C8.51211 11.2489 8.03858 11.09 7.64962 10.797C7.26067 10.5039 6.97728 10.0926 6.84202 9.62481C6.70676 9.15699 6.72694 8.65791 6.89951 8.20253C7.07209 7.74715 7.38775 7.36006 7.79909 7.09938L8.10434 6.93663C8.41106 6.80321 8.74367 6.73985 9.07795 6.75117C9.41224 6.76249 9.7398 6.84819 10.0368 7.00205C10.3338 7.1559 10.5927 7.37404 10.7948 7.64058C10.9969 7.90712 11.137 8.21536 11.2049 8.54287C11.2729 8.87037 11.2669 9.20891 11.1876 9.53383C11.1082 9.85876 10.9574 10.1619 10.7461 10.4212C10.5348 10.6805 10.2683 10.8894 9.96614 11.0328C9.66393 11.1761 9.33357 11.2503 8.99909 11.2499V11.2499ZM14.9991 13.4999C14.7024 13.4999 14.4124 13.4119 14.1657 13.2471C13.9191 13.0823 13.7268 12.848 13.6133 12.5739C13.4997 12.2998 13.47 11.9982 13.5279 11.7072C13.5858 11.4163 13.7287 11.149 13.9384 10.9392C14.1482 10.7294 14.4155 10.5866 14.7065 10.5287C14.9974 10.4708 15.299 10.5005 15.5731 10.6141C15.8472 10.7276 16.0815 10.9199 16.2463 11.1665C16.4111 11.4132 16.4991 11.7032 16.4991 11.9999C16.4991 12.3977 16.3411 12.7792 16.0597 13.0605C15.7784 13.3418 15.3969 13.4999 14.9991 13.4999Z" fill="#374957"/>
<path d="M12.4231 10.634L12.7806 10.7872L13.0171 10.4783C13.2501 10.174 13.5501 9.92741 13.8938 9.75772C14.2375 9.58804 14.6157 9.49981 14.999 9.49988L14.9991 8.99988L14.9991 9.49988C15.5094 9.49991 16.0074 9.65609 16.4264 9.94746C16.8453 10.2388 17.1651 10.6514 17.3427 11.1298C17.5203 11.6082 17.5472 12.1295 17.4199 12.6237C17.2925 13.1178 17.017 13.5612 16.6304 13.8942C16.2437 14.2272 15.7644 14.4339 15.2568 14.4865C14.7492 14.5392 14.2377 14.4352 13.7909 14.1886C13.3442 13.9421 12.9835 13.5647 12.7575 13.1072C12.5315 12.6496 12.4509 12.1339 12.5266 11.6293L12.5839 11.2469L12.2283 11.0952L12.019 11.006L11.6847 10.8634L11.4459 11.1374C10.9275 11.7323 10.2101 12.118 9.42794 12.2221C8.64578 12.3263 7.85246 12.1419 7.19644 11.7034L6.86681 11.4831L6.57716 11.7539L5.19866 13.0424L4.89751 13.3238L5.11642 13.6732C5.4395 14.1887 5.56351 14.8043 5.4652 15.4047C5.3669 16.0051 5.05303 16.5491 4.58241 16.9346C4.11179 17.3202 3.51672 17.5209 2.90872 17.4992C2.30072 17.4774 1.7215 17.2347 1.27963 16.8165C0.837746 16.3983 0.563527 15.8334 0.508354 15.2275C0.453181 14.6216 0.620841 14.0164 0.979916 13.5252C1.33899 13.0341 1.86484 12.6908 2.45891 12.5596C3.05299 12.4284 3.67452 12.5183 4.20704 12.8125L4.52504 12.9882L4.79038 12.7401L6.20413 11.4178L6.51164 11.1302L6.28056 10.7782C5.83104 10.0935 5.65718 9.26411 5.79386 8.45652C5.93055 7.64893 6.36768 6.92294 7.01748 6.4243L7.35358 6.16639L7.15436 5.7925L7.09961 5.68975L6.92041 5.35346L6.54864 5.43706C5.95593 5.57036 5.33495 5.48293 4.80209 5.19116C4.26922 4.8994 3.86105 4.42332 3.65405 3.85216C3.44706 3.281 3.45546 2.65396 3.67768 2.08855C3.8999 1.52313 4.32069 1.05817 4.86118 0.780783C5.40166 0.503398 6.02476 0.432637 6.61369 0.581761C7.20261 0.730885 7.71694 1.08966 8.06029 1.59084C8.40363 2.09202 8.55243 2.70122 8.47878 3.30425C8.40513 3.90728 8.1141 4.46276 7.66023 4.86658L7.36722 5.12728L7.55063 5.47395L7.61888 5.60295L7.80356 5.95202L8.18592 5.85323C8.74934 5.70766 9.34152 5.71604 9.9006 5.87749C10.4597 6.03894 10.9652 6.34755 11.3642 6.77107C11.7633 7.19459 12.0414 7.7175 12.1694 8.28518C12.2973 8.85286 12.2705 9.44449 12.0918 9.99828L11.9518 10.4319L12.3706 10.6115L12.4231 10.634ZM7.56385 6.65817L7.54729 6.667L7.53145 6.67705C7.0287 6.99565 6.64289 7.46877 6.43196 8.02534C6.22103 8.58192 6.19638 9.1919 6.36169 9.76369C6.52701 10.3355 6.87337 10.8382 7.34876 11.1963C7.82415 11.5545 8.40291 11.7487 8.99811 11.7499L8.99909 11.2505L8.99848 11.7499C9.40729 11.7504 9.81107 11.6597 10.1804 11.4845C10.5498 11.3093 10.8754 11.054 11.1337 10.737C11.3919 10.4201 11.5763 10.0496 11.6733 9.65249C11.7703 9.25536 11.7775 8.84159 11.6945 8.44131C11.6115 8.04102 11.4402 7.66428 11.1933 7.33851C10.9463 7.01274 10.6298 6.74613 10.2668 6.55808C9.9038 6.37004 9.50344 6.26529 9.09487 6.25146C8.68629 6.23763 8.27978 6.31506 7.9049 6.47813L7.88666 6.48606L7.8691 6.49542L7.56385 6.65817ZM4.33615 1.88874C4.11639 2.21764 3.99909 2.60432 3.99909 2.99988C3.99909 3.53031 4.2098 4.03902 4.58488 4.41409C4.95995 4.78917 5.46866 4.99988 5.99909 4.99988C6.39465 4.99988 6.78133 4.88258 7.11023 4.66282C7.43913 4.44306 7.69547 4.1307 7.84685 3.76525C7.99823 3.39979 8.03783 2.99766 7.96066 2.6097C7.88349 2.22174 7.69301 1.86537 7.4133 1.58567C7.1336 1.30596 6.77723 1.11548 6.38927 1.03831C6.00131 0.961139 5.59918 1.00075 5.23372 1.15212C4.86827 1.3035 4.55591 1.55984 4.33615 1.88874ZM1.88795 16.6628C2.21685 16.8826 2.60353 16.9999 2.99909 16.9999C3.52952 16.9999 4.03823 16.7892 4.4133 16.4141C4.78838 16.039 4.99909 15.5303 4.99909 14.9999C4.99909 14.6043 4.88179 14.2176 4.66203 13.8887C4.44227 13.5598 4.12991 13.3035 3.76446 13.1521C3.399 13.0007 2.99687 12.9611 2.60891 13.0383C2.22095 13.1155 1.86458 13.306 1.58488 13.5857C1.30517 13.8654 1.11469 14.2217 1.03752 14.6097C0.960349 14.9977 0.999956 15.3998 1.15133 15.7652C1.30271 16.1307 1.55905 16.4431 1.88795 16.6628ZM13.8879 13.6628C14.2168 13.8826 14.6035 13.9999 14.9991 13.9999C15.5295 13.9999 16.0382 13.7892 16.4133 13.4141C16.7884 13.039 16.9991 12.5303 16.9991 11.9999C16.9991 11.6043 16.8818 11.2176 16.662 10.8887C16.4423 10.5598 16.1299 10.3035 15.7645 10.1521C15.399 10.0007 14.9969 9.96114 14.6089 10.0383C14.2209 10.1155 13.8646 10.306 13.5849 10.5857C13.3052 10.8654 13.1147 11.2217 13.0375 11.6097C12.9603 11.9977 13 12.3998 13.1513 12.7652C13.3027 13.1307 13.5591 13.4431 13.8879 13.6628Z" stroke="black"/>
</g>
</g>
<defs>
<filter id="filter0_d_738_1286" x="-4.00195" y="0.00538433" width="26" height="25.9954" filterUnits="userSpaceOnUse" color-interpolation-filters="sRGB">
<feFlood flood-opacity="0" result="BackgroundImageFix"/>
<feColorMatrix in="SourceAlpha" type="matrix" values="0 0 0 0 0 0 0 0 0 0 0 0 0 0 0 0 0 0 127 0" result="hardAlpha"/>
<feOffset dy="4"/>
<feGaussianBlur stdDeviation="2"/>
<feComposite in2="hardAlpha" operator="out"/>
<feColorMatrix type="matrix" values="0 0 0 0 0 0 0 0 0 0 0 0 0 0 0 0 0 0 0.25 0"/>
<feBlend mode="normal" in2="BackgroundImageFix" result="effect1_dropShadow_738_1286"/>
<feBlend mode="normal" in="SourceGraphic" in2="effect1_dropShadow_738_1286" result="shape"/>
</filter>
<clipPath id="clip0_738_1286">
<rect width="18" height="18" fill="white"/>
</clipPath>
</defs>
</svg>
