<svg width="24" height="24" viewBox="0 0 24 24" fill="none" xmlns="http://www.w3.org/2000/svg">
<path d="M1 21.1355H0.5C0.5 21.3236 0.605638 21.4959 0.773362 21.5812L1 21.1355ZM4.66658 23L4.43994 23.4457C4.58235 23.5181 4.75079 23.5181 4.8932 23.4457L4.66658 23ZM1 16.2884L0.773389 15.8427C0.60565 15.9279 0.5 16.1002 0.5 16.2884H1ZM4.66685 9.57616L4.44024 9.13046C4.27251 9.21574 4.16686 9.38797 4.16685 9.57613L4.66685 9.57616ZM8.3337 2.8648L8.10703 2.41912C7.93934 2.50441 7.83371 2.67662 7.8337 2.86477L8.3337 2.8648ZM15.6671 2.8648H16.1671C16.1671 2.67664 16.0615 2.50441 15.8938 2.41912L15.6671 2.8648ZM12.0003 1L12.2269 0.554322C12.0845 0.48189 11.916 0.481893 11.7736 0.554329L12.0003 1ZM19.3337 9.57616H19.8337C19.8337 9.38797 19.728 9.21572 19.5603 9.13045L19.3337 9.57616ZM15.6666 7.71192L15.8932 7.26621C15.7508 7.19382 15.5823 7.19383 15.44 7.26623L15.6666 7.71192ZM11.9997 23L11.7731 23.4457C11.9155 23.5181 12.0839 23.5181 12.2263 23.4457L11.9997 23ZM11.9997 14.4241L12.2263 13.9784C12.0839 13.906 11.9155 13.906 11.7731 13.9784L11.9997 14.4241ZM19.3332 23L19.1065 23.4457C19.2489 23.5181 19.4174 23.5181 19.5598 23.4457L19.3332 23ZM23 16.2884H23.5C23.5 16.1002 23.3943 15.9279 23.2266 15.8427L23 16.2884ZM19.3332 14.4241L19.5597 13.9784C19.4174 13.906 19.2489 13.906 19.1065 13.9784L19.3332 14.4241ZM15.6671 7.71192L15.8937 8.15763C16.0615 8.07234 16.1671 7.9001 16.1671 7.71192H15.6671ZM19.3337 14.4241L19.5603 14.8698C19.728 14.7846 19.8337 14.6123 19.8337 14.4241H19.3337ZM23 21.1355L23.2266 21.5812C23.3944 21.4959 23.5 21.3237 23.5 21.1355H23ZM0.773362 21.5812L4.43994 23.4457L4.89321 22.5543L1.22664 20.6898L0.773362 21.5812ZM5.16657 23V18.1529H4.16658V23H5.16657ZM4.89321 17.7072L1.22664 15.8427L0.773362 16.734L4.43994 18.5986L4.89321 17.7072ZM0.5 16.2884V21.1355H1.5V16.2884H0.5ZM8.1068 15.8427L4.43995 17.7072L4.8932 18.5986L8.56005 16.734L8.1068 15.8427ZM1.22661 16.7341L4.89319 14.8698L4.43996 13.9784L0.773389 15.8427L1.22661 16.7341ZM4.43998 14.8698L8.10683 16.7341L8.56002 15.8427L4.89317 13.9784L4.43998 14.8698ZM8.83343 16.2884V11.4404H7.83343V16.2884H8.83343ZM8.56004 10.9947L4.89346 9.13046L4.44024 10.0219L8.10681 11.8861L8.56004 10.9947ZM4.16685 9.57613L4.16658 14.4241L5.16657 14.4242L5.16685 9.57619L4.16685 9.57613ZM11.7737 9.13045L8.10683 10.9947L8.56002 11.8861L12.2269 10.0219L11.7737 9.13045ZM4.89346 10.0219L8.56004 8.15762L8.10681 7.26622L4.44024 9.13046L4.89346 10.0219ZM8.10683 8.15763L11.7737 10.0219L12.2269 9.13045L8.56002 7.26622L8.10683 8.15763ZM12.5003 9.57616V4.72847H11.5003V9.57616H12.5003ZM12.2268 4.28275L8.56026 2.41907L8.10714 3.31052L11.7737 5.1742L12.2268 4.28275ZM7.8337 2.86477L7.83343 7.71189L8.83343 7.71195L8.8337 2.86482L7.8337 2.86477ZM15.4406 2.41906L11.7737 4.28274L12.2268 5.17421L15.8937 3.31053L15.4406 2.41906ZM8.56037 3.31047L12.2269 1.44567L11.7736 0.554329L8.10703 2.41912L8.56037 3.31047ZM11.7736 1.44568L15.4405 3.31047L15.8938 2.41912L12.2269 0.554322L11.7736 1.44568ZM11.7737 14.8698L15.44 16.734L15.8932 15.8427L12.2269 13.9784L11.7737 14.8698ZM16.1666 16.2884V11.4404H15.1666V16.2884H16.1666ZM15.8932 10.9947L12.2269 9.13047L11.7737 10.0218L15.44 11.8861L15.8932 10.9947ZM11.5003 9.57616V14.4241H12.5003V9.57616H11.5003ZM19.1071 9.13045L15.44 10.9947L15.8932 11.8861L19.5603 10.0219L19.1071 9.13045ZM12.2269 10.0218L15.8932 8.15761L15.44 7.26623L11.7737 9.13047L12.2269 10.0218ZM15.44 8.15763L19.1071 10.0219L19.5603 9.13045L15.8932 7.26621L15.44 8.15763ZM8.10677 21.5812L11.7731 23.4457L12.2264 22.5543L8.56008 20.6898L8.10677 21.5812ZM12.4997 23V18.1529H11.4997V23H12.4997ZM12.2264 17.7072L8.56008 15.8427L8.10677 16.734L11.7731 18.5986L12.2264 17.7072ZM7.83343 16.2884V21.1355H8.83343V16.2884H7.83343ZM15.44 15.8427L11.7731 17.7072L12.2263 18.5986L15.8932 16.734L15.44 15.8427ZM8.56005 16.734L12.2263 14.8698L11.7731 13.9784L8.1068 15.8427L8.56005 16.734ZM11.7731 14.8698L15.44 16.7341L15.8932 15.8427L12.2263 13.9784L11.7731 14.8698ZM15.4399 21.5812L19.1065 23.4457L19.5598 22.5543L15.8932 20.6898L15.4399 21.5812ZM19.8332 23V18.1529H18.8332V23H19.8332ZM19.5598 17.7072L15.8932 15.8427L15.4399 16.734L19.1065 18.5986L19.5598 17.7072ZM15.1666 16.2884V21.1355H16.1666V16.2884H15.1666ZM22.7734 15.8427L19.1065 17.7072L19.5598 18.5986L23.2266 16.734L22.7734 15.8427ZM15.8932 16.7341L19.5598 14.8698L19.1065 13.9784L15.44 15.8427L15.8932 16.7341ZM19.1066 14.8698L22.7734 16.7341L23.2266 15.8427L19.5597 13.9784L19.1066 14.8698ZM8.1068 20.6898L4.43995 22.5543L4.8932 23.4457L8.56005 21.5812L8.1068 20.6898ZM11.7737 13.9784L8.10683 15.8427L8.56002 16.7341L12.2269 14.8698L11.7737 13.9784ZM15.4405 7.26622L11.7737 9.13045L12.2269 10.0219L15.8937 8.15763L15.4405 7.26622ZM15.1671 2.8648V7.71192H16.1671V2.8648H15.1671ZM19.1071 13.9784L15.44 15.8426L15.8932 16.7341L19.5603 14.8698L19.1071 13.9784ZM18.8337 9.57616V14.4241H19.8337V9.57616H18.8337ZM15.44 20.6898L11.7731 22.5543L12.2263 23.4457L15.8932 21.5812L15.44 20.6898ZM22.7734 20.6898L19.1065 22.5543L19.5598 23.4457L23.2266 21.5812L22.7734 20.6898ZM22.5 16.2884V21.1355H23.5V16.2884H22.5Z" fill="white"/>
</svg>
