<svg id="eADbWfncXkl1" xmlns="http://www.w3.org/2000/svg" xmlns:xlink="http://www.w3.org/1999/xlink" viewBox="0 0 100 100" shape-rendering="geometricPrecision" text-rendering="geometricPrecision"><style><![CDATA[#eADbWfncXkl90_to {animation: eADbWfncXkl90_to__to 1600ms linear infinite normal forwards}@keyframes eADbWfncXkl90_to__to { 0% {transform: translate(66.737572px,57.624731px)} 25% {transform: translate(66.737572px,63.624731px)} 50% {transform: translate(66.737572px,57.624731px)} 75% {transform: translate(66.737572px,52.624731px)} 100% {transform: translate(66.737572px,57.624731px)}}]]></style><defs><path id="eADbWfncXkl2" d="M56.92,16.84h-9l1.19,3.83h8.69v14.59l1.68,5.39v-20.85c-.01-1.63-1.15-2.96-2.56-2.96Z"/></defs><g><g><g><g><path d="M43,38.99c.01.1.03.22.04.31c0,.01,0,.01,0,.02-.01-.14-.03-.25-.04-.33Z" fill="#f7be89"/></g><g><path d="M43,38.99c-.03-.21-.05-.33,0,0v0Z" fill="#f7be89"/></g><g><path d="M43.07,39.49c0-.02-.01-.07-.02-.16c0,0,0,0,0-.01c0,.08.01.14.02.17Z" fill="#f7be89"/></g><g><polygon points="43.05,39.33 43.04,39.32 43.04,39.32" fill="#f7be89"/></g><g><path d="M43.04,39.32c0-.01,0-.01,0-.02c0,.01,0,.02,0,.02v0Z" fill="#f7be89"/></g><g><path d="M36.56,21.2c.33-.33,1.47-2.31,1.47-2.31s-.62-.89-1.11-1.25c-.7.49-1.36,2.06-1.81,3.3l.56.26c-.01,0,.56.32.89,0Z" fill="#ffd7b6"/></g><g><path d="M41.72,53.97c-1.41,0-2.56-1.33-2.56-2.96v-16.16c-1.36.71-2.6,1.47-2.6,1.47v-8.04c0,0,1.88-2.77,2.6-5.07v-2.94c-.22-1.02-.66-2.03-1.44-2.63-.27-.21-.54-.18-.81.01.49.36,1.11,1.25,1.11,1.25s-1.14,1.99-1.47,2.31c-.33.33-.9,0-.9,0l-.56-.26c-.3.82-.22.66-.3.82-1.08,2.23-3.27,1.94-3.43,4.38-.2,3.06-3.45,8.2-2.67,10.85.73,2.46.19,5.13.16,7.66-.01.69-.53,1.68-.52,2.17-1.22,1.37-7.98,5.6-7.98,5.6l7.88,12.49c0,0,7.95-6.06,11.76-6.81c5.78-1.13,7.21-2.87,8.66-4.13h-6.93Z" fill="#f7be89"/></g></g><g><g><path d="M59.93,44.12c-.17,0-.32.03-.46.08v4.19c.14.05.29.08.46.08c1.07,0,2.43-.97,2.43-2.17s-1.35-2.18-2.43-2.18Z" fill="#f7be89"/></g><g><path d="M60.1,38.73c-.24,0-.45.06-.62.17v1.75v2.89c.18.1.38.17.62.17c1.07,0,2.43-1.11,2.43-2.49c0-1.37-1.36-2.49-2.43-2.49Z" fill="#f7be89"/></g><g><path d="M61.67,24.31c-.69-.14-1.52-.02-2.19.28v4.92c1.89.05,3.13-1.85,3.62-3.5.39-1.34-1.43-1.7-1.43-1.7Z" fill="#f7be89"/></g><g><path d="M62.2,33.51c-.92-.97-2.37-.26-2.73-.06v5.18c.23-.1.49-.22.79-.35c2.71-1.2,3.9-2.7,1.94-4.77Z" fill="#f7be89"/></g></g><g><g><g><path d="M59.47,51.01c0,1.63-1.15,2.96-2.55,2.96h-15.2c-1.41,0-2.56-1.33-2.56-2.96v-31.21c0-1.63,1.15-2.96,2.56-2.96h15.2c1.41,0,2.55,1.33,2.55,2.96v31.21Z" fill="#161616"/></g><g><g><g clip-path="url(#eADbWfncXkl81)"><polygon points="50.72,16.84 47.92,18.18 47.92,16.84" fill="#535353"/><polygon points="51.78,16.84 47.92,18.69 47.92,18.18 50.72,16.84" fill="#535353"/><polygon points="52.84,16.84 47.92,19.2 47.92,18.69 51.78,16.84" fill="#525252"/><polygon points="53.9,16.84 47.92,19.7 47.92,19.2 52.84,16.84" fill="#505050"/><polygon points="54.96,16.84 47.92,20.21 47.92,19.7 53.9,16.84" fill="#4f4f4f"/><polygon points="56.02,16.84 47.92,20.71 47.92,20.21 54.96,16.84" fill="#4d4d4d"/><polygon points="57.08,16.84 47.92,21.22 47.92,20.71 56.02,16.84" fill="#4c4c4c"/><polygon points="58.14,16.84 47.92,21.73 47.92,21.22 57.08,16.84" fill="#4a4a4a"/><polygon points="59.2,16.84 47.92,22.23 47.92,21.73 58.14,16.84" fill="#494949"/><polygon points="59.47,17.22 47.92,22.74 47.92,22.23 59.2,16.84 59.47,16.84" fill="#474747"/><polygon points="59.47,17.73 48.08,23.17 47.92,22.82 47.92,22.74 59.47,17.22" fill="#464646"/><polygon points="59.47,18.23 48.28,23.58 48.08,23.17 59.47,17.73" fill="#444"/><polygon points="59.47,18.74 48.48,23.99 48.28,23.58 59.47,18.23" fill="#434343"/><polygon points="59.47,19.24 48.67,24.4 48.48,23.99 59.47,18.74" fill="#424242"/><polygon points="59.47,19.75 48.87,24.81 48.67,24.4 59.47,19.24" fill="#404040"/><polygon points="59.47,20.26 49.07,25.23 48.87,24.81 59.47,19.75" fill="#3f3f3f"/><polygon points="59.47,20.76 49.26,25.64 49.07,25.23 59.47,20.26" fill="#3d3d3d"/><polygon points="59.47,21.27 49.46,26.05 49.26,25.64 59.47,20.76" fill="#3c3c3c"/><polygon points="59.47,21.77 49.66,26.46 49.46,26.05 59.47,21.27" fill="#3a3a3a"/><polygon points="59.47,22.28 49.85,26.87 49.66,26.46 59.47,21.77" fill="#393939"/><polygon points="59.47,22.79 50.05,27.29 49.85,26.87 59.47,22.28" fill="#373737"/><polygon points="59.47,23.29 50.25,27.7 50.05,27.29 59.47,22.79" fill="#363636"/><polygon points="59.47,23.8 50.44,28.11 50.25,27.7 59.47,23.29" fill="#353535"/><polygon points="59.47,24.3 50.64,28.52 50.44,28.11 59.47,23.8" fill="#333"/><polygon points="59.47,24.81 50.84,28.93 50.64,28.52 59.47,24.3" fill="#323232"/><polygon points="59.47,25.32 51.03,29.35 50.84,28.93 59.47,24.81" fill="#303030"/><polygon points="59.47,25.82 51.23,29.76 51.03,29.35 59.47,25.32" fill="#2f2f2f"/><polygon points="59.47,26.33 51.43,30.17 51.23,29.76 59.47,25.82" fill="#2d2d2d"/><polygon points="59.47,26.83 51.62,30.58 51.43,30.17 59.47,26.33" fill="#2c2c2c"/><polygon points="59.47,27.34 51.82,31 51.62,30.58 59.47,26.83" fill="#2a2a2a"/><polygon points="59.47,27.85 52.02,31.41 51.82,31 59.47,27.34" fill="#292929"/><polygon points="59.47,28.35 52.21,31.82 52.02,31.41 59.47,27.85" fill="#272727"/><polygon points="59.47,28.86 52.41,32.23 52.21,31.82 59.47,28.35" fill="#262626"/><polygon points="59.47,29.36 52.61,32.64 52.41,32.23 59.47,28.86" fill="#252525"/><polygon points="59.47,29.87 52.8,33.06 52.61,32.64 59.47,29.36" fill="#232323"/><polygon points="59.47,30.38 53,33.47 52.8,33.06 59.47,29.87" fill="#222"/><polygon points="59.47,30.88 53.2,33.88 53,33.47 59.47,30.38" fill="#202020"/><polygon points="59.47,31.39 53.39,34.29 53.2,33.88 59.47,30.88" fill="#1f1f1f"/><polygon points="59.47,31.9 53.59,34.7 53.39,34.29 59.47,31.39" fill="#1d1d1d"/><polygon points="59.47,32.4 53.79,35.12 53.59,34.7 59.47,31.9" fill="#1c1c1c"/><polygon points="59.47,32.91 53.98,35.53 53.79,35.12 59.47,32.4" fill="#1a1a1a"/><polygon points="59.47,33.41 54.18,35.94 53.98,35.53 59.47,32.91" fill="#191919"/><polygon points="59.47,33.92 54.38,36.35 54.18,35.94 59.47,33.41" fill="#171717"/><polygon points="59.47,34.43 54.58,36.76 54.38,36.35 59.47,33.92" fill="#161616"/><polygon points="56.43,40.65 54.58,36.76 59.47,34.43 59.47,40.65" fill="#161616"/><clipPath id="eADbWfncXkl81"><use width="11.559998" height="23.810001" xlink:href="#eADbWfncXkl2"/></clipPath></g></g></g><g><rect width="16.95" height="29.46" rx="0" ry="0" transform="translate(40.85 20.68)" fill="#fff"/></g></g><g><g><path d="M52.35,18.28c0,.26-.18.47-.4.47h-4.73c-.22,0-.4-.21-.4-.47v0c0-.26.18-.47.4-.47h4.73c.22.01.4.22.4.47v0Z" fill="#161616"/></g><g><path d="M51.95,18.88h-4.73c-.29,0-.53-.27-.53-.59c0-.33.24-.59.53-.59h4.73c.29,0,.53.27.53.59s-.24.59-.53.59Zm-4.73-.94c-.15,0-.28.15-.28.34s.12.34.28.34h4.73c.15,0,.28-.15.28-.34s-.12-.34-.28-.34h-4.73Z"/></g></g></g></g></g><g id="eADbWfncXkl90_to" transform="translate(66.737572,57.624731)"><g transform="translate(-66.737572,-57.624731)"><g><g><g><path d="M58.66,66.86c-1.09-2.45-2.19-4.9-3.28-7.34-1.02-2.29-1.98-4.58-2.89-6.89l-.01-.02c0,0,1.57,9.76,1.78,10.86.53,2.71,3.35,4.79,5.16,6.61.35.35,5.46,5.16,5.46,5.16v0c-.34-.36-.7-.77-1.1-1.27-1.81-2.24-3.93-4.45-5.12-7.11Z" fill="#f4aa6e"/></g><g><path d="M82.72,69.02c-2.34-2.56-.3-8.27-1.77-11.35-1.06-2.24-2.89-8.32-5.62-8.92-1.27-.28-2.08.46-3.23-.69-1.28-1.3-2.14.12-3.44-.25-1.24-.35-1.72-2.25-3.27-1.04-.93.44-1.53,1.26-2.67.55-.99-.61-1.76-1.58-3-.68-.77.32-1.19,1.11-2.17.67-.88-.39-1.38-1.94-1.78-2.74-1.65-3.23-3.3-6.46-4.96-9.68-.47-.92-1-2.5-1.89-2.98-2.98-1.59-2.6,3.58-2.11,4.98c1.09,3.1,2.18,6.2,3.27,9.29.76,2.17,1.56,4.32,2.4,6.44.91,2.31,1.87,4.6,2.89,6.89c1.09,2.45,2.19,4.9,3.28,7.34c1.19,2.66,3.31,4.87,5.12,7.1.4.5.76.91,1.1,1.27c1.05,1.11,1.94,1.7,3.59,2.72c1.98,1.22,5.5,5.7,5.5,5.7L87,75.9c0,0-3.35-5.86-4.28-6.88Z" fill="#f7be89"/></g></g><g><g><path d="M47,32.57c0,0,.51,1.88,1.18,1.99.68.1,2.2-.59,2.19-.6-.41-.75-.74-1.74-1.45-2.06-.14-.06-.26-.11-.39-.15-.57.11-1.26.34-1.53.82Z" fill="#ffd7b6"/></g></g></g></g></g></svg>