<svg width="129" height="77" viewBox="0 0 129 77" fill="none" xmlns="http://www.w3.org/2000/svg">
<path d="M128.68 41.9563C126.002 38.8608 122.411 37.0384 120.199 36.1348L120.758 35.5375C120.967 35.3139 121.091 35.0308 121.11 34.7331C121.129 34.4355 121.042 34.1404 120.863 33.8948C119.146 31.5282 116.042 29.921 114.034 29.0857L115.4 27.4633C115.617 27.2048 115.726 26.8793 115.706 26.5494C115.685 26.2196 115.536 25.9086 115.287 25.6763C112.609 23.1807 108.185 22.3277 105.424 22.0341L106.069 21.0698C106.194 20.8833 106.268 20.6707 106.285 20.4508C106.301 20.2309 106.261 20.0105 106.166 19.809C106.071 19.6076 105.925 19.4313 105.741 19.2958C105.557 19.1603 105.34 19.0698 105.111 19.0322C94.8378 17.3617 78.0922 22.3556 72.9906 23.9932C69.5976 12.2818 56.9735 1.30196 56.4138 0.821058C56.1474 0.591851 55.7987 0.467151 55.4385 0.472323C55.0783 0.477495 54.7338 0.612151 54.4749 0.8489L46.3793 8.2498C44.818 6.47804 42.215 4.30383 41.8776 4.02541C41.619 3.80906 41.2856 3.68961 40.9403 3.68961C40.5949 3.68961 40.2615 3.80906 40.003 4.02541L11.1314 28.0986C10.9704 28.2329 10.8438 28.4 10.7611 28.5873C10.6785 28.7746 10.642 28.9772 10.6543 29.1798C10.6667 29.3824 10.7277 29.5797 10.8326 29.7568C10.9375 29.9339 11.0836 30.0861 11.2599 30.2019C11.3162 30.2399 12.8667 31.2726 15.2769 33.1557L6.60287 39.1291C6.38249 39.2814 6.21336 39.4906 6.11582 39.7316C6.01828 39.9726 5.9965 40.2351 6.05308 40.4875C6.10966 40.7399 6.2422 40.9715 6.43476 41.1544C6.62732 41.3373 6.87168 41.4637 7.13847 41.5184C7.5723 41.6095 8.00078 41.7083 8.42659 41.8095L0.531827 47.7601C0.304598 47.9319 0.13884 48.1656 0.0570797 48.4295C-0.0246804 48.6934 -0.0184757 48.9747 0.0748505 49.2352C0.168177 49.4957 0.344097 49.7227 0.578702 49.8853C0.813306 50.048 1.09521 50.1384 1.38611 50.1444C1.67266 50.1444 30.2711 50.8784 40.5493 65.0322L40.5841 65.0753L40.6537 65.1563L40.7207 65.2221L40.7956 65.2904L40.8813 65.3512C40.9052 65.3695 40.9303 65.3864 40.9563 65.4018L41.0634 65.4575C41.0846 65.4704 41.107 65.4814 41.1304 65.4904C41.1723 65.5086 41.2152 65.5246 41.2589 65.5385L41.3179 65.5587C41.3663 65.5715 41.4155 65.5816 41.4651 65.5891H41.5187C41.5687 65.5917 41.6187 65.5917 41.6687 65.5891H41.7651L41.9177 65.5764H41.9418C42.29 65.5233 77.2246 60.4662 97.0204 75.9387C97.3047 76.1616 97.6698 76.2707 98.038 76.2428C98.4062 76.2149 98.7483 76.0522 98.9914 75.7894L128.65 43.685C128.871 43.4467 128.994 43.1422 129 42.8258C129.005 42.5093 128.892 42.2013 128.68 41.9563ZM112.312 26.8204L90.1781 53.1133C86.1611 52.8602 67.8997 52.0554 53.1279 57.0163C68.0872 48.1575 86.8466 48.2587 87.0957 48.2511C87.3368 48.2493 87.5737 48.1916 87.7857 48.083C87.9977 47.9745 88.1782 47.8184 88.3115 47.6285L103.721 24.5728C105.834 24.6791 109.776 25.2081 112.312 26.8204ZM17.4863 34.9427C21.9184 38.6229 27.9894 44.2849 33.233 51.3795C26.8106 45.8362 19.0952 41.8029 10.7136 39.6075L17.4863 34.9427ZM5.16746 47.6791L11.5572 42.8548C11.6188 42.8071 11.6761 42.7546 11.7286 42.6979C19.9734 45.1986 27.4442 49.5707 33.4874 55.4318C23.7475 49.8685 11.3108 48.1853 5.17549 47.6791H5.16746ZM18.7905 32.4217C18.7842 32.4147 18.7788 32.4071 18.7744 32.3989C18.6339 32.2217 18.4502 32.0793 18.2388 31.9838C16.6159 30.6828 15.2635 29.6805 14.3182 29.0047L40.9322 6.8172C42.1397 7.84369 43.2757 8.94278 44.3333 10.1076L27.1405 25.8004C26.8733 26.0448 26.7184 26.3787 26.7094 26.7301C26.7004 27.0814 26.8379 27.4221 27.0923 27.6784C38.6479 39.3619 40.8921 51.7845 41.1304 58.6185C34.813 46.6844 25.0356 37.5016 18.7905 32.4217ZM30.105 26.8255L55.4631 3.66853C58.5401 6.53372 68.0979 16.0278 70.4599 25.4359L44.028 59.6056C44.02 52.7716 42.1748 39.5847 30.105 26.8255ZM72.8674 26.8685C75.6151 25.9598 91.8813 20.7534 102.473 21.4292L86.3325 45.5783C82.369 45.634 65.1762 46.3933 51.0819 55.0319L72.8674 26.8685ZM52.5146 60.1017C68.4862 54.1815 90.4298 55.8115 90.6976 55.8368C90.9304 55.8552 91.1644 55.8185 91.3785 55.7302C91.5927 55.6418 91.7801 55.5045 91.9241 55.3306L112.199 31.2473C113.568 31.7737 116.171 32.9279 117.837 34.6035L93.2203 60.9268C89.0078 60.2156 69.7609 57.2896 52.52 60.1017H52.5146ZM97.7434 73.0836C86.1021 64.5792 70.4278 62.3366 58.5749 62.0582C75.6793 60.4864 93.2444 63.6528 93.4774 63.6958C93.7204 63.7421 93.9721 63.7272 94.2071 63.6526C94.4421 63.5779 94.6522 63.4462 94.8164 63.2706L118.209 38.2609C119.738 38.8178 123.077 40.2377 125.707 42.8169L97.7434 73.0836Z" fill="white"/>
</svg>
