<svg width="100" height="91" viewBox="0 0 100 91" fill="none" xmlns="http://www.w3.org/2000/svg">
<path d="M18.7472 74.9416L10.5563 71.5002C9.99018 71.2609 9.56596 70.839 9.36151 70.3116C9.15862 69.7835 9.20057 69.2148 9.47979 68.7094L13.3998 61.6341C13.5951 61.2825 13.4371 60.8537 13.0473 60.6765C12.6567 60.5007 12.1829 60.6435 11.9876 60.9965L8.06761 68.071C7.59532 68.9232 7.52514 69.8862 7.87073 70.7818C8.21636 71.6766 8.93354 72.3908 9.89026 72.7941L18.0819 76.2363C18.1895 76.2811 18.3024 76.3025 18.4138 76.3025C18.7121 76.3025 18.9967 76.1494 19.1302 75.8895C19.3141 75.5317 19.1431 75.107 18.7472 74.9416Z" fill="white"/>
<path d="M88.0118 60.9965C87.8165 60.6435 87.3412 60.5007 86.9528 60.6765C86.563 60.8537 86.4043 61.2825 86.6003 61.6341L90.5203 68.7094C90.7996 69.2148 90.8415 69.7835 90.6378 70.3116C90.4342 70.839 90.01 71.2609 89.4439 71.4994L81.2529 74.9416C80.857 75.107 80.6853 75.5317 80.8692 75.8895C81.0035 76.1494 81.288 76.3025 81.5856 76.3025C81.697 76.3025 81.8107 76.2805 81.9183 76.2363L90.1099 72.7934C91.0666 72.3908 91.7838 71.6766 92.1294 70.7818C92.4742 69.8862 92.4048 68.9232 91.9318 68.071L88.0118 60.9965Z" fill="white"/>
<path d="M18.0819 14.996L9.89026 18.4386C8.93354 18.8412 8.21636 19.5553 7.87073 20.4501C7.52514 21.3456 7.59532 22.3086 8.06761 23.1606L11.9876 30.2346C12.1264 30.4848 12.4049 30.6289 12.6948 30.6289C12.8131 30.6289 12.9344 30.6055 13.0473 30.5545C13.4371 30.3773 13.5951 29.9486 13.3998 29.597L9.47979 22.5223C9.20057 22.0169 9.15862 21.4483 9.36151 20.9202C9.56596 20.3929 9.99018 19.971 10.5563 19.7325L18.7472 16.2906C19.1431 16.1252 19.3141 15.7005 19.1302 15.3428C18.9463 14.9857 18.4756 14.8326 18.0819 14.996Z" fill="white"/>
<path d="M81.2529 16.2908L89.4431 19.7321C90.01 19.9713 90.4342 20.3932 90.6378 20.9205C90.8415 21.4486 90.7996 22.0173 90.5203 22.5226L86.6003 29.5974C86.4043 29.949 86.563 30.3778 86.9528 30.555C87.0657 30.606 87.1863 30.6294 87.3054 30.6294C87.5945 30.6294 87.8737 30.4853 88.0118 30.2351L91.9318 23.161C92.4048 22.3089 92.4742 21.3459 92.1294 20.4504C91.7838 19.5556 91.0666 18.8414 90.1099 18.4382L81.9183 14.9962C81.5222 14.8301 81.053 14.9859 80.8692 15.343C80.6853 15.7008 80.857 16.1254 81.2529 16.2908Z" fill="white"/>
<path d="M86.9202 45.6161L99.379 22.2022C100.884 19.3723 99.5575 15.9373 96.431 14.5689L65.432 1.0051C64.5531 0.620458 63.6208 0.438477 62.7022 0.438477C60.3538 0.438477 58.0909 1.62827 57.0084 3.66261L50 16.8341L42.9909 3.66261C41.9091 1.62827 39.6462 0.438477 37.297 0.438477C36.3792 0.438477 35.4469 0.620458 34.568 1.0051L3.569 14.5689C0.442475 15.9373 -0.884281 19.3723 0.621003 22.2022L13.0798 45.6161L0.621003 69.03C-0.884281 71.8598 0.442475 75.2949 3.569 76.6633L34.568 90.2271C35.4469 90.6117 36.3792 90.7937 37.297 90.7937C39.6462 90.7937 41.9091 89.6039 42.9909 87.5696L50 74.398L57.0084 87.5696C58.0909 89.6039 60.3538 90.7937 62.7022 90.7937C63.6208 90.7937 64.5531 90.6117 65.432 90.2271L96.431 76.6633C99.5575 75.2949 100.884 71.8598 99.379 69.03L86.9202 45.6161ZM59.8556 4.89927C60.3745 3.92386 61.4922 3.29307 62.7022 3.29307C63.1737 3.29307 63.6292 3.38752 64.0556 3.57437L95.0546 17.1395C96.6263 17.8261 97.2886 19.5433 96.5317 20.9654L78.8368 54.22C78.3181 55.1954 77.2003 55.8262 75.9896 55.8262C75.5189 55.8262 75.0634 55.731 74.6369 55.5449L73.6893 55.1306V27.0614C73.6893 23.9214 70.8466 21.3528 67.3721 21.3528H52.404L51.7525 20.1272L59.8556 4.89927ZM3.46753 20.9654C2.7107 19.5433 3.37369 17.8261 4.94535 17.1395L35.9444 3.57437C36.3709 3.38752 36.8263 3.29307 37.2978 3.29307C38.5078 3.29307 39.6255 3.92386 40.1444 4.89927L48.2475 20.1272L47.5952 21.3528H32.6279C29.1534 21.3528 26.3107 23.9214 26.3107 27.0614V55.1306L25.3631 55.5449C24.9366 55.731 24.4812 55.8262 24.0097 55.8262C22.7997 55.8262 21.6819 55.1954 21.1632 54.22L3.46753 20.9654ZM40.1444 86.3329C39.6255 87.3083 38.5078 87.9391 37.297 87.9391C36.8263 87.9391 36.3709 87.8447 35.9444 87.6578L4.94535 74.0927C3.37369 73.4061 2.7107 71.6889 3.46753 70.2668L14.8323 48.9098L18.3166 55.4566C19.3985 57.491 21.6614 58.6807 24.0097 58.6807C24.781 58.6807 25.5592 58.5443 26.3107 58.2754V64.1708C26.3107 67.3108 29.1534 69.8794 32.6279 69.8794H47.5952L48.2475 71.105L40.1444 86.3329ZM32.6279 67.0247C30.8861 67.0247 29.4693 65.7446 29.4693 64.1708V27.0614C29.4693 25.4876 30.8861 24.2075 32.6279 24.2075H67.3721C69.1139 24.2075 70.5307 25.4876 70.5307 27.0614V64.1708C70.5307 65.7446 69.1139 67.0247 67.3721 67.0247H32.6279ZM95.0539 74.0927L64.0556 87.6578C63.6292 87.8447 63.1737 87.9391 62.7022 87.9391C61.4922 87.9391 60.3745 87.3083 59.8556 86.3329L51.7525 71.105L52.404 69.8794H67.3721C70.8466 69.8794 73.6893 67.3108 73.6893 64.1708V58.2754C74.44 58.5443 75.219 58.6807 75.9896 58.6807C78.3386 58.6807 80.6015 57.491 81.6834 55.4566L85.1677 48.9098L96.5317 70.2668C97.2886 71.6889 96.6263 73.4061 95.0539 74.0927Z" fill="white"/>
<path d="M46.8413 27.7764H38.1552C35.9785 27.7764 34.207 29.3769 34.207 31.3442V39.1934C34.207 39.5876 34.5602 39.9075 34.9966 39.9075C35.4323 39.9075 35.7863 39.5876 35.7863 39.1934V31.3442C35.7863 30.1641 36.8491 29.2032 38.1552 29.2032H46.8413C47.2769 29.2032 47.631 28.8848 47.631 28.4898C47.631 28.0955 47.2769 27.7764 46.8413 27.7764Z" fill="white"/>
</svg>
