<svg width="199" height="194" viewBox="0 0 199 194" fill="none" xmlns="http://www.w3.org/2000/svg">
<path fill-rule="evenodd" clip-rule="evenodd" d="M26.7021 0.0107477C33.9543 0.129423 41.4035 1.44834 46.2112 6.88638C51.3028 12.6457 52.8472 20.5638 51.5794 28.15C50.201 36.3982 46.8188 45.0184 39.2484 48.551C31.7541 52.0482 23.3078 48.5932 15.9774 44.7634C9.02238 41.1298 2.59315 36.0297 0.694051 28.4084C-1.24695 20.6189 0.957559 12.1515 6.37663 6.23453C11.4146 0.733721 19.2491 -0.111212 26.7021 0.0107477Z" fill="#FF967E"/>
<path fill-rule="evenodd" clip-rule="evenodd" d="M168.351 134.013C177.137 134.155 186.162 135.738 191.987 142.264C198.155 149.175 200.026 158.677 198.49 167.78C196.82 177.678 192.723 188.022 183.551 192.261C174.471 196.458 164.238 192.312 155.357 187.716C146.931 183.356 139.142 177.236 136.841 168.09C134.489 158.743 137.16 148.582 143.726 141.481C149.829 134.88 159.321 133.867 168.351 134.013Z" fill="#F5FCAC"/>
<g clip-path="url(#clip0_1424_3872)">
<path d="M37 69.5708C37.1235 69.2646 37.2615 68.9583 37.3705 68.6448C37.7223 67.433 38.4243 66.3532 39.3877 65.542C40.3511 64.7308 41.5325 64.2246 42.7826 64.0875C43.1432 64.0747 43.4875 63.9333 43.7538 63.6888C44.02 63.4443 44.1908 63.1125 44.2355 62.7531C45.5695 57.848 47.5976 53.1604 50.2578 48.8333C51.0036 47.584 51.8608 47.2705 52.8294 47.8927C53.7447 48.4833 53.89 49.3948 53.1781 50.5614C50.6758 54.7205 48.743 59.199 47.4319 63.876C47.243 64.5323 47.2648 64.9698 47.9186 65.3344C48.4414 65.6464 48.8803 66.082 49.1971 66.6031C49.7129 67.4854 50.3231 67.5218 51.253 67.3323C57.4725 66.0679 63.7956 65.3868 70.1408 65.2979C70.4677 65.3178 70.7935 65.244 71.0803 65.0852C71.3671 64.9265 71.6031 64.6892 71.7608 64.401C72.4478 63.2747 73.4574 62.3827 74.6575 61.8415C75.8577 61.3004 77.1926 61.1352 78.4877 61.3677C78.8062 61.441 79.1398 61.4097 79.4393 61.2785C79.7388 61.1472 79.9884 60.9229 80.1513 60.6385C83.2369 56.4605 86.753 52.6208 90.6413 49.1833C90.9155 49.0052 91.1182 48.7356 91.2139 48.4222C91.3096 48.1088 91.292 47.7715 91.1643 47.4698C90.8841 46.3778 90.7811 45.2477 90.8592 44.1229C90.9058 43.8922 90.8739 43.6525 90.7685 43.4423C90.6631 43.232 90.4904 43.0634 90.2781 42.9635C85.0196 39.9069 79.4085 37.5071 73.5697 35.8177C73.108 36.683 72.4737 37.4437 71.7063 38.0521C70.9389 38.6606 70.0548 39.1038 69.1092 39.3541C68.1142 39.6134 67.0745 39.6497 66.0639 39.4607C65.0533 39.2717 64.0965 38.8619 63.2613 38.2604C61.8084 39.8208 60.2973 41.425 58.7427 42.9562C58.3275 43.4133 57.7579 43.6991 57.1445 43.7583C56.8346 43.7388 56.5365 43.6319 56.2845 43.4499C56.0325 43.2679 55.8368 43.0182 55.7199 42.7294C55.603 42.4407 55.5698 42.1247 55.6239 41.8179C55.678 41.511 55.8173 41.2257 56.0258 40.9948C57.4787 39.3833 58.9897 37.8594 60.5371 36.3573C60.7584 36.1956 60.9175 35.9623 60.9876 35.6967C61.0577 35.4311 61.0346 35.1494 60.9221 34.8989C60.409 33.476 60.3903 31.9208 60.8691 30.4859C61.3478 29.0509 62.2958 27.8206 63.5591 26.9948C64.7988 26.1054 66.3063 25.6727 67.827 25.7697C69.3477 25.8666 70.7885 26.4874 71.9061 27.5271C72.0677 27.7011 72.2856 27.8119 72.521 27.8399C72.7564 27.868 72.9941 27.8114 73.1919 27.6802C82.2027 23.192 92.2742 21.2918 102.294 22.1896C108.852 22.6895 115.259 24.4209 121.181 27.2937C121.438 27.4689 121.747 27.5519 122.056 27.5294C122.366 27.5069 122.659 27.3802 122.889 27.1698C123.973 26.2969 125.308 25.7967 126.697 25.7429C128.086 25.6891 129.455 26.0845 130.603 26.8708C131.817 27.6242 132.763 28.7437 133.304 30.0692C133.846 31.3946 133.956 32.858 133.618 34.25C133.492 34.5402 133.474 34.8663 133.567 35.1689C133.66 35.4714 133.859 35.7302 134.127 35.8979C134.343 36.0518 134.54 36.2304 134.715 36.4302C136.008 37.8885 137.221 38.7416 139.495 38.1656C142.227 37.4802 144.479 39.0114 145.932 41.4104C146.639 42.4802 147.011 43.7384 147 45.0225C146.988 46.3067 146.593 47.5579 145.866 48.6146C145.663 48.8695 145.548 49.1839 145.539 49.5102C145.53 49.8365 145.627 50.1569 145.815 50.4229C151.692 60.8156 154.06 72.8384 152.564 84.6937C150.959 98.4385 144.944 109.959 134.911 119.387C134.703 119.538 134.554 119.756 134.488 120.004C134.421 120.253 134.443 120.517 134.548 120.751C135.028 122.166 135.028 123.7 134.547 125.114C134.065 126.529 133.131 127.743 131.889 128.568C130.681 129.432 129.219 129.866 127.737 129.8C126.254 129.734 124.837 129.172 123.709 128.203C123.539 128.036 123.316 127.934 123.079 127.914C122.842 127.894 122.605 127.957 122.409 128.094C113.271 132.757 103.008 134.739 92.7988 133.81C85.8947 133.274 79.1632 131.378 72.9885 128.232C72.712 128.048 72.3844 127.957 72.0529 127.971C71.7213 127.985 71.4029 128.105 71.1433 128.312C70.019 129.098 68.6771 129.51 67.3071 129.489C65.9371 129.468 64.6082 129.016 63.5083 128.196C62.3696 127.43 61.4941 126.329 61.0014 125.045C60.5087 123.761 60.4226 122.356 60.755 121.021C60.8609 120.727 60.87 120.407 60.7811 120.108C60.6922 119.809 60.5099 119.546 60.261 119.358C50.0089 109.935 43.6395 97.0025 42.4048 83.1041C42.2523 81.5583 42.2595 79.9979 42.1506 78.4448C42.1506 78.1239 41.9762 77.6135 41.7583 77.5333C39.2302 76.651 37.7846 74.7916 37 72.3198V69.5708ZM75.502 74.9156C75.4443 74.9599 75.3951 75.0142 75.3567 75.076C69.3083 87.4414 66.7937 101.248 68.0922 114.961C68.0922 115.26 68.5644 115.603 68.8913 115.8C70.0318 116.529 71.4048 116.945 72.3056 117.864C72.5772 118.218 72.9694 118.461 73.4075 118.544C73.8456 118.627 74.2989 118.546 74.6811 118.316C91.7702 111.769 106.815 100.773 118.268 86.4583C118.468 86.2321 118.593 85.9492 118.625 85.6488C118.658 85.3484 118.596 85.0452 118.45 84.7812C118.012 83.4683 117.753 82.1022 117.68 80.7198C117.72 80.4146 117.656 80.1047 117.499 79.8402C117.343 79.5757 117.102 79.3718 116.815 79.2614C108.218 75.0027 99.0676 71.9787 89.6315 70.2781C87.8299 69.95 85.9993 69.7166 84.234 69.4468C82.8247 73.851 80.1731 75.4479 75.502 74.9156ZM73.9474 124.812C74.0968 124.916 74.252 125.011 74.4123 125.097C89.8277 132.476 105.255 132.5 120.695 125.17C120.937 125.092 121.14 124.924 121.262 124.7C121.384 124.476 121.415 124.213 121.348 123.967C120.942 120.197 122.801 117.404 126.31 116.143C126.499 116.045 126.663 115.904 126.789 115.732C126.915 115.56 127 115.361 127.037 115.151C127.204 112.431 127.291 109.697 127.407 106.97C127.383 106.733 127.41 106.494 127.485 106.268C127.56 106.043 127.682 105.836 127.843 105.661C128.003 105.486 128.199 105.347 128.417 105.253C128.635 105.16 128.87 105.113 129.107 105.118C129.345 105.108 129.583 105.151 129.803 105.243C130.023 105.336 130.22 105.476 130.38 105.653C130.54 105.83 130.659 106.041 130.729 106.27C130.799 106.499 130.818 106.74 130.785 106.977C130.712 109.784 130.669 112.599 130.407 115.392C130.306 116.544 131.134 116.529 131.642 116.959C132.151 117.39 132.521 116.959 132.87 116.653C137.725 112.119 141.687 106.71 144.551 100.706C144.729 100.449 144.8 100.131 144.748 99.8223C144.697 99.5132 144.527 99.2365 144.275 99.051C139.942 94.7082 135.236 90.7578 130.211 87.2458C129.804 86.9614 129.485 86.3927 128.758 86.8812C128.032 87.3698 128.228 87.9094 128.359 88.5364C128.889 91.1323 129.448 93.7208 129.913 96.3312C129.987 96.5499 130.012 96.7823 129.986 97.0117C129.959 97.2411 129.882 97.4617 129.761 97.6577C129.639 97.8538 129.476 98.0202 129.282 98.1452C129.089 98.2701 128.87 98.3504 128.642 98.3802C127.494 98.6354 126.79 97.9646 126.514 96.4844C126.02 93.8156 125.482 91.1542 124.981 88.5802C124.19 88.5328 123.407 88.3933 122.649 88.1646C121.77 87.7562 121.341 88.0698 120.796 88.7406C109.155 103.32 93.8615 114.531 76.4827 121.225C75.0298 121.786 73.8457 122.239 74.0636 124.091C74.0509 124.337 74.0019 124.58 73.9183 124.812H73.9474ZM62.8835 117.164C64.4309 116.682 64.8377 115.764 64.6851 114.181C64.0515 107.137 64.4258 100.039 65.7966 93.101C67.0729 86.469 69.1921 80.0289 72.1022 73.9385C72.3129 73.6023 72.393 73.2 72.3274 72.8083C71.7172 71.4521 70.998 70.1542 70.148 68.5281L50.7372 70.7812C50.6137 73.8875 49.3279 76.0385 46.6545 77.1541C46.2873 77.254 45.9717 77.4905 45.772 77.8156C45.5722 78.1407 45.5034 78.5299 45.5794 78.9041C46.1191 89.2661 49.407 99.2953 55.1032 107.954C57.2602 111.362 59.8678 114.46 62.8545 117.164H62.8835ZM131.439 38.0489C127.443 40.5864 124.174 40.0323 121.174 36.4667C121.03 36.357 120.862 36.2823 120.685 36.2481C120.507 36.214 120.324 36.2214 120.15 36.2698C114.844 37.8911 109.743 40.1201 104.945 42.9125C104.342 43.2552 104.284 43.6416 104.299 44.276C104.356 45.325 104.258 46.3768 104.008 47.3969C103.864 47.7134 103.838 48.0711 103.934 48.4053C104.03 48.7396 104.242 49.0285 104.531 49.2198C111.819 55.7003 117.81 63.5153 122.184 72.2468C122.91 73.7052 123.528 75.0031 125.555 74.7333C126.136 74.6604 126.463 74.6385 126.775 74.1062C130.861 67.1428 134.132 59.7291 136.524 52.0125C136.592 51.8843 136.635 51.7438 136.649 51.5991C136.663 51.4544 136.648 51.3083 136.605 51.1694C136.563 51.0304 136.493 50.9013 136.401 50.7894C136.308 50.6776 136.195 50.5852 136.066 50.5177C134.733 49.5545 133.81 48.1227 133.48 46.5073C133.268 45.5526 133.249 44.5648 133.425 43.6028C133.601 42.6407 133.968 41.724 134.504 40.9073L131.439 38.0489ZM146.397 96.0906C146.469 95.9156 146.571 95.675 146.658 95.4271C148.194 91.0996 149.125 86.5796 149.426 81.9958C150.246 71.724 148.033 61.4373 143.062 52.4208C142.866 52.0708 142.263 51.5823 142.074 51.6917C141.348 52.0271 140.236 51.4146 139.844 52.7344C137.412 60.8322 134.024 68.6092 129.754 75.9C129.667 76.0986 129.628 76.3147 129.639 76.5312C129.651 76.7476 129.712 76.9585 129.819 77.1468C130.455 77.9616 130.906 78.9051 131.143 79.9122C131.38 80.9193 131.397 81.966 131.192 82.9802C131.122 83.2058 131.134 83.449 131.226 83.6666C131.317 83.8842 131.483 84.0621 131.693 84.1687C133.146 85.1896 134.599 86.1812 135.994 87.3114C139.473 90.1479 142.91 93.1083 146.426 96.0906H146.397ZM82.4251 63.2198C82.9118 64.051 83.2823 64.8021 83.769 65.4656C84.0359 65.793 84.4041 66.0214 84.8151 66.1146C89.9439 67.1792 95.1162 68.0177 100.187 69.2864C106.57 70.9761 112.754 73.3498 118.632 76.3666C118.815 76.4469 119.013 76.4884 119.213 76.4884C119.413 76.4884 119.611 76.4469 119.794 76.3666C119.975 76.2719 120.048 75.6375 119.917 75.3531C115.589 66.2601 109.47 58.1416 101.93 51.4875C101.779 51.3832 101.606 51.3163 101.424 51.2922C101.242 51.2681 101.057 51.2876 100.884 51.3489C99.8582 51.8863 98.718 52.1669 97.5607 52.1669C96.4034 52.1669 95.2632 51.8863 94.2372 51.3489C94.0651 51.2872 93.8812 51.2662 93.6997 51.2877C93.5182 51.3092 93.3441 51.3726 93.1911 51.4729C89.189 54.9766 85.5879 58.9165 82.4542 63.2198H82.4251ZM102.548 40.375C107.535 37.4058 112.84 35.0111 118.363 33.2364C120.157 32.6531 120.157 32.6604 120.317 30.7208C120.236 30.6542 120.148 30.5956 120.055 30.5458C119.615 30.3271 119.172 30.1156 118.726 29.9114C111.811 26.8279 104.309 25.2957 96.7432 25.4216C89.1775 25.5476 81.7303 27.3286 74.9208 30.6406C74.7354 30.75 74.5779 30.9011 74.4606 31.0821C74.3434 31.263 74.2697 31.4689 74.2453 31.6833C74.3038 31.8934 74.4087 32.0877 74.552 32.2517C74.6953 32.4158 74.8735 32.5455 75.0734 32.6312C76.5263 33.1927 78.11 33.55 79.5556 34.1771C83.9797 36.0875 88.3602 38.0927 92.9006 40.1198C96.2568 37.6479 98.9519 37.6406 102.577 40.375H102.548ZM43.894 74.3541C44.3584 74.3535 44.8176 74.2566 45.2428 74.0696C45.6681 73.8825 46.0503 73.6092 46.3654 73.2669C46.6805 72.9246 46.9217 72.5206 47.074 72.0803C47.2263 71.6401 47.2863 71.173 47.2502 70.7083C47.2428 70.2529 47.1451 69.8035 46.963 69.3863C46.7808 68.9691 46.5178 68.5925 46.1892 68.2783C45.8606 67.9641 45.4731 67.7187 45.0492 67.5563C44.6252 67.3938 44.1733 67.3177 43.7197 67.3323C42.7999 67.3832 41.9363 67.793 41.3134 68.4741C40.6904 69.1553 40.3573 70.0539 40.3853 70.9781C40.41 71.891 40.7922 72.7573 41.449 73.3893C42.1058 74.0212 42.9843 74.3679 43.894 74.3541ZM77.5143 71.6343C77.9688 71.6374 78.4192 71.5489 78.8391 71.3742C79.2589 71.1995 79.6395 70.942 79.9585 70.6171C80.2775 70.2921 80.5284 69.9063 80.6962 69.4824C80.8641 69.0584 80.9456 68.605 80.9359 68.1489C80.9359 67.2245 80.57 66.338 79.9188 65.6844C79.2676 65.0307 78.3844 64.6635 77.4634 64.6635C76.5425 64.6635 75.6592 65.0307 75.008 65.6844C74.3568 66.338 73.991 67.2245 73.991 68.1489C73.9809 68.6144 74.0654 69.0771 74.2393 69.5088C74.4133 69.9404 74.673 70.3319 75.0027 70.6595C75.3325 70.987 75.7252 71.2437 76.157 71.4138C76.5888 71.5839 77.0507 71.6639 77.5143 71.6489V71.6343ZM127.894 81.5437C127.913 81.0785 127.837 80.6143 127.67 80.1797C127.504 79.7451 127.25 79.3493 126.926 79.0167C126.601 78.684 126.212 78.4216 125.783 78.2455C125.353 78.0694 124.892 77.9833 124.429 77.9927C123.5 77.9927 122.609 78.363 121.953 79.0221C121.296 79.6812 120.927 80.5751 120.927 81.5073C120.927 82.4394 121.296 83.3333 121.953 83.9925C122.609 84.6516 123.5 85.0219 124.429 85.0219C124.885 85.0307 125.338 84.9473 125.762 84.7765C126.185 84.6058 126.57 84.3513 126.893 84.0281C127.217 83.7049 127.472 83.3196 127.644 82.8953C127.816 82.471 127.901 82.0163 127.894 81.5583V81.5437ZM63.9659 32.6896C63.9402 33.1567 64.009 33.6242 64.1683 34.0639C64.3275 34.5037 64.5739 34.9064 64.8925 35.2479C65.2111 35.5894 65.5953 35.8626 66.0219 36.051C66.4486 36.2394 66.9089 36.3391 67.375 36.344C67.8411 36.3489 68.3033 36.259 68.7339 36.0797C69.1644 35.9004 69.5542 35.6354 69.8799 35.3007C70.2056 34.966 70.4603 34.5685 70.6288 34.1323C70.7972 33.696 70.8759 33.2301 70.86 32.7625C70.8857 32.2953 70.8168 31.8278 70.6576 31.3881C70.4983 30.9484 70.252 30.5456 69.9334 30.2041C69.6148 29.8626 69.2306 29.5894 68.804 29.401C68.3773 29.2126 67.917 29.113 67.4509 29.108C66.9848 29.1031 66.5226 29.193 66.0921 29.3723C65.6616 29.5517 65.2717 29.8166 64.946 30.1514C64.6203 30.4861 64.3656 30.8835 64.1971 31.3198C64.0287 31.756 63.95 32.222 63.9659 32.6896ZM97.5716 41.7385C96.6569 41.7519 95.7841 42.1256 95.1413 42.7789C94.4986 43.4323 94.1373 44.313 94.1355 45.2312C94.1446 46.1486 94.5078 47.0266 95.1486 47.6807C95.7894 48.3349 96.658 48.714 97.5716 48.7385C98.4964 48.7385 99.3834 48.3698 100.037 47.7134C100.691 47.057 101.059 46.1668 101.059 45.2385C101.059 44.3103 100.691 43.42 100.037 42.7636C99.3834 42.1073 98.4964 41.7385 97.5716 41.7385ZM128.083 126.322C128.535 126.323 128.984 126.234 129.402 126.06C129.82 125.886 130.2 125.631 130.52 125.309C130.839 124.987 131.092 124.604 131.263 124.184C131.435 123.763 131.522 123.313 131.519 122.858C131.54 122.392 131.467 121.925 131.304 121.488C131.141 121.05 130.891 120.65 130.569 120.312C130.248 119.975 129.861 119.706 129.433 119.522C129.005 119.338 128.545 119.243 128.079 119.243C127.614 119.243 127.153 119.338 126.725 119.522C126.297 119.706 125.91 119.975 125.589 120.312C125.267 120.65 125.017 121.05 124.854 121.488C124.691 121.925 124.618 122.392 124.639 122.858C124.632 123.315 124.715 123.769 124.884 124.193C125.054 124.617 125.306 125.003 125.626 125.327C125.946 125.652 126.328 125.909 126.749 126.084C127.169 126.258 127.62 126.347 128.075 126.344L128.083 126.322ZM127.029 29.1896C126.115 29.1856 125.237 29.5444 124.585 30.1876C123.933 30.8309 123.561 31.7065 123.55 32.6239C123.546 33.0788 123.631 33.5299 123.801 33.9516C123.971 34.3733 124.222 34.7572 124.54 35.0816C124.857 35.4059 125.236 35.6642 125.653 35.8418C126.07 36.0194 126.518 36.1128 126.971 36.1166C127.424 36.1205 127.874 36.0347 128.294 35.8642C128.714 35.6936 129.097 35.4417 129.42 35.1228C129.743 34.8039 130 34.4242 130.177 34.0055C130.354 33.5867 130.447 33.1371 130.451 32.6823C130.451 31.7668 130.091 30.8883 129.448 30.2383C128.806 29.5882 127.934 29.2191 127.022 29.2114L127.029 29.1896ZM63.9514 122.596C63.9331 123.064 64.0096 123.53 64.176 123.967C64.3424 124.405 64.5954 124.804 64.9198 125.14C65.2441 125.476 65.6329 125.743 66.0629 125.924C66.4928 126.106 66.9549 126.198 67.4212 126.195C67.8876 126.192 68.3485 126.094 68.7761 125.907C69.2037 125.721 69.5892 125.449 69.9092 125.108C70.2293 124.768 70.4772 124.366 70.6381 123.926C70.799 123.487 70.8696 123.02 70.8455 122.552C70.8359 121.617 70.4605 120.722 69.8 120.062C69.1395 119.402 68.247 119.029 67.3149 119.023C66.3957 119.059 65.5274 119.456 64.897 120.128C64.2666 120.801 63.9244 121.695 63.9442 122.618L63.9514 122.596ZM143.556 45.1364C143.583 44.6828 143.52 44.2283 143.37 43.7992C143.221 43.3701 142.989 42.9748 142.688 42.636C142.386 42.2972 142.02 42.0216 141.612 41.825C141.204 41.6284 140.761 41.5148 140.309 41.4906C139.389 41.4461 138.489 41.7703 137.807 42.3918C137.125 43.0133 136.717 43.8812 136.673 44.8047C136.629 45.7281 136.952 46.6314 137.571 47.3158C138.19 48.0002 139.055 48.4097 139.975 48.4542C140.427 48.4737 140.879 48.4032 141.304 48.2468C141.73 48.0905 142.12 47.8512 142.453 47.5429C142.786 47.2345 143.054 46.8632 143.244 46.4502C143.433 46.0372 143.539 45.5907 143.556 45.1364Z" fill="#00477C"/>
</g>
<defs>
<clipPath id="clip0_1424_3872">
<rect width="116" height="112" fill="white" transform="translate(37 22)"/>
</clipPath>
</defs>
</svg>
